<svg width="112" height="18" viewBox="0 0 112 18" fill="none" xmlns="http://www.w3.org/2000/svg">
<path d="M4.06623 17.3162H0.490234V0.180176H10.3062V3.15618H4.06623V7.57218H9.87424V10.5482H4.06623V17.3162Z" fill="#399478"/>
<path d="M20.0701 17.3162H12.2701V15.2522L14.3581 14.2922V3.20418L12.2701 2.24418V0.180176H20.0701V2.24418L17.9821 3.20418V14.2922L20.0701 15.2522V17.3162Z" fill="#399478"/>
<path d="M35.729 7.95618H42.521V16.8362C41.625 17.1402 40.689 17.3802 39.713 17.5562C38.753 17.7322 37.657 17.8202 36.425 17.8202C33.865 17.8202 31.897 17.0682 30.521 15.5642C29.145 14.0602 28.457 11.8682 28.457 8.98818C28.457 7.19618 28.801 5.64418 29.489 4.33218C30.193 3.02018 31.209 2.00418 32.537 1.28418C33.865 0.564176 35.489 0.204175 37.409 0.204175C38.321 0.204175 39.217 0.300176 40.097 0.492176C40.977 0.684175 41.777 0.940176 42.497 1.26018L41.297 4.16418C40.769 3.89218 40.169 3.66818 39.497 3.49218C38.825 3.31618 38.121 3.22818 37.385 3.22818C36.329 3.22818 35.409 3.46818 34.625 3.94818C33.857 4.42818 33.257 5.10818 32.825 5.98818C32.409 6.85218 32.201 7.87618 32.201 9.06018C32.201 10.1802 32.353 11.1722 32.657 12.0362C32.961 12.9002 33.441 13.5802 34.097 14.0762C34.753 14.5562 35.609 14.7962 36.665 14.7962C37.177 14.7962 37.609 14.7722 37.961 14.7242C38.329 14.6762 38.665 14.6202 38.969 14.5562V10.9802H35.729V7.95618Z" fill="#242424"/>
<path d="M51.5842 0.444175C53.9202 0.444175 55.6402 0.868176 56.7442 1.71618C57.8642 2.56418 58.4242 3.85218 58.4242 5.58018C58.4242 6.36418 58.2722 7.05218 57.9682 7.64418C57.6802 8.22018 57.2882 8.71618 56.7922 9.13218C56.3122 9.53218 55.7922 9.86018 55.2322 10.1162L60.2722 17.5802H56.2402L52.1602 11.0042H50.2162V17.5802H46.5922V0.444175H51.5842ZM51.3202 3.42018H50.2162V8.05218H51.3922C52.5922 8.05218 53.4482 7.85218 53.9602 7.45218C54.4882 7.05218 54.7522 6.46018 54.7522 5.67618C54.7522 4.86018 54.4722 4.28418 53.9122 3.94818C53.3682 3.59618 52.5042 3.42018 51.3202 3.42018Z" fill="#242424"/>
<path d="M77.988 8.98818C77.988 10.7642 77.692 12.3162 77.1 13.6442C76.524 14.9562 75.636 15.9802 74.436 16.7162C73.236 17.4522 71.7 17.8202 69.828 17.8202C67.972 17.8202 66.436 17.4522 65.22 16.7162C64.02 15.9802 63.124 14.9482 62.532 13.6202C61.956 12.2922 61.668 10.7402 61.668 8.96418C61.668 7.18818 61.956 5.64418 62.532 4.33218C63.124 3.02018 64.02 2.00418 65.22 1.28418C66.436 0.548176 67.98 0.180176 69.852 0.180176C71.708 0.180176 73.236 0.548176 74.436 1.28418C75.636 2.00418 76.524 3.02818 77.1 4.35618C77.692 5.66818 77.988 7.21218 77.988 8.98818ZM65.484 8.98818C65.484 10.7802 65.828 12.1962 66.516 13.2362C67.204 14.2602 68.308 14.7722 69.828 14.7722C71.38 14.7722 72.492 14.2602 73.164 13.2362C73.836 12.1962 74.172 10.7802 74.172 8.98818C74.172 7.18018 73.836 5.76418 73.164 4.74018C72.492 3.71618 71.388 3.20418 69.852 3.20418C68.316 3.20418 67.204 3.71618 66.516 4.74018C65.828 5.76418 65.484 7.18018 65.484 8.98818Z" fill="#242424"/>
<path d="M95.4815 11.5322C95.4815 12.7162 95.2175 13.7882 94.6895 14.7482C94.1775 15.6922 93.3935 16.4442 92.3375 17.0042C91.2975 17.5482 89.9775 17.8202 88.3775 17.8202C86.1055 17.8202 84.3775 17.2442 83.1935 16.0922C82.0095 14.9242 81.4175 13.3882 81.4175 11.4842V0.444175H85.0415V10.9322C85.0415 12.3402 85.3295 13.3322 85.9055 13.9082C86.4815 14.4842 87.3375 14.7722 88.4735 14.7722C89.6575 14.7722 90.5135 14.4602 91.0415 13.8362C91.5855 13.2122 91.8575 12.2362 91.8575 10.9082V0.444175H95.4815V11.5322Z" fill="#242424"/>
<path d="M105.15 0.444175C107.358 0.444175 108.966 0.924175 109.974 1.88418C110.998 2.82818 111.51 4.13218 111.51 5.79618C111.51 6.78818 111.302 7.72418 110.886 8.60418C110.47 9.46818 109.774 10.1642 108.798 10.6922C107.838 11.2202 106.526 11.4842 104.862 11.4842H103.302V17.5802H99.6782V0.444175H105.15ZM104.958 3.42018H103.302V8.50818H104.502C105.526 8.50818 106.334 8.30818 106.926 7.90818C107.534 7.49218 107.838 6.82818 107.838 5.91618C107.838 4.25218 106.878 3.42018 104.958 3.42018Z" fill="#242424"/>
</svg>
