<svg width="177" height="177" viewBox="0 0 177 177" fill="none" xmlns="http://www.w3.org/2000/svg">
<path d="M45.9116 35.4814C43.0314 32.6013 38.3619 32.6013 35.4817 35.4814C32.6016 38.3615 32.6016 43.0311 35.4817 45.9112L78.0703 88.4996L35.4822 131.088C32.6021 133.968 32.6021 138.638 35.4822 141.518C38.3623 144.398 43.0319 144.398 45.912 141.518L88.5 98.9294L131.088 141.518C133.968 144.398 138.638 144.398 141.518 141.518C144.398 138.638 144.398 133.968 141.518 131.088L98.9297 88.4996L141.519 45.9112C144.399 43.0311 144.399 38.3615 141.519 35.4814C138.639 32.6013 133.969 32.6013 131.089 35.4814L88.5 78.0699L45.9116 35.4814Z" fill="#DC8B2D"/>
</svg>
