<svg width="132" height="132" viewBox="0 0 132 132" fill="none" xmlns="http://www.w3.org/2000/svg">
<path fill-rule="evenodd" clip-rule="evenodd" d="M88 38.5C88 50.6503 78.1501 60.5 66 60.5C53.8497 60.5 44 50.6503 44 38.5C44 26.3497 53.8497 16.5 66 16.5C78.1501 16.5 88 26.3497 88 38.5ZM77 38.5C77 44.5751 72.0753 49.5 66 49.5C59.9247 49.5 55 44.5751 55 38.5C55 32.4249 59.9247 27.5 66 27.5C72.0753 27.5 77 32.4249 77 38.5Z" fill="#838383"/>
<path d="M88 82.5C88 79.4623 85.5377 77 82.5 77H49.5C46.4625 77 44 79.4623 44 82.5V115.5H33V82.5C33 73.387 40.3873 66 49.5 66H82.5C91.6129 66 99 73.387 99 82.5V115.5H88V82.5Z" fill="#838383"/>
</svg>
