<svg width="160" height="160" viewBox="0 0 160 160" fill="none" xmlns="http://www.w3.org/2000/svg">
<g clip-path="url(#clip0_105_262)">
<path d="M152.143 123.995H146.511V109.526C146.511 100.778 139.342 93.7113 130.467 93.7113H85.9213V72.6808C85.9213 70.1571 83.8732 68.1382 81.3131 68.1382C78.753 68.1382 76.7049 70.1571 76.7049 72.6808V93.543H32.1588C23.2837 93.543 16.1154 100.609 16.1154 109.358V123.827H10.4831C6.04559 123.827 2.46143 127.36 2.46143 131.734V151.755C2.46143 156.13 6.04559 159.663 10.4831 159.663H30.7934C35.2309 159.663 38.8151 156.13 38.8151 151.755V131.903C38.8151 127.528 35.2309 123.995 30.7934 123.995H25.1611V109.526C25.1611 105.825 28.2333 102.796 31.9881 102.796H76.7049V124.163H71.0726C66.6351 124.163 63.0509 127.697 63.0509 132.071V152.092C63.0509 156.466 66.6351 159.999 71.0726 159.999H91.3829C95.8204 159.999 99.4046 156.466 99.4046 152.092V131.903C99.4046 127.528 95.8204 123.995 91.3829 123.995H85.7506V102.628H130.467C134.222 102.628 137.294 105.657 137.294 109.358V123.827H131.662C127.225 123.827 123.64 127.36 123.64 131.734V151.755C123.64 156.13 127.225 159.663 131.662 159.663H151.972C156.41 159.663 159.994 156.13 159.994 151.755V131.903C160.165 127.528 156.581 123.995 152.143 123.995Z" fill="white"/>
<path d="M43.0818 32.1346H119.544C122.104 32.1346 124.152 30.1157 124.152 27.592C124.152 25.0683 122.104 23.0494 119.544 23.0494H111.522L105.207 6.05678C103.842 2.35541 100.258 0 96.3323 0H66.4643C62.5387 0 58.9546 2.35541 57.5892 6.05678L51.1035 23.2177H43.0818C40.5217 23.2177 38.4736 25.2366 38.4736 27.7603C38.4736 30.1157 40.5217 32.1346 43.0818 32.1346Z" fill="white"/>
<path d="M88.9934 40.715C85.4092 41.7245 82.8491 42.061 82.8491 42.061C81.8251 42.2292 80.801 42.2292 79.777 42.061C79.777 42.061 77.2168 41.7245 73.6327 40.715C70.0485 39.7056 58.4426 37.1819 48.5435 40.715C45.4714 42.2292 44.2767 42.9022 46.3248 46.2671C48.5435 49.632 48.5435 62.755 61.5148 62.755C74.4861 62.755 77.2168 54.511 77.2168 50.8097C77.2168 50.3049 77.2168 49.9684 77.3875 49.4637C77.7289 47.613 79.4356 46.4353 81.313 46.4353C83.1905 46.4353 84.8972 47.7813 85.2385 49.4637C85.2385 49.8002 85.4092 50.3049 85.4092 50.8097C85.4092 54.511 88.14 62.755 101.111 62.755C114.083 62.755 114.083 49.632 116.301 46.2671C118.52 42.9022 117.155 42.061 114.253 40.715C104.183 37.1819 92.5776 39.7056 88.9934 40.715Z" fill="white"/>
</g>
<defs>
<clipPath id="clip0_105_262">
<rect width="160" height="160" fill="white"/>
</clipPath>
</defs>
</svg>
