<svg width="160" height="160" viewBox="0 0 160 160" fill="none" xmlns="http://www.w3.org/2000/svg">
<path d="M93.4526 0H57.3175C51.9159 0 47.4456 3.72526 46.328 8.94063C45.9555 10.0582 45.7692 11.1758 45.7692 12.2934V71.1525H30.8682C24.7215 71.1525 19.6924 76.1816 19.6924 82.3283C19.6924 88.475 24.7215 93.5041 30.8682 93.5041H45.7692V105.239H30.8682C24.7215 105.239 19.6924 110.268 19.6924 116.414C19.6924 122.561 24.7215 127.59 30.8682 127.59H45.7692V148.824C45.7692 154.971 50.7983 160 56.945 160C63.0917 160 68.1208 154.971 68.1208 148.824V127.59H108.54C114.687 127.59 119.716 122.561 119.716 116.414C119.716 110.268 114.687 105.239 108.54 105.239H68.3071V93.5041H93.4526C119.157 93.5041 140.205 72.4563 140.205 46.752C140.205 21.0477 119.157 0 93.4526 0ZM93.4526 71.1525H68.3071V22.3516H93.4526C106.864 22.3516 117.853 33.3411 117.853 46.752C117.853 60.163 106.864 71.1525 93.4526 71.1525Z" fill="white"/>
</svg>
