<svg width="160" height="160" viewBox="0 0 160 160" fill="none" xmlns="http://www.w3.org/2000/svg">
<path d="M130.663 42.2375V111.016H135.97V40.7766L108.008 12.6313H30.3721V40.744H35.679V17.976H105.352V42.236H130.663V42.2375ZM110.664 21.7541L125.704 36.8913H110.664V21.7541Z" fill="white"/>
<path d="M30.3762 104.259V139.931H106.671V134.586H35.6831V104.259H30.3762Z" fill="white"/>
<path d="M42.8829 104.258C49.7777 109.236 58.2157 112.178 67.3265 112.178C76.4373 112.178 84.8752 109.236 91.7701 104.258C92.3518 103.838 92.9213 103.405 93.4799 102.957C103.163 95.1896 109.387 83.2259 109.387 69.8184C109.387 46.4614 90.517 27.4575 67.325 27.4575C55.3038 27.4575 44.4523 32.5706 36.7797 40.7422C29.6488 48.3357 25.2632 58.5681 25.2632 69.8184C25.2663 83.9999 32.2274 96.5666 42.8829 104.258ZM80.4248 104.258C76.3555 105.834 71.9421 106.706 67.328 106.706C62.714 106.706 58.3006 105.834 54.2313 104.258C51.0802 103.038 48.1343 101.4 45.4693 99.3966C48.1389 93.6712 53.8563 89.932 60.245 89.932H74.4296C80.8075 89.932 86.5172 93.6697 89.1868 99.3966C86.5218 101.4 83.5759 103.038 80.4248 104.258ZM44.8288 40.7438C51.0431 35.856 58.8499 32.9327 67.3265 32.9327C75.803 32.9327 83.6114 35.856 89.8241 40.7438C91.1142 41.7586 92.3364 42.8558 93.4799 44.0308C99.9519 50.6871 103.952 59.7896 103.952 69.82C103.952 79.8488 99.9519 88.9513 93.4799 95.6077C93.4521 95.6356 93.4259 95.6652 93.3996 95.6931C89.6035 88.8488 82.4077 84.4614 74.4281 84.4614H60.2434C52.253 84.4614 45.0511 88.8488 41.2534 95.6931C34.7335 89.0306 30.7013 79.8923 30.7013 69.82C30.7013 58.0179 36.2396 47.4996 44.8288 40.7438Z" fill="white"/>
<path d="M67.3291 79.9422C77.9059 79.9422 86.5105 71.2764 86.5105 60.6244C86.5105 49.9724 77.9059 41.3081 67.3291 41.3081C56.7523 41.3081 48.1477 49.9724 48.1477 60.6244C48.1477 71.2764 56.7523 79.9422 67.3291 79.9422ZM67.3291 46.7818C74.9091 46.7818 81.074 52.9921 81.074 60.6244C81.074 68.2583 74.9076 74.4686 67.3291 74.4686C59.7507 74.4686 53.5842 68.2583 53.5842 60.6244C53.5842 52.9936 59.7491 46.7818 67.3291 46.7818Z" fill="white"/>
<path d="M119.96 144.088C122.06 146.203 124.854 147.369 127.825 147.369C130.796 147.369 133.589 146.203 135.691 144.088C137.792 141.971 138.948 139.158 138.948 136.165C138.948 133.172 137.791 130.36 135.691 128.242L118.585 111.016L115.39 107.799L112.196 111.016L109.201 114.033L106.671 111.485L97.5576 102.307L94.2043 105.682L105.849 117.408L99.6609 123.64L106.673 130.702L119.96 144.088ZM115.39 114.127L132.549 131.408C135.153 134.031 135.153 138.299 132.549 140.921V140.922C131.288 142.192 129.61 142.893 127.825 142.893C126.04 142.893 124.364 142.193 123.101 140.921L105.943 123.642L115.39 114.127Z" fill="white"/>
</svg>
