<svg width="190" height="376" viewBox="0 0 190 376" fill="none" xmlns="http://www.w3.org/2000/svg">
<path opacity="0.4" d="M149.718 358.605C171.965 349.265 185.586 331.187 180.142 318.227C174.698 305.267 152.249 302.332 130.002 311.672C107.755 321.012 94.1339 339.089 99.5783 352.05C105.023 365.01 127.471 367.945 149.718 358.605Z" fill="#D6D8E5"/>
<path opacity="0.4" d="M90.7188 347.516C95.7129 334.376 81.4775 316.775 58.9233 308.203C36.3691 299.631 14.0367 303.334 9.04263 316.474C4.04852 329.614 18.2838 347.216 40.8381 355.788C63.3923 364.36 85.7246 360.657 90.7188 347.516Z" fill="#D6D8E5"/>
<path opacity="0.4" d="M156.646 290.277C161.642 277.137 147.407 259.538 124.852 250.968C102.296 242.398 79.9624 246.103 74.9669 259.243C69.9715 272.382 84.2064 289.981 106.762 298.551C129.317 307.121 151.651 303.416 156.646 290.277Z" fill="#D6D8E5"/>
<path d="M143.625 268.619C140.115 271.489 134.934 268.866 134.673 269.127C130.545 272.956 126.215 276.562 121.702 279.929C119.51 281.651 116.104 283.947 116.717 287.261C117.826 293.183 127.3 291.357 130.876 289.544C134.452 287.73 137.401 284.743 140.754 282.643C143.169 281.142 145.544 280.36 145.974 277.32C146.144 275.481 144.252 268.553 143.625 268.619Z" fill="#2B303F"/>
<path d="M145.87 276.082C145.413 279.004 143.064 279.813 140.65 281.3C137.205 283.427 134.125 286.518 130.602 288.319C127.301 289.989 119.066 291.658 116.743 287.432C118.048 293.133 127.314 291.345 130.85 289.545C134.386 287.745 137.375 284.744 140.728 282.644C143.143 281.144 145.518 280.361 145.948 277.321C145.971 276.907 145.945 276.491 145.87 276.082V276.082Z" fill="#3A4151"/>
<path d="M113.142 257.295C109.631 260.152 103.472 257.034 103.211 257.295C99.557 260.994 95.6922 264.478 91.636 267.731C89.4437 269.453 86.0247 271.762 86.6511 275.063C87.7472 280.986 97.2342 279.172 100.81 277.359C104.385 275.546 107.335 272.545 110.688 270.445C113.102 268.945 115.478 268.175 115.843 265.122C116.078 263.296 113.755 257.217 113.142 257.295Z" fill="#2B303F"/>
<path d="M115.739 264.326C115.282 267.248 112.933 268.044 110.519 269.544C107.074 271.684 103.994 274.763 100.471 276.576C97.1692 278.246 88.9349 279.903 86.6121 275.676C87.917 281.39 97.1822 279.589 100.719 277.802C104.255 276.015 107.243 272.988 110.597 270.888C113.011 269.388 115.386 268.618 115.817 265.565C115.84 265.151 115.814 264.735 115.739 264.326V264.326Z" fill="#3A4151"/>
<path d="M89.6657 63.2827C89.6657 63.2827 89.7702 69.0097 89.0785 83.1771C88.8332 93.7727 89.3084 104.373 90.5009 114.904C91.5472 123.236 93.8161 131.368 97.2345 139.038C99.753 126.919 96.83 124.792 96.83 124.792L98.2654 99.0405C98.2654 99.0405 96.83 74.1757 97.4041 65.3439C97.7565 59.7343 89.6657 63.2827 89.6657 63.2827Z" fill="#FFCEA9"/>
<path d="M143.743 138.919C143.573 144.228 141.916 167.293 141.133 179.517C140.35 191.74 140.22 206.69 140.22 206.69C140.22 206.69 142.334 215.574 143.691 226.037C145.048 236.499 143.691 269.492 143.691 269.492C142.35 270.353 140.789 270.812 139.195 270.812C137.601 270.812 136.04 270.353 134.7 269.492C134.7 269.492 129.075 243.074 126.465 231.177C123.855 219.279 123.412 212.43 122.055 205.086C120.423 196.163 116.835 154.534 116.835 154.534L115.425 154.613L111.667 201.577C112.828 205.041 113.624 208.618 114.042 212.248C115.06 219.906 112.959 258.429 112.959 258.429C111.458 259.262 109.757 259.665 108.041 259.594C106.326 259.523 104.664 258.98 103.237 258.025C103.237 258.025 93.8416 207.017 93.8416 199.241C93.8416 194.115 94.7159 126.408 94.7159 126.408L143.743 138.919Z" fill="#399478"/>
<path d="M124.847 67.1953C122.903 68.0824 119.171 67.6128 115.491 66.2039C112.792 65.2468 110.308 63.7661 108.183 61.8467C106.592 60.5137 105.581 58.6144 105.364 56.5502C105.156 50.8362 106.878 45.8528 108.718 43.909C109.054 43.4674 109.534 43.158 110.075 43.035L111.015 42.8263L111.589 42.6567C111.772 42.6567 111.967 42.5393 112.176 42.5001C117.644 40.8694 130.981 36.2383 130.981 36.2383C130.981 36.2383 130.393 47.8358 130.641 48.8533C130.69 49.01 130.775 49.153 130.889 49.2708C131.683 50.0952 132.557 50.8382 133.499 51.4885C133.773 51.7103 134.073 51.919 134.36 52.1408C135.665 53.0801 136.866 53.9802 137.479 54.489C138.941 55.7283 129.454 65.0819 124.847 67.1953Z" fill="#FFCEA9"/>
<path d="M146.235 65.982C146.235 66.5691 146.235 67.2213 146.144 67.9258C145.713 74.4486 144.343 80.4625 143.09 87.4941C142.855 88.7986 142.634 90.1032 142.412 91.4077C142.19 92.7123 141.994 94.0951 141.812 95.4779C141.553 97.6726 141.457 99.8833 141.524 102.092C141.524 107.31 142.125 113.389 142.764 119.221C142.973 121.047 143.182 122.834 143.391 124.556C143.469 125.339 143.56 126.096 143.665 126.839C144.174 131.118 144.617 134.862 144.761 137.393C144.488 137.988 144.146 138.548 143.743 139.063C142.035 141.151 139.774 142.715 137.218 143.577C136.579 143.825 135.913 144.06 135.222 144.268C134.151 144.607 133.029 144.907 131.868 145.168C129.224 145.797 126.506 146.061 123.79 145.951C122.644 145.913 121.502 145.8 120.371 145.612C119.732 145.508 119.066 145.39 118.414 145.247C117.761 145.103 116.704 144.829 115.804 144.568C112.453 143.516 109.224 142.108 106.173 140.368C103.093 138.694 100.336 136.485 98.0304 133.845C96.7208 132.35 95.6231 130.682 94.768 128.888C94.4043 128.126 94.1159 127.331 93.9067 126.513C93.9067 126.513 94.1155 88.9813 93.9067 76.6924C93.9067 73.718 93.9068 71.0045 94.0112 68.5259C93.9991 68.3434 93.9991 68.1604 94.0112 67.978C94.1156 65.8646 94.2721 63.9078 94.494 62.0814C94.9377 58.044 95.7903 54.0621 97.0387 50.1969C98.4988 46.1148 101.424 42.7208 105.247 40.6737V40.6737C105.617 40.6057 105.994 40.5838 106.369 40.6084C108.172 40.8244 109.894 41.4832 111.38 42.5261C111.467 42.5706 111.55 42.623 111.628 42.6827C112.528 43.2306 113.129 43.7133 113.246 43.7916C112.638 44.3063 112.111 44.9087 111.68 45.5788C108.261 50.797 108.888 61.3378 112.163 64.56C123.895 63.399 132.259 50.8622 132.259 50.8622C132.259 50.8622 132.625 51.0449 133.434 51.5015L134.347 52.0624C135.652 52.8712 137.714 54.1758 140.559 56.1979C140.768 56.3544 140.976 56.4979 141.185 56.6284C144.187 58.7026 145.805 59.3418 146.131 63.2946C146.131 63.3598 146.131 63.412 146.131 63.4773C146.248 64.2078 146.261 65.0166 146.235 65.982Z" fill="#DC8B2D"/>
<path d="M137.009 143.955C138.745 142.012 141.759 131.184 143.534 124.387C145.198 116.673 145.533 108.732 144.526 100.905C142.973 91.5645 138.706 78.6495 137.479 73.3008C136.252 67.9521 137.857 65.6822 140.245 63.5167C143.038 60.9858 147.188 61.7425 149.876 69.1784C153.386 79.4737 155.736 90.1282 156.884 100.944C157.514 108.992 156.813 117.089 154.809 124.909C153.008 132.162 150.385 137.472 146.979 144.151C146.066 145.964 143.978 151.039 142.634 154.718C141.289 158.397 135.404 145.743 137.009 143.955Z" fill="#FFCEA9"/>
<path d="M134.386 52.0765C134.386 52.0765 134.386 52.0765 134.386 52.1678C132.285 54.9204 125.03 63.7392 115.543 66.2048C114.525 66.4825 113.486 66.6745 112.437 66.7788L111.406 66.8832L110.662 66.1526C109.515 64.936 108.682 63.4584 108.235 61.8476C107.441 59.1886 107.11 56.413 107.256 53.642C107.316 50.4947 108.154 47.4111 109.696 44.6667C110.086 44.0076 110.555 43.3987 111.093 42.8533C111.195 42.7383 111.304 42.6294 111.419 42.5272C111.572 42.3701 111.738 42.226 111.915 42.0967L112.254 42.5272L113.285 43.8317L114.681 45.5668C114.501 45.7122 114.339 45.8786 114.199 46.0625C112.789 47.5888 111.85 50.511 111.693 53.8898C111.453 56.7451 111.961 59.6137 113.168 62.2129C122.054 60.6083 129.349 51.4634 130.954 49.3239C131.748 50.1484 132.622 50.8913 133.564 51.5416L134.386 52.0765Z" fill="#D5D7E2"/>
<path d="M104.855 19.0056C106.16 10.0172 112.685 3.20742 121.924 3.7162C125.677 3.88016 129.283 5.22531 132.226 7.55962C135.169 9.89393 137.299 13.0981 138.311 16.7145C139.324 20.331 139.168 24.175 137.866 27.6977C136.564 31.2203 134.181 34.2415 131.059 36.33C130.734 37.6859 130.252 38.9993 129.623 40.2437C126.348 44.0791 116.43 46.4534 113.572 46.0489C109.919 45.5271 107.935 44.0008 106.2 39.9958C103.068 32.886 104.033 23.4671 104.855 19.0056Z" fill="#FFCEA9"/>
<path d="M130.954 36.2645L130.106 28.4372C130.106 28.4372 136.513 11.8433 121.376 15.0264C111.367 17.1397 108.862 18.0529 105.821 11.3475C102.78 4.64212 113.507 -1.39796 126.244 0.284917C130.633 0.742165 134.69 2.83221 137.61 6.14041C140.53 9.44861 142.1 13.7332 142.007 18.1442C141.72 23.0624 140.415 33.0422 130.954 36.2645Z" fill="#3A4151"/>
<path d="M156.936 81.2851C156.936 81.2851 148.662 89.5038 138.888 87.1426C137.492 86.1903 134.138 66.9742 134.138 66.9742C134.138 66.9742 134.138 56.3291 142.294 56.6161C150.45 56.9031 156.936 81.2851 156.936 81.2851Z" fill="#DC8B2D"/>
<path d="M105.338 40.752C102.64 43.1934 100.306 46.0095 98.4087 49.1141C95.7988 53.5888 94.7157 61.9379 94.3242 66.7647C94.1415 69.0216 94.1024 70.4958 94.1024 70.4958C94.1024 70.4958 88.5825 71.1611 86.7947 68.6433C86.9585 67.3169 87.2379 66.0074 87.6298 64.7296C89.8482 56.9415 96.2425 41.7304 105.338 40.752Z" fill="#DC8B2D"/>
<path d="M13.0649 130.231C12.5299 134.863 6.99688 154.861 8.18439 161.71C9.37189 168.559 28.2676 179.974 28.2676 179.974L30.8775 168.233L20.4379 157.979L23.2696 138.554L13.0649 130.231Z" fill="#FFCEA9"/>
<path d="M27.6803 110.519C25.8413 109.671 23.7548 109.526 21.8163 110.113C19.8778 110.699 18.2219 111.976 17.1624 113.702C14.3828 118.307 11.4858 134.092 11.2249 136.793C11.2249 136.793 15.1397 142.18 20.9859 141.28L27.6803 110.519Z" fill="#EDEDED"/>
<path d="M49.2642 333.467C53.3754 334.602 57.7682 334.072 61.4916 331.993C64.4408 332.084 80.4265 325.235 82.6058 330.975C84.511 336.011 77.5817 340.681 73.8757 341.568C65.798 343.525 59.8213 347.556 56.585 348.235C54.1709 348.743 51.039 349.083 49.1077 347.178C46.7979 344.908 47.0067 336.467 49.2642 333.467Z" fill="#2B303F"/>
<path d="M56.572 346.84C59.8083 346.162 65.785 342.131 73.8626 340.174C76.9684 339.43 82.3057 336.038 82.8538 331.994C83.5715 336.625 77.3207 340.735 73.8626 341.57C65.785 343.526 59.8083 347.557 56.572 348.236C54.1578 348.745 51.0259 349.084 49.0946 347.179C48.5963 346.627 48.2343 345.966 48.0376 345.248C49.2381 346.159 50.6347 346.778 52.1164 347.054C53.598 347.33 55.1237 347.257 56.572 346.84V346.84Z" fill="#3A4151"/>
<path d="M23.3218 321.832C27.4378 322.959 31.8317 322.43 35.5622 320.358C38.4984 320.436 54.4971 313.6 56.6633 319.34C58.5686 324.376 51.6523 329.033 47.9463 329.933C39.8686 331.89 33.8919 335.908 30.6426 336.599C28.2284 337.108 25.0965 337.434 23.1783 335.543C20.8685 333.26 21.0642 324.819 23.3218 321.832Z" fill="#2B303F"/>
<path d="M30.6429 335.256C33.8922 334.565 39.8689 330.547 47.9466 328.59C51.0393 327.833 56.3896 324.441 56.9246 320.41C57.6424 325.041 51.3917 329.151 47.9466 329.986C39.8689 331.942 33.8922 335.96 30.6429 336.652C28.2288 337.161 25.0969 337.487 23.1786 335.595C22.6803 335.043 22.3183 334.382 22.1216 333.664C23.3196 334.575 24.714 335.193 26.1935 335.47C27.6731 335.746 29.1967 335.673 30.6429 335.256Z" fill="#3A4151"/>
<path d="M30.3426 110.872C34.1531 111.055 36.9979 112.033 37.4807 110.872C37.8723 108.89 38.1468 106.886 38.3028 104.871C37.8592 103.762 37.4807 102.575 37.4807 102.575C32.6785 99.627 31.1647 94.4349 30.5384 88.3948C29.4553 78.0758 35.0405 69.0483 45.3626 67.9655C55.0584 66.961 62.1965 73.7707 64.1017 83.1374C65.1326 87.7555 67.1814 96.496 64.4149 104.102C62.8751 108.341 60.8785 111.72 58.895 112.372C56.9725 112.329 55.0547 112.164 53.1532 111.877V111.877C53.1532 111.877 52.6443 114.747 52.2919 116.586C51.9396 118.426 52.0701 119.391 55.737 121.648C59.4039 123.905 50.191 128.549 44.1751 128.092C38.1593 127.636 31.3997 124.009 29.5466 120.122C27.537 115.777 27.7197 110.677 30.3426 110.872Z" fill="#FFCEA9"/>
<path d="M35.8625 111.368C34.8055 113.977 37.4937 117.238 44.6709 119.482C51.8482 121.726 52.5007 118.843 52.5007 118.843C52.5007 118.843 63.0186 123.631 66.4375 126.031C70.7569 129.032 72.6621 137.772 73.2363 152.448C73.9149 169.407 73.9671 194.716 73.406 199.073C73.406 199.073 65.3544 207.096 55.0583 206.248C44.7623 205.4 27.4195 196.281 23.2175 189.289C23.335 174.365 25.0706 171.938 22.6564 163.341C17.1365 143.669 14.2134 135.607 16.9016 122.535C19.12 111.759 22.2258 110.416 26.493 110.52C29.629 110.636 32.7567 110.919 35.8625 111.368V111.368Z" fill="#F4F4F4"/>
<path d="M89.4309 166.524C80.9878 168.65 78.9912 163.328 77.882 158.905C75.1938 148.221 73.7453 138.58 71.7357 132.514C69.3868 125.365 66.9074 124.23 63.4232 122.835C59.3517 121.191 55.8414 124.648 57.1986 133.741C58.8037 144.516 60.9177 152.004 64.9369 164.815C65.9939 168.142 68.3559 174.051 71.8793 176.908C76.2378 180.431 82.8148 180.287 92.7585 177.808C96.9866 176.752 101.645 174.221 109.658 170.49C111.811 169.485 113.481 168.807 117.618 166.889C121.765 165.026 125.4 162.188 128.214 158.618C130.38 155.487 130.667 154.013 130.224 153.296C129.78 152.578 128.684 152.604 127.535 153.922C125.864 156.147 123.804 158.052 121.454 159.545C121.454 159.545 124.064 156.792 125.565 154.992C126.861 153.405 127.937 151.649 128.762 149.774C129.532 147.947 127.953 145.469 126.766 146.76C125.578 148.052 124.991 149.369 122.851 151.978C121.703 153.377 120.388 154.63 118.936 155.709C120.297 153.876 121.506 151.934 122.551 149.904C123.47 148.323 123.922 146.513 123.855 144.686C123.855 143.733 122.446 142.598 121.246 144.412C119.993 146.095 119.21 148.586 116.6 151.313C114.669 153.322 113.024 154.47 112.972 153.922C112.92 153.374 114.147 152.265 114.838 149.93C115.53 147.595 114.838 145.129 113.533 144.855C112.228 144.581 112.489 144.66 111.458 146.851C110.428 149.043 108.849 150.648 107.609 153.831C106.959 156.076 105.767 158.128 104.138 159.806C102.076 162.049 97.4694 164.502 89.4309 166.524Z" fill="#FFCEA9"/>
<path d="M60.3043 121.374C65.9417 120.539 69.9348 123.083 72.4273 131.628C74.9198 140.172 76.6684 147.204 76.6684 147.204C74.4294 150.424 71.0455 152.668 67.2075 153.479C60.4478 155.109 58.0728 151.887 58.0728 151.887C58.0728 151.887 56.2068 142.925 55.0323 136.82C53.8578 130.714 53.3097 122.404 60.3043 121.374Z" fill="#EDEDED"/>
<path d="M63.8275 81.7668C63.8275 81.7668 72.7534 68.2125 53.3879 65.4599C39.4901 63.4639 30.4729 72.4132 29.4942 82.1712C28.5024 91.4466 34.2181 101.087 38.3548 104.91C40.3645 105.627 44.6969 106.045 50.3995 103.462C50.6235 100.933 50.7107 98.394 50.6605 95.856C50.6605 95.856 43.8748 81.532 63.8275 81.7668Z" fill="#3A4151"/>
<path d="M179.238 134.354C179.238 134.354 177.737 156.87 174.788 160.105C171.839 163.341 161.843 165.558 161.843 165.558L154.156 178.213C154.156 178.213 161.177 137.967 162.704 137.002C164.231 136.036 179.238 134.354 179.238 134.354Z" fill="#FFCEA9"/>
<path d="M164.426 109.345C166.298 108.478 168.424 108.328 170.399 108.925C172.374 109.521 174.061 110.822 175.14 112.581C177.972 117.264 180.908 133.349 181.182 136.062C181.182 136.062 177.202 141.542 171.251 140.628L164.426 109.345Z" fill="#434B5B"/>
<path d="M141.629 334.016C137.439 335.176 132.961 334.637 129.166 332.516C126.165 332.607 109.879 325.641 107.661 331.485C105.73 336.612 112.776 341.361 116.548 342.274C124.782 344.27 130.902 348.366 134.164 349.058C136.631 349.579 139.815 349.919 141.772 347.988C144.134 345.692 143.925 337.082 141.629 334.016Z" fill="#38226D"/>
<path d="M134.165 347.635C130.863 346.944 124.782 342.848 116.548 340.852C113.39 340.082 107.948 336.638 107.413 332.516C106.682 337.238 113.05 341.426 116.548 342.274C124.782 344.27 130.902 348.366 134.165 349.057C136.631 349.579 139.815 349.918 141.772 347.988C142.287 347.428 142.659 346.752 142.856 346.018C141.635 346.948 140.212 347.579 138.703 347.86C137.193 348.141 135.639 348.064 134.165 347.635V347.635Z" fill="#DC8B2D"/>
<path d="M166.984 326.123C162.799 327.282 158.325 326.743 154.535 324.622C151.533 324.714 135.248 317.747 133.029 323.592C131.085 328.719 138.145 333.467 141.916 334.38C150.137 336.376 156.27 340.473 159.533 341.164C161.986 341.686 165.183 342.025 167.141 340.094C169.49 337.759 169.294 329.175 166.984 326.123Z" fill="#38226D"/>
<path d="M159.533 339.742C156.218 339.038 150.137 334.941 141.916 332.945C138.758 332.189 133.316 328.732 132.781 324.609C132.05 329.332 138.419 333.519 141.916 334.367C150.137 336.363 156.27 340.46 159.533 341.151C161.986 341.673 165.183 342.012 167.141 340.081C167.651 339.518 168.021 338.844 168.224 338.112C167.001 339.04 165.58 339.67 164.071 339.953C162.562 340.236 161.009 340.164 159.533 339.742Z" fill="#DC8B2D"/>
<path d="M168.798 280.321C168.1 274.273 166.842 268.303 165.039 262.487C165.039 262.487 166.162 247.107 166.723 232.483C167.362 215.928 173.104 201.356 168.576 188.128L118.126 199.347C118.126 199.347 120.567 265.501 121.245 273.498C121.622 279.719 122.389 285.91 123.542 292.036C125.865 304.846 128.409 333.533 128.409 333.533C133.812 336.664 141.733 334.081 141.733 334.081C141.733 334.081 141.733 298.18 141.42 288.944C140.989 277.672 140.65 278.507 140.65 278.507L142.346 250.42L143.443 236.449C143.443 236.449 144.865 246.702 145.778 255.86C146.587 263.844 148.519 271.071 150.672 285.93C152.538 298.832 154.456 325.067 154.456 325.067C159.872 328.198 167.14 326.045 167.14 326.045C167.14 326.045 170.246 291.514 168.798 280.321Z" fill="#C1C4D3"/>
<path d="M161.712 109.567C157.797 109.762 154.926 110.754 154.443 109.567C154.024 107.56 153.727 105.53 153.556 103.487C154 102.365 154.391 101.152 154.391 101.152C159.272 98.1387 160.825 92.8553 161.464 86.7108C162.56 76.1961 156.884 66.999 146.366 65.9032C136.474 64.8726 129.206 71.8128 127.261 81.3491C126.217 86.0585 124.142 94.9556 126.948 102.705C128.527 107.023 130.55 110.532 132.572 111.132C134.534 111.084 136.491 110.914 138.432 110.623C138.432 110.623 138.954 113.545 139.319 115.424C139.684 117.303 139.541 118.281 135.809 120.642C132.077 123.003 141.446 127.674 147.553 127.165C153.66 126.656 160.603 123.003 162.456 119.051C164.57 114.693 164.387 109.488 161.712 109.567Z" fill="#FFCEA9"/>
<path d="M156.088 110.193C157.158 112.881 154.43 116.168 147.11 118.464C139.789 120.76 139.149 117.812 139.149 117.812C139.149 117.812 128.436 122.691 124.938 125.131C120.554 128.196 118.609 137.067 118.022 152.044C117.331 169.381 117.278 195.094 117.852 199.529C117.852 199.529 126.048 207.696 136.539 206.835C147.031 205.974 164.687 196.698 168.967 189.523C168.85 174.325 167.075 171.86 169.542 163.093C175.166 143.055 178.141 134.85 175.401 121.53C173.143 110.546 169.972 109.189 165.64 109.293C162.442 109.422 159.253 109.723 156.088 110.193V110.193Z" fill="#434B5B"/>
<path d="M127.04 212.874L132.377 152.513L121.128 146.551L116.73 150.23L118.035 204.447V205.934L118.114 207.839C118.114 207.839 117.853 212.405 126.465 217.858C126.465 217.858 126.609 216.436 126.726 215.092L126.922 212.848L127.04 212.874Z" fill="#FFCEA9"/>
<path d="M128.409 121.401C122.602 121.283 118.896 124.362 117.487 133.324C116.078 142.287 115.203 149.605 115.203 149.605C117.88 152.576 121.592 154.41 125.578 154.732C132.611 155.515 134.647 151.94 134.647 151.94C134.647 151.94 135.391 142.639 135.782 136.286C136.174 129.932 135.6 121.544 128.409 121.401Z" fill="#434B5B"/>
<path d="M127.601 80.0583C127.601 80.0583 118.466 66.2431 138.197 63.4383C152.395 61.4032 161.516 70.522 162.573 80.3975C163.578 89.8425 157.758 99.6657 153.556 103.553C151.507 104.284 147.031 104.714 141.29 102.079C141.056 99.5031 140.965 96.9162 141.016 94.3301C141.016 94.3301 147.919 79.8104 127.601 80.0583Z" fill="#3A2C6D"/>
<path d="M23.0084 278.39C23.7007 272.458 24.9369 266.602 26.7014 260.896C26.7014 260.896 25.6053 245.79 25.0442 231.466C24.4178 215.211 18.7804 200.9 23.2303 187.933L73.4057 199.087C73.4057 199.087 70.3651 263.897 69.6996 271.737C69.3293 277.845 68.5753 283.923 67.442 289.936C65.1584 302.525 61.4393 332.451 61.4393 332.451C56.1281 335.53 49.1597 333.756 49.1597 333.756C49.1597 333.756 49.5512 295.924 49.8905 286.792C50.308 275.716 50.6473 276.564 50.6473 276.564L48.99 249.155L47.8939 235.431C47.8939 235.431 46.5106 245.503 45.6102 254.491C44.8272 262.318 42.922 269.428 40.808 284.013C38.9811 296.68 36.0057 322.119 36.0057 322.119C30.6946 325.198 23.4913 322.641 23.4913 322.641C23.4913 322.641 21.573 289.375 23.0084 278.39Z" fill="#916F5D"/>
<path d="M94.3242 66.7646C94.1415 69.0215 94.1024 70.4956 94.1024 70.4956C94.1024 70.4956 88.5825 71.1609 86.7947 68.6432C86.9585 67.3168 87.2379 66.0072 87.6298 64.7295C88.5571 65.4919 89.6257 66.064 90.7744 66.4132C91.9231 66.7624 93.1294 66.8818 94.3242 66.7646V66.7646Z" fill="#D5D7E2"/>
<path opacity="0.4" d="M149.718 358.605C171.965 349.265 185.586 331.187 180.142 318.227C174.698 305.267 152.249 302.332 130.002 311.672C107.755 321.012 94.1339 339.089 99.5783 352.05C105.023 365.01 127.471 367.945 149.718 358.605Z" fill="#D6D8E5"/>
<path opacity="0.4" d="M90.7188 347.516C95.7129 334.376 81.4775 316.775 58.9233 308.203C36.3691 299.631 14.0367 303.334 9.04263 316.474C4.04852 329.614 18.2838 347.216 40.8381 355.788C63.3923 364.36 85.7246 360.657 90.7188 347.516Z" fill="#D6D8E5"/>
<path opacity="0.4" d="M156.646 290.277C161.642 277.137 147.407 259.538 124.852 250.968C102.296 242.398 79.9624 246.103 74.9669 259.243C69.9715 272.382 84.2064 289.981 106.762 298.551C129.317 307.121 151.651 303.416 156.646 290.277Z" fill="#D6D8E5"/>
<path d="M143.625 268.619C140.115 271.489 134.934 268.866 134.673 269.127C130.545 272.956 126.215 276.562 121.702 279.929C119.51 281.651 116.104 283.947 116.717 287.261C117.826 293.183 127.3 291.357 130.876 289.544C134.452 287.73 137.401 284.743 140.754 282.643C143.169 281.142 145.544 280.36 145.974 277.32C146.144 275.481 144.252 268.553 143.625 268.619Z" fill="#2B303F"/>
<path d="M145.87 276.082C145.413 279.004 143.064 279.813 140.65 281.3C137.205 283.427 134.125 286.518 130.602 288.319C127.301 289.989 119.066 291.658 116.743 287.432C118.048 293.133 127.314 291.345 130.85 289.545C134.386 287.745 137.375 284.744 140.728 282.644C143.143 281.144 145.518 280.361 145.948 277.321C145.971 276.907 145.945 276.491 145.87 276.082V276.082Z" fill="#3A4151"/>
<path d="M113.142 257.295C109.631 260.152 103.472 257.034 103.211 257.295C99.557 260.994 95.6922 264.478 91.636 267.731C89.4437 269.453 86.0247 271.762 86.6511 275.063C87.7472 280.986 97.2342 279.172 100.81 277.359C104.385 275.546 107.335 272.545 110.688 270.445C113.102 268.945 115.478 268.175 115.843 265.122C116.078 263.296 113.755 257.217 113.142 257.295Z" fill="#2B303F"/>
<path d="M115.739 264.326C115.282 267.248 112.933 268.044 110.519 269.544C107.074 271.684 103.994 274.763 100.471 276.576C97.1692 278.246 88.9349 279.903 86.6121 275.676C87.917 281.39 97.1822 279.589 100.719 277.802C104.255 276.015 107.243 272.988 110.597 270.888C113.011 269.388 115.386 268.618 115.817 265.565C115.84 265.151 115.814 264.735 115.739 264.326V264.326Z" fill="#3A4151"/>
<path d="M89.6657 63.2827C89.6657 63.2827 89.7702 69.0097 89.0785 83.1771C88.8332 93.7727 89.3084 104.373 90.5009 114.904C91.5472 123.236 93.8161 131.368 97.2345 139.038C99.753 126.919 96.83 124.792 96.83 124.792L98.2654 99.0405C98.2654 99.0405 96.83 74.1757 97.4041 65.3439C97.7565 59.7343 89.6657 63.2827 89.6657 63.2827Z" fill="#FFCEA9"/>
<path d="M143.743 138.919C143.573 144.228 141.916 167.293 141.133 179.517C140.35 191.74 140.22 206.69 140.22 206.69C140.22 206.69 142.334 215.574 143.691 226.037C145.048 236.499 143.691 269.492 143.691 269.492C142.35 270.353 140.789 270.812 139.195 270.812C137.601 270.812 136.04 270.353 134.7 269.492C134.7 269.492 129.075 243.074 126.465 231.177C123.855 219.279 123.412 212.43 122.055 205.086C120.423 196.163 116.835 154.534 116.835 154.534L115.425 154.613L111.667 201.577C112.828 205.041 113.624 208.618 114.042 212.248C115.06 219.906 112.959 258.429 112.959 258.429C111.458 259.262 109.757 259.665 108.041 259.594C106.326 259.523 104.664 258.98 103.237 258.025C103.237 258.025 93.8416 207.017 93.8416 199.241C93.8416 194.115 94.7159 126.408 94.7159 126.408L143.743 138.919Z" fill="#399478"/>
<path d="M124.847 67.1953C122.903 68.0824 119.171 67.6128 115.491 66.2039C112.792 65.2468 110.308 63.7661 108.183 61.8467C106.592 60.5137 105.581 58.6144 105.364 56.5502C105.156 50.8362 106.878 45.8528 108.718 43.909C109.054 43.4674 109.534 43.158 110.075 43.035L111.015 42.8263L111.589 42.6567C111.772 42.6567 111.967 42.5393 112.176 42.5001C117.644 40.8694 130.981 36.2383 130.981 36.2383C130.981 36.2383 130.393 47.8358 130.641 48.8533C130.69 49.01 130.775 49.153 130.889 49.2708C131.683 50.0952 132.557 50.8382 133.499 51.4885C133.773 51.7103 134.073 51.919 134.36 52.1408C135.665 53.0801 136.866 53.9802 137.479 54.489C138.941 55.7283 129.454 65.0819 124.847 67.1953Z" fill="#FFCEA9"/>
<path d="M146.235 65.982C146.235 66.5691 146.235 67.2213 146.144 67.9258C145.713 74.4486 144.343 80.4625 143.09 87.4941C142.855 88.7986 142.634 90.1032 142.412 91.4077C142.19 92.7123 141.994 94.0951 141.812 95.4779C141.553 97.6726 141.457 99.8833 141.524 102.092C141.524 107.31 142.125 113.389 142.764 119.221C142.973 121.047 143.182 122.834 143.391 124.556C143.469 125.339 143.56 126.096 143.665 126.839C144.174 131.118 144.617 134.862 144.761 137.393C144.488 137.988 144.146 138.548 143.743 139.063C142.035 141.151 139.774 142.715 137.218 143.577C136.579 143.825 135.913 144.06 135.222 144.268C134.151 144.607 133.029 144.907 131.868 145.168C129.224 145.797 126.506 146.061 123.79 145.951C122.644 145.913 121.502 145.8 120.371 145.612C119.732 145.508 119.066 145.39 118.414 145.247C117.761 145.103 116.704 144.829 115.804 144.568C112.453 143.516 109.224 142.108 106.173 140.368C103.093 138.694 100.336 136.485 98.0304 133.845C96.7208 132.35 95.6231 130.682 94.768 128.888C94.4043 128.126 94.1159 127.331 93.9067 126.513C93.9067 126.513 94.1155 88.9813 93.9067 76.6924C93.9067 73.718 93.9068 71.0045 94.0112 68.5259C93.9991 68.3434 93.9991 68.1604 94.0112 67.978C94.1156 65.8646 94.2721 63.9078 94.494 62.0814C94.9377 58.044 95.7903 54.0621 97.0387 50.1969C98.4988 46.1148 101.424 42.7208 105.247 40.6737V40.6737C105.617 40.6057 105.994 40.5838 106.369 40.6084C108.172 40.8244 109.894 41.4832 111.38 42.5261C111.467 42.5706 111.55 42.623 111.628 42.6827C112.528 43.2306 113.129 43.7133 113.246 43.7916C112.638 44.3063 112.111 44.9087 111.68 45.5788C108.261 50.797 108.888 61.3378 112.163 64.56C123.895 63.399 132.259 50.8622 132.259 50.8622C132.259 50.8622 132.625 51.0449 133.434 51.5015L134.347 52.0624C135.652 52.8712 137.714 54.1758 140.559 56.1979C140.768 56.3544 140.976 56.4979 141.185 56.6284C144.187 58.7026 145.805 59.3418 146.131 63.2946C146.131 63.3598 146.131 63.412 146.131 63.4773C146.248 64.2078 146.261 65.0166 146.235 65.982Z" fill="#DC8B2D"/>
<path d="M137.009 143.955C138.745 142.012 141.759 131.184 143.534 124.387C145.198 116.673 145.533 108.732 144.526 100.905C142.973 91.5645 138.706 78.6495 137.479 73.3008C136.252 67.9521 137.857 65.6822 140.245 63.5167C143.038 60.9858 147.188 61.7425 149.876 69.1784C153.386 79.4737 155.736 90.1282 156.884 100.944C157.514 108.992 156.813 117.089 154.809 124.909C153.008 132.162 150.385 137.472 146.979 144.151C146.066 145.964 143.978 151.039 142.634 154.718C141.289 158.397 135.404 145.743 137.009 143.955Z" fill="#FFCEA9"/>
<path d="M134.386 52.0765C134.386 52.0765 134.386 52.0765 134.386 52.1678C132.285 54.9204 125.03 63.7392 115.543 66.2048C114.525 66.4825 113.486 66.6745 112.437 66.7788L111.406 66.8832L110.662 66.1526C109.515 64.936 108.682 63.4584 108.235 61.8476C107.441 59.1886 107.11 56.413 107.256 53.642C107.316 50.4947 108.154 47.4111 109.696 44.6667C110.086 44.0076 110.555 43.3987 111.093 42.8533C111.195 42.7383 111.304 42.6294 111.419 42.5272C111.572 42.3701 111.738 42.226 111.915 42.0967L112.254 42.5272L113.285 43.8317L114.681 45.5668C114.501 45.7122 114.339 45.8786 114.199 46.0625C112.789 47.5888 111.85 50.511 111.693 53.8898C111.453 56.7451 111.961 59.6137 113.168 62.2129C122.054 60.6083 129.349 51.4634 130.954 49.3239C131.748 50.1484 132.622 50.8913 133.564 51.5416L134.386 52.0765Z" fill="#D5D7E2"/>
<path d="M104.855 19.0056C106.16 10.0172 112.685 3.20742 121.924 3.7162C125.677 3.88016 129.283 5.22531 132.226 7.55962C135.169 9.89393 137.299 13.0981 138.311 16.7145C139.324 20.331 139.168 24.175 137.866 27.6977C136.564 31.2203 134.181 34.2415 131.059 36.33C130.734 37.6859 130.252 38.9993 129.623 40.2437C126.348 44.0791 116.43 46.4534 113.572 46.0489C109.919 45.5271 107.935 44.0008 106.2 39.9958C103.068 32.886 104.033 23.4671 104.855 19.0056Z" fill="#FFCEA9"/>
<path d="M130.954 36.2645L130.106 28.4372C130.106 28.4372 136.513 11.8433 121.376 15.0264C111.367 17.1397 108.862 18.0529 105.821 11.3475C102.78 4.64212 113.507 -1.39796 126.244 0.284917C130.633 0.742165 134.69 2.83221 137.61 6.14041C140.53 9.44861 142.1 13.7332 142.007 18.1442C141.72 23.0624 140.415 33.0422 130.954 36.2645Z" fill="#3A4151"/>
<path d="M156.936 81.2851C156.936 81.2851 148.662 89.5038 138.888 87.1426C137.492 86.1903 134.138 66.9742 134.138 66.9742C134.138 66.9742 134.138 56.3291 142.294 56.6161C150.45 56.9031 156.936 81.2851 156.936 81.2851Z" fill="#DC8B2D"/>
<path d="M105.338 40.752C102.64 43.1934 100.306 46.0095 98.4087 49.1141C95.7988 53.5888 94.7157 61.9379 94.3242 66.7647C94.1415 69.0216 94.1024 70.4958 94.1024 70.4958C94.1024 70.4958 88.5825 71.1611 86.7947 68.6433C86.9585 67.3169 87.2379 66.0074 87.6298 64.7296C89.8482 56.9415 96.2425 41.7304 105.338 40.752Z" fill="#DC8B2D"/>
<path d="M13.0649 130.231C12.5299 134.863 6.99688 154.861 8.18439 161.71C9.37189 168.559 28.2676 179.974 28.2676 179.974L30.8775 168.233L20.4379 157.979L23.2696 138.554L13.0649 130.231Z" fill="#FFCEA9"/>
<path d="M27.6803 110.519C25.8413 109.671 23.7548 109.526 21.8163 110.113C19.8778 110.699 18.2219 111.976 17.1624 113.702C14.3828 118.307 11.4858 134.092 11.2249 136.793C11.2249 136.793 15.1397 142.18 20.9859 141.28L27.6803 110.519Z" fill="#EDEDED"/>
<path d="M23.3218 321.832C27.4378 322.959 31.8317 322.43 35.5622 320.358C38.4984 320.436 54.4971 313.6 56.6633 319.34C58.5686 324.376 51.6523 329.033 47.9463 329.933C39.8686 331.89 33.8919 335.908 30.6426 336.599C28.2284 337.108 25.0965 337.434 23.1783 335.543C20.8685 333.26 21.0642 324.819 23.3218 321.832Z" fill="#2B303F"/>
<path d="M30.6429 335.256C33.8922 334.565 39.8689 330.547 47.9466 328.59C51.0393 327.833 56.3896 324.441 56.9246 320.41C57.6424 325.041 51.3917 329.151 47.9466 329.986C39.8689 331.942 33.8922 335.96 30.6429 336.652C28.2288 337.161 25.0969 337.487 23.1786 335.595C22.6803 335.043 22.3183 334.382 22.1216 333.664C23.3196 334.575 24.714 335.193 26.1935 335.47C27.6731 335.746 29.1967 335.673 30.6429 335.256Z" fill="#3A4151"/>
<path d="M30.3426 110.872C34.1531 111.055 36.9979 112.033 37.4807 110.872C37.8723 108.89 38.1468 106.886 38.3028 104.871C37.8592 103.762 37.4807 102.575 37.4807 102.575C32.6785 99.627 31.1647 94.4349 30.5384 88.3948C29.4553 78.0758 35.0405 69.0483 45.3626 67.9655C55.0584 66.961 62.1965 73.7707 64.1017 83.1374C65.1326 87.7555 67.1814 96.496 64.4149 104.102C62.8751 108.341 60.8785 111.72 58.895 112.372C56.9725 112.329 55.0547 112.164 53.1532 111.877V111.877C53.1532 111.877 52.6443 114.747 52.2919 116.586C51.9396 118.426 52.0701 119.391 55.737 121.648C59.4039 123.905 50.191 128.549 44.1751 128.092C38.1593 127.636 31.3997 124.009 29.5466 120.122C27.537 115.777 27.7197 110.677 30.3426 110.872Z" fill="#FFCEA9"/>
<path d="M35.8625 111.368C34.8055 113.977 37.4937 117.238 44.6709 119.482C51.8482 121.726 52.5007 118.843 52.5007 118.843C52.5007 118.843 63.0186 123.631 66.4375 126.031C70.7569 129.032 72.6621 137.772 73.2363 152.448C73.9149 169.407 73.9671 194.716 73.406 199.073C73.406 199.073 65.3544 207.096 55.0583 206.248C44.7623 205.4 27.4195 196.281 23.2175 189.289C23.335 174.365 25.0706 171.938 22.6564 163.341C17.1365 143.669 14.2134 135.607 16.9016 122.535C19.12 111.759 22.2258 110.416 26.493 110.52C29.629 110.636 32.7567 110.919 35.8625 111.368V111.368Z" fill="#F4F4F4"/>
<path d="M89.4309 166.524C80.9878 168.65 78.9912 163.328 77.882 158.905C75.1938 148.221 73.7453 138.58 71.7357 132.514C69.3868 125.365 66.9074 124.23 63.4232 122.835C59.3517 121.191 55.8414 124.648 57.1986 133.741C58.8037 144.516 60.9177 152.004 64.9369 164.815C65.9939 168.142 68.3559 174.051 71.8793 176.908C76.2378 180.431 82.8148 180.287 92.7585 177.808C96.9866 176.752 101.645 174.221 109.658 170.49C111.811 169.485 113.481 168.807 117.618 166.889C121.765 165.026 125.4 162.188 128.214 158.618C130.38 155.487 130.667 154.013 130.224 153.296C129.78 152.578 128.684 152.604 127.535 153.922C125.864 156.147 123.804 158.052 121.454 159.545C121.454 159.545 124.064 156.792 125.565 154.992C126.861 153.405 127.937 151.649 128.762 149.774C129.532 147.947 127.953 145.469 126.766 146.76C125.578 148.052 124.991 149.369 122.851 151.978C121.703 153.377 120.388 154.63 118.936 155.709C120.297 153.876 121.506 151.934 122.551 149.904C123.47 148.323 123.922 146.513 123.855 144.686C123.855 143.733 122.446 142.598 121.246 144.412C119.993 146.095 119.21 148.586 116.6 151.313C114.669 153.322 113.024 154.47 112.972 153.922C112.92 153.374 114.147 152.265 114.838 149.93C115.53 147.595 114.838 145.129 113.533 144.855C112.228 144.581 112.489 144.66 111.458 146.851C110.428 149.043 108.849 150.648 107.609 153.831C106.959 156.076 105.767 158.128 104.138 159.806C102.076 162.049 97.4694 164.502 89.4309 166.524Z" fill="#FFCEA9"/>
<path d="M60.3043 121.374C65.9417 120.539 69.9348 123.083 72.4273 131.628C74.9198 140.172 76.6684 147.204 76.6684 147.204C74.4294 150.424 71.0455 152.668 67.2075 153.479C60.4478 155.109 58.0728 151.887 58.0728 151.887C58.0728 151.887 56.2068 142.925 55.0323 136.82C53.8578 130.714 53.3097 122.404 60.3043 121.374Z" fill="#EDEDED"/>
<path d="M63.8275 81.7668C63.8275 81.7668 72.7534 68.2125 53.3879 65.4599C39.4901 63.4639 30.4729 72.4132 29.4942 82.1712C28.5024 91.4466 34.2181 101.087 38.3548 104.91C40.3645 105.627 44.6969 106.045 50.3995 103.462C50.6235 100.933 50.7107 98.394 50.6605 95.856C50.6605 95.856 43.8748 81.532 63.8275 81.7668Z" fill="#3A4151"/>
<path d="M179.238 134.354C179.238 134.354 177.737 156.87 174.788 160.105C171.839 163.341 161.843 165.558 161.843 165.558L154.156 178.213C154.156 178.213 161.177 137.967 162.704 137.002C164.231 136.036 179.238 134.354 179.238 134.354Z" fill="#FFCEA9"/>
<path d="M164.426 109.345C166.298 108.478 168.424 108.328 170.399 108.925C172.374 109.521 174.061 110.822 175.14 112.581C177.972 117.264 180.908 133.349 181.182 136.062C181.182 136.062 177.202 141.542 171.251 140.628L164.426 109.345Z" fill="#434B5B"/>
<path d="M168.798 280.321C168.1 274.273 166.842 268.303 165.039 262.487C165.039 262.487 166.162 247.107 166.723 232.483C167.362 215.928 173.104 201.356 168.576 188.128L118.126 199.347C118.126 199.347 120.567 265.501 121.245 273.498C121.622 279.719 122.389 285.91 123.542 292.036C125.865 304.846 128.409 333.533 128.409 333.533C133.812 336.664 141.733 334.081 141.733 334.081C141.733 334.081 141.733 298.18 141.42 288.944C140.989 277.672 140.65 278.507 140.65 278.507L142.346 250.42L143.443 236.449C143.443 236.449 144.865 246.702 145.778 255.86C146.587 263.844 148.519 271.071 150.672 285.93C152.538 298.832 154.456 325.067 154.456 325.067C159.872 328.198 167.14 326.045 167.14 326.045C167.14 326.045 170.246 291.514 168.798 280.321Z" fill="#C1C4D3"/>
<path d="M161.712 109.567C157.797 109.762 154.926 110.754 154.443 109.567C154.024 107.56 153.727 105.53 153.556 103.487C154 102.365 154.391 101.152 154.391 101.152C159.272 98.1387 160.825 92.8553 161.464 86.7108C162.56 76.1961 156.884 66.999 146.366 65.9032C136.474 64.8726 129.206 71.8128 127.261 81.3491C126.217 86.0585 124.142 94.9556 126.948 102.705C128.527 107.023 130.55 110.532 132.572 111.132C134.534 111.084 136.491 110.914 138.432 110.623C138.432 110.623 138.954 113.545 139.319 115.424C139.684 117.303 139.541 118.281 135.809 120.642C132.077 123.003 141.446 127.674 147.553 127.165C153.66 126.656 160.603 123.003 162.456 119.051C164.57 114.693 164.387 109.488 161.712 109.567Z" fill="#FFCEA9"/>
<path d="M156.088 110.193C157.158 112.881 154.43 116.168 147.11 118.464C139.789 120.76 139.149 117.812 139.149 117.812C139.149 117.812 128.436 122.691 124.938 125.131C120.554 128.196 118.609 137.067 118.022 152.044C117.331 169.381 117.278 195.094 117.852 199.529C117.852 199.529 126.048 207.696 136.539 206.835C147.031 205.974 164.687 196.698 168.967 189.523C168.85 174.325 167.075 171.86 169.542 163.093C175.166 143.055 178.141 134.85 175.401 121.53C173.143 110.546 169.972 109.189 165.64 109.293C162.442 109.422 159.253 109.723 156.088 110.193V110.193Z" fill="#434B5B"/>
<path d="M127.04 212.874L132.377 152.513L121.128 146.551L116.73 150.23L118.035 204.447V205.934L118.114 207.839C118.114 207.839 117.853 212.405 126.465 217.858C126.465 217.858 126.609 216.436 126.726 215.092L126.922 212.848L127.04 212.874Z" fill="#FFCEA9"/>
<path d="M128.409 121.401C122.602 121.283 118.896 124.362 117.487 133.324C116.078 142.287 115.203 149.605 115.203 149.605C117.88 152.576 121.592 154.41 125.578 154.732C132.611 155.515 134.647 151.94 134.647 151.94C134.647 151.94 135.391 142.639 135.782 136.286C136.174 129.932 135.6 121.544 128.409 121.401Z" fill="#434B5B"/>
<path d="M127.601 80.0583C127.601 80.0583 118.466 66.2431 138.197 63.4383C152.395 61.4032 161.516 70.522 162.573 80.3975C163.578 89.8425 157.758 99.6657 153.556 103.553C151.507 104.284 147.031 104.714 141.29 102.079C141.056 99.5031 140.965 96.9162 141.016 94.3301C141.016 94.3301 147.919 79.8104 127.601 80.0583Z" fill="#3A2C6D"/>
<path d="M23.0084 278.39C23.7007 272.458 24.9369 266.602 26.7014 260.896C26.7014 260.896 25.6053 245.79 25.0442 231.466C24.4178 215.211 18.7804 200.9 23.2303 187.933L73.4057 199.087C73.4057 199.087 70.3651 263.897 69.6996 271.737C69.3293 277.845 68.5753 283.923 67.442 289.936C65.1584 302.525 61.4393 332.451 61.4393 332.451C56.1281 335.53 49.1597 333.756 49.1597 333.756C49.1597 333.756 49.5512 295.924 49.8905 286.792C50.308 275.716 50.6473 276.564 50.6473 276.564L48.99 249.155L47.8939 235.431C47.8939 235.431 46.5106 245.503 45.6102 254.491C44.8272 262.318 42.922 269.428 40.808 284.013C38.9811 296.68 36.0057 322.119 36.0057 322.119C30.6946 325.198 23.4913 322.641 23.4913 322.641C23.4913 322.641 21.573 289.375 23.0084 278.39Z" fill="#916F5D"/>
<path d="M94.3242 66.7646C94.1415 69.0215 94.1024 70.4956 94.1024 70.4956C94.1024 70.4956 88.5825 71.1609 86.7947 68.6432C86.9585 67.3168 87.2379 66.0072 87.6298 64.7295C88.5571 65.4919 89.6257 66.064 90.7744 66.4132C91.9231 66.7624 93.1294 66.8818 94.3242 66.7646V66.7646Z" fill="#D5D7E2"/>
</svg>
