<svg width="689" height="666" viewBox="0 0 689 666" fill="none" xmlns="http://www.w3.org/2000/svg">
<path fill-rule="evenodd" clip-rule="evenodd" d="M343.049 0.304676C416.691 6.58495 442.617 102.098 494.53 154.706C535.272 195.993 584.783 225.11 614.21 275.096C650.543 336.812 708.518 406.797 682.135 473.377C655.515 540.556 560.196 540.592 495.921 573.612C444.305 600.129 400.1 636.972 343.049 647.578C275.598 660.116 193.459 685.186 142.435 639.323C90.8175 592.927 134.428 503.917 110.67 438.706C85.3844 369.304 -12.7771 324.683 1.39071 252.19C15.23 181.377 113.481 169.978 171.556 127.162C230.224 83.9098 270.424 -5.88885 343.049 0.304676Z" fill="#EFF7F5"/>
</svg>
