<svg width="525" height="414" viewBox="0 0 525 414" fill="none" xmlns="http://www.w3.org/2000/svg">
<g filter="url(#filter0_d_963_4751)">
<path d="M250.741 357.374L251.747 357.511C252.479 358.091 250.436 358.213 250.741 357.374Z" fill="url(#paint0_linear_963_4751)"/>
<path d="M474.161 240.744C466.66 243.795 458.777 246.663 453.914 250.096L338.788 331.012C329.958 337.388 320.759 343.236 311.238 348.526C303.478 352.721 299.041 360.731 289.649 362.866C284.98 363.677 280.2 363.595 275.562 362.622C267.992 361.387 260.544 359.493 253.302 356.962C252.403 356.657 251.152 356.474 250.756 357.329C183.672 348.175 119.5 323.766 52.9802 311.088C52.2034 310.944 51.4945 310.552 50.9601 309.97C50.4258 309.387 50.095 308.647 50.0175 307.861C49.9401 307.074 50.1203 306.283 50.5309 305.608C50.9415 304.933 51.5603 304.409 52.2941 304.116C57.862 302.144 63.6131 300.733 69.4615 299.906C80.134 297.938 90.6692 296.016 101.311 294.277C122.759 290.559 144.413 288.154 166.154 287.076C202.257 285.55 238.681 289.41 274.403 283.811C308.296 278.548 340.298 264.955 371.873 251.423C379.496 248.158 387.241 244.772 393.218 239.035C397.883 234.55 401.649 228.601 407.611 225.641C413.572 222.681 421.332 223.124 427.98 223.429C441.197 224.329 454.342 226.092 467.33 228.707C469.76 232.664 472.037 236.676 474.161 240.744Z" fill="url(#paint1_linear_963_4751)"/>
<path d="M55.9535 288.403L206.649 222.803C209.91 221.157 213.596 220.545 217.214 221.049L403.601 236.899C407.169 237.403 406.528 252.75 403.601 255.206L293.553 349.06C290.23 351.973 286.257 354.048 281.968 355.11C277.678 356.171 273.197 356.189 268.9 355.162L57.28 303.689C54.5814 303.033 53.4226 289.669 55.9535 288.403Z" fill="#399478"/>
<path d="M55.9535 288.403L206.649 222.803C209.91 221.157 213.596 220.545 217.214 221.049L403.601 236.899C407.169 237.403 406.528 252.75 403.601 255.206L293.553 349.06C290.23 351.973 286.257 354.048 281.968 355.11C277.678 356.171 273.197 356.189 268.9 355.162L57.28 303.689C54.5814 303.033 53.4226 289.669 55.9535 288.403Z" fill="url(#paint2_linear_963_4751)"/>
<path d="M403.647 244.345L293.553 338.107C290.24 341.034 286.273 343.124 281.986 344.199C277.698 345.274 273.216 345.304 268.915 344.285L57.2645 292.812C54.5659 292.156 54.2152 287.885 56.7309 286.618L114.774 253.864L130.02 245.291L176.384 219.142C179.642 217.501 183.322 216.889 186.935 217.388L401.756 236.168C405.324 236.595 406.528 241.888 403.647 244.345Z" fill="#399478"/>
<path d="M186.92 222.574L383.293 251.636L322.856 300.76L121.299 259.951L186.92 222.574Z" fill="url(#paint3_linear_963_4751)"/>
<path d="M265.759 274.215C274.107 272.409 282.092 269.206 289.375 264.741C291.388 263.459 293.598 261.156 292.424 259.051C291.632 257.525 289.68 257.113 289.07 255.511C291.738 254.428 294.666 254.931 297.09 252.841C299.514 250.751 299.773 246.739 297.197 245.214C299.218 245.079 301.17 244.427 302.868 243.322C303.695 242.747 304.309 241.915 304.615 240.955C304.921 239.995 304.902 238.961 304.561 238.013C303.631 236.075 301.191 235.526 299.087 235.191C296.141 234.611 293.138 234.37 290.138 234.474C286.704 234.779 283.376 235.819 280.38 237.525C277.575 239.05 275.303 241.705 272.513 243.108C266.811 245.976 259.325 245.656 253.196 246.999C248.622 247.99 244.2 249.714 239.703 251.072C235.205 252.43 230.936 253.406 226.499 254.382C215.766 256.742 205.007 258.979 194.223 261.095C194.924 265.9 200.062 268.555 204.56 270.37C210.803 273.108 217.326 275.154 224.014 276.473C229.253 277.23 234.554 277.47 239.84 277.19C248.555 277.037 257.235 276.041 265.759 274.215V274.215Z" fill="url(#paint4_linear_963_4751)"/>
<path d="M166.368 272.125L247.295 288.494L205.444 322.667L121.299 303.765L166.368 272.125Z" fill="url(#paint5_linear_963_4751)"/>
<path d="M125.889 309.67C126.715 311.336 127.885 312.807 129.323 313.986C130.761 315.164 132.433 316.023 134.228 316.505C140.175 317.939 174.829 326.817 174.829 326.817C174.829 326.817 180.471 327.489 183.596 323.766L125.889 309.67Z" fill="url(#paint6_linear_963_4751)"/>
<path d="M180.745 217.372L402.366 248.921C403.992 249.155 405.645 248.756 406.985 247.804C408.324 246.853 409.247 245.423 409.563 243.811L441.183 84.0523C441.522 82.3471 441.498 80.5897 441.112 78.8946C440.727 77.1994 439.988 75.6046 438.945 74.2142C437.902 72.8237 436.578 71.6688 435.059 70.8247C433.54 69.9806 431.861 69.4663 430.13 69.3153L211.268 50.0472C208.047 49.7648 204.843 50.7566 202.343 52.8099C199.844 54.8631 198.248 57.8145 197.897 61.0314L180.745 217.372Z" fill="#399478"/>
<path d="M180.745 217.372L401.817 248.845C403.604 249.098 405.419 248.657 406.89 247.613C408.362 246.569 409.378 245.001 409.73 243.231L441.229 84.0523C441.568 82.3472 441.544 80.5897 441.158 78.8946C440.772 77.1994 440.034 75.6046 438.991 74.2142C437.948 72.8237 436.624 71.6688 435.105 70.8247C433.586 69.9806 431.906 69.4663 430.176 69.3153L211.268 50.0472C208.047 49.7648 204.843 50.7566 202.343 52.8099C199.844 54.8631 198.248 57.8145 197.897 61.0314L180.745 217.372Z" fill="url(#paint7_linear_963_4751)"/>
<path d="M398.402 239.752L429.886 78.5447L206.664 57.9189L188.917 210.553L398.402 239.752Z" fill="white"/>
<path d="M171.521 306.633C171.478 307.057 171.526 307.484 171.663 307.887C171.8 308.29 172.022 308.658 172.314 308.967C172.633 309.192 172.997 309.343 173.381 309.41C174.384 309.61 175.41 309.671 176.43 309.593C178.323 309.46 180.203 309.19 182.056 308.784L185.258 308.174C185.459 308.161 185.655 308.109 185.836 308.02C186.016 307.931 186.177 307.807 186.31 307.655C186.4 307.453 186.431 307.23 186.399 307.011C186.366 306.792 186.272 306.587 186.127 306.42C185.576 305.793 184.864 305.329 184.069 305.077C182.154 304.299 180.181 303.671 178.168 303.201C177.835 303.15 177.517 303.025 177.238 302.835C176.842 302.484 176.766 301.889 176.491 301.416C176.215 301.019 175.826 300.714 175.375 300.54C174.924 300.366 174.431 300.331 173.96 300.439C173.045 300.623 171.719 301.248 171.506 302.255C171.351 303.711 171.356 305.179 171.521 306.633Z" fill="#F9C6D6"/>
<path d="M181.827 303.583C181.503 303.498 181.162 303.5 180.838 303.588C180.514 303.677 180.219 303.848 179.983 304.086C179.464 304.864 180.15 306.1 179.51 306.801C179.316 306.961 179.092 307.08 178.851 307.151C178.61 307.222 178.357 307.243 178.107 307.213H174.555C173.609 307.252 172.662 307.175 171.734 306.985C171.52 306.906 171.29 306.88 171.063 306.908C170.91 306.957 170.773 307.049 170.67 307.174C170.568 307.298 170.503 307.45 170.484 307.61C170.447 307.932 170.494 308.258 170.621 308.556C170.844 309.201 171.174 309.805 171.597 310.341C171.708 310.503 171.854 310.639 172.024 310.737C172.224 310.811 172.436 310.847 172.649 310.844C174.738 310.844 176.827 310.844 178.915 310.753C180.364 310.646 181.797 310.432 183.245 310.31C185.323 310.307 187.385 309.951 189.344 309.258C189.6 309.17 189.836 309.032 190.038 308.851C190.24 308.67 190.403 308.45 190.518 308.205C190.579 307.979 190.588 307.741 190.543 307.511C190.498 307.281 190.401 307.064 190.259 306.878C189.977 306.511 189.624 306.205 189.222 305.978C188.08 305.25 186.829 304.709 185.517 304.376C184.308 304.024 183.075 303.758 181.827 303.583Z" fill="#565056"/>
<path d="M132.871 302.728C132.856 302.804 132.856 302.882 132.871 302.957C132.993 305.764 136.713 305.84 138.711 305.734C140.607 305.6 142.492 305.335 144.352 304.94L147.538 304.33C147.74 304.316 147.937 304.261 148.118 304.169C148.299 304.077 148.459 303.951 148.59 303.796C148.681 303.597 148.713 303.375 148.68 303.159C148.648 302.942 148.553 302.739 148.407 302.576C147.863 301.945 147.156 301.476 146.364 301.218C144.641 300.559 142.886 299.989 141.104 299.509C139.58 299.036 140.845 296.855 141.013 295.695C141.09 295.468 141.09 295.221 141.013 294.994C140.842 294.739 140.58 294.559 140.281 294.49C139.357 294.174 138.391 293.999 137.415 293.971C137.22 293.951 137.024 293.988 136.851 294.078C136.693 294.198 136.576 294.363 136.515 294.551L133.466 301.05C133.165 301.567 132.963 302.137 132.871 302.728V302.728Z" fill="#F9C6D6"/>
<path d="M134.228 220.012C134.228 220.012 131.956 232.827 136.652 242.453C139.12 247.622 141.874 252.649 144.901 257.51C144.901 257.51 135.112 268.098 135.112 281.447C135.112 294.795 134.868 295.406 134.868 295.406L140.738 298.457L155.375 257.526C155.375 257.526 156.259 251.728 155.375 249.76C154.49 247.792 146.989 225.489 146.989 225.489L134.228 220.012Z" fill="#473F47"/>
<path d="M187.392 168.004C184.343 168.004 181.035 164.77 179.19 159.766C177.055 153.984 177.97 148.675 181.324 147.439C184.678 146.204 188.81 149.636 190.945 155.433C193.079 161.215 192.164 166.524 188.81 167.76C188.356 167.925 187.876 168.007 187.392 168.004ZM182.818 149.926C182.657 149.92 182.497 149.946 182.346 150.002C180.821 150.582 180.211 154.472 181.812 158.82C183.413 163.168 186.386 165.777 187.911 165.197C189.435 164.617 190.045 160.727 188.444 156.379C186.904 152.428 184.343 149.926 182.712 149.926H182.818Z" fill="#473F47"/>
<path d="M199.437 180.712C199.231 180.714 199.026 180.67 198.839 180.583C198.652 180.496 198.486 180.368 198.355 180.209L188.262 167.516C188.037 167.233 187.934 166.872 187.976 166.513C188.017 166.154 188.2 165.826 188.483 165.602C188.766 165.377 189.126 165.274 189.485 165.316C189.844 165.357 190.172 165.54 190.396 165.823L200.489 178.577C200.652 178.774 200.755 179.014 200.786 179.268C200.817 179.522 200.775 179.78 200.664 180.011C200.554 180.242 200.379 180.436 200.162 180.572C199.945 180.707 199.693 180.777 199.437 180.773V180.712Z" fill="#473F47"/>
<path d="M181.538 161.81C181.7 163.151 181.756 164.503 181.706 165.853C181.45 166.903 180.814 167.822 179.922 168.431C179.027 169.033 178.03 169.467 176.979 169.713C176.669 169.778 176.374 169.902 176.11 170.079C175.927 170.303 175.792 170.562 175.713 170.84C175.635 171.118 175.614 171.41 175.653 171.696V175.144C175.695 175.503 175.609 175.865 175.409 176.166C175.249 176.335 175.042 176.452 174.814 176.502C173.978 176.694 173.101 176.587 172.335 176.199C171.569 175.812 170.963 175.169 170.621 174.381C170.217 173.622 169.774 172.884 169.295 172.169C168.833 171.214 168.563 170.177 168.502 169.118C168.154 165.804 168.773 162.46 170.286 159.491C171.226 157.605 172.594 155.964 174.281 154.701C175.638 153.725 178.26 152.275 179.647 153.954C180.333 154.777 180.318 156.013 180.959 156.883C181.416 157.508 182.239 157.951 182.361 158.713C182.483 159.476 181.98 160.025 181.751 160.666C181.612 161.032 181.54 161.419 181.538 161.81V161.81Z" fill="#F9C6D6"/>
<path d="M191.662 168.798C191.669 168.727 191.669 168.655 191.662 168.584C191.673 167.79 191.97 167.026 192.5 166.433C192.767 166.145 193.124 165.957 193.513 165.901C193.902 165.845 194.298 165.926 194.635 166.128C194.894 166.311 195.092 166.616 195.397 166.754C195.702 166.891 196.357 166.754 196.678 167.12C196.998 167.486 196.906 167.791 197.059 168.111C197.211 168.432 197.653 168.722 197.943 169.027C199.376 170.552 197.791 173.344 197.226 174.915C196.373 177.265 195.534 179.63 194.833 182.04C193.99 182.162 193.13 181.995 192.393 181.567C192.126 181.406 191.889 181.199 191.692 180.957C191.458 180.541 191.312 180.08 191.265 179.605C191.218 179.13 191.27 178.65 191.418 178.195C191.598 177.504 191.649 176.785 191.57 176.075C191.364 175.307 191.11 174.553 190.808 173.817C190.594 173.192 190.411 172.398 190.899 171.956C191.094 171.835 191.277 171.697 191.448 171.544C191.568 171.363 191.632 171.151 191.631 170.934C191.692 170.217 191.631 169.5 191.662 168.798Z" fill="#F9C6D6"/>
<path d="M163.791 225.489L178.016 257.526L177.421 302.896L170.896 302.423C170.896 302.423 159.735 276.611 166.916 260.623C166.916 260.623 149.673 245.87 143.3 237.48C135.478 227.152 137.201 218.486 137.201 218.486L163.791 225.489Z" fill="#565056"/>
<path d="M170.377 170.384C172.123 170.787 173.817 171.391 175.424 172.184C180.882 174.702 181.126 179.019 183.047 184.191C184.267 187.484 185.656 190.713 187.209 193.863L189.847 178.271L197.135 181.231C197.135 181.231 197.866 204.237 192.561 207.334C189.115 209.317 184.282 206.998 181.156 205.396C180.013 204.817 178.107 203.062 176.903 202.894C174.57 202.574 174.417 205.35 172.329 206.968C170.979 207.757 169.685 208.639 168.456 209.607C167.298 210.938 166.431 212.497 165.91 214.184C165.323 216.271 165.153 218.453 165.407 220.606C165.569 221.326 165.577 222.072 165.43 222.796C165.283 223.519 164.984 224.202 164.553 224.802C163.951 225.313 163.216 225.641 162.434 225.747C159.838 226.121 157.199 226.09 154.612 225.656C149.484 225.252 144.408 224.342 139.458 222.94C137.656 222.383 135.893 221.705 134.182 220.911C133.811 220.753 133.471 220.531 133.176 220.255C132.864 219.891 132.659 219.447 132.581 218.974C131.895 215.831 134.106 212.872 135.311 209.927C136.073 207.913 136.317 205.717 137.003 203.672C137.899 201.591 139.057 199.633 140.449 197.845C141.47 196.319 141.973 194.366 143.071 192.719C145.816 188.498 148.874 184.49 152.219 180.728C154.17 178.302 156.345 176.065 158.714 174.046C161.414 171.647 164.877 170.284 168.487 170.201C169.121 170.21 169.753 170.271 170.377 170.384V170.384Z" fill="#399478"/>
<path d="M164.233 141.154C162.335 141.421 160.535 142.166 159.004 143.321C155.665 146.036 154.902 150.949 151.731 153.862C149.017 156.319 145.099 156.807 141.455 157.188C142.043 158.88 142.96 160.438 144.153 161.774C145.346 163.109 146.791 164.196 148.405 164.97C150.019 165.744 151.771 166.191 153.558 166.285C155.346 166.379 157.134 166.118 158.821 165.518L155.085 169.24C154.987 169.317 154.918 169.425 154.887 169.545C154.887 169.789 155.116 169.942 155.345 170.018C157.074 170.657 158.982 170.614 160.681 169.896C160.706 170.689 161.01 171.447 161.541 172.036C162.071 172.625 162.793 173.008 163.578 173.115C164.681 173.274 165.807 173.138 166.84 172.719C167.417 172.49 168.034 172.381 168.655 172.398C169.173 172.398 169.646 172.673 170.179 172.49C171.76 171.493 173.028 170.071 173.838 168.386C175.043 165.67 173.274 162.284 174.723 159.599C175.927 157.463 179.708 156.822 180.272 154.412C180.882 151.742 179.434 147.836 177.894 145.731C176.143 143.33 173.561 141.666 170.652 141.063C168.95 140.762 167.212 140.726 165.499 140.956L164.233 141.154Z" fill="#FC682D"/>
<path d="M143.529 299.234C143.203 299.15 142.86 299.154 142.536 299.245C142.212 299.336 141.918 299.511 141.684 299.753C141.166 300.516 141.852 301.752 141.211 302.453C141.019 302.616 140.795 302.737 140.554 302.808C140.312 302.879 140.058 302.899 139.809 302.865H136.256C135.31 302.919 134.361 302.842 133.436 302.636C133.22 302.565 132.991 302.539 132.765 302.56C132.611 302.609 132.475 302.701 132.372 302.826C132.269 302.95 132.204 303.102 132.185 303.262C132.155 303.584 132.202 303.908 132.323 304.208C132.546 304.853 132.876 305.457 133.298 305.993C133.414 306.151 133.559 306.286 133.725 306.389C133.924 306.468 134.137 306.505 134.35 306.496C136.439 306.496 138.528 306.496 140.617 306.405C142.141 306.298 143.498 306.084 144.947 305.977C147.025 305.969 149.087 305.608 151.045 304.91C151.302 304.822 151.538 304.684 151.739 304.503C151.941 304.322 152.104 304.102 152.219 303.857C152.281 303.631 152.29 303.393 152.245 303.163C152.2 302.933 152.102 302.716 151.96 302.53C151.674 302.167 151.322 301.862 150.923 301.63C149.781 300.901 148.531 300.361 147.218 300.028C146.007 299.683 144.775 299.418 143.529 299.234V299.234Z" fill="#565056"/>
<path d="M236.973 275.512C212.32 275.161 192.439 266.725 192.591 256.641C192.591 255.527 191.753 249.196 192.24 248.189C196.128 239.738 215.567 238.746 237.492 239.036C259.065 239.356 277.132 239.036 281.218 247.381C281.813 248.571 281.904 256.687 281.889 257.892C281.752 267.991 261.642 275.833 236.973 275.512Z" fill="#E8A825"/>
<path d="M281.574 249.517C281.718 239.449 261.843 231.002 237.183 230.649C212.522 230.296 192.414 238.17 192.27 248.238C192.126 258.305 212.001 266.753 236.661 267.106C261.322 267.459 281.43 259.584 281.574 249.517Z" fill="#F8C244"/>
<path d="M274.958 249.422C275.08 240.846 258.151 233.649 237.144 233.349C216.138 233.048 199.009 239.756 198.886 248.333C198.764 256.909 215.693 264.105 236.7 264.406C257.706 264.707 274.835 257.998 274.958 249.422Z" fill="#E8A825"/>
<path d="M212.93 247.06L219.029 247.151C219.148 246.358 219.458 245.606 219.93 244.958C220.403 244.31 221.024 243.785 221.742 243.429L225.783 244.054C225.082 244.372 224.474 244.862 224.013 245.478C223.551 246.094 223.253 246.816 223.145 247.578C223.145 249.333 225.584 250.629 229 250.629C230.322 250.724 231.649 250.531 232.889 250.062C234.129 249.593 235.252 248.86 236.181 247.914C237.525 246.514 239.168 245.436 240.987 244.76C242.806 244.084 244.754 243.827 246.685 244.008C251.686 244.008 255.483 245.534 256.367 247.853L262.465 247.944V249.47L256.596 249.378C256.506 250.039 256.265 250.671 255.892 251.223C255.519 251.776 255.025 252.236 254.446 252.567L250.482 251.896C251.042 251.585 251.522 251.147 251.882 250.617C252.242 250.087 252.473 249.48 252.555 248.845C252.555 246.968 249.826 246.19 247.402 246.16C246.098 246.086 244.795 246.315 243.595 246.828C242.394 247.342 241.328 248.126 240.48 249.119C237.919 251.606 234.748 252.842 229.32 252.842C224.532 252.842 220.004 251.316 219.089 248.799L212.823 248.707L212.93 247.06Z" fill="#F8C244"/>
<path d="M229.93 257.525C205.276 257.174 185.395 248.738 185.547 238.654C185.547 237.54 184.709 231.209 185.182 230.202C189.085 221.75 208.524 220.759 230.448 221.049C252.022 221.369 270.089 221.049 274.175 229.393C274.769 230.583 274.861 238.699 274.845 239.905C274.708 249.897 254.598 257.8 229.93 257.525Z" fill="#E8A825"/>
<path d="M274.538 231.455C274.682 221.387 254.807 212.939 230.147 212.586C205.486 212.233 185.378 220.108 185.234 230.176C185.09 240.243 204.965 248.691 229.625 249.044C254.286 249.397 274.394 241.522 274.538 231.455Z" fill="#F8C244"/>
<path d="M267.922 231.36C268.045 222.783 251.115 215.587 230.108 215.286C209.102 214.985 191.973 221.694 191.851 230.27C191.728 238.846 208.658 246.043 229.664 246.344C250.671 246.644 267.799 239.936 267.922 231.36Z" fill="#E8A825"/>
<path d="M205.886 228.997L211.985 229.089C212.105 228.296 212.414 227.543 212.886 226.895C213.359 226.247 213.98 225.723 214.698 225.366L218.739 225.992C218.038 226.31 217.43 226.8 216.969 227.416C216.508 228.031 216.209 228.754 216.101 229.516C216.101 231.27 218.541 232.567 221.956 232.567C223.286 232.675 224.623 232.49 225.874 232.027C227.125 231.563 228.259 230.831 229.198 229.882C230.54 228.48 232.183 227.4 234.002 226.723C235.822 226.047 237.77 225.792 239.703 225.976C244.703 225.976 248.5 227.502 249.384 229.821L255.483 229.912V231.438L249.613 231.346C249.523 232.007 249.282 232.639 248.909 233.191C248.537 233.744 248.042 234.204 247.463 234.535L243.499 233.864C244.059 233.553 244.539 233.115 244.899 232.585C245.259 232.055 245.49 231.448 245.572 230.813C245.572 228.951 242.843 228.173 240.419 228.143C239.115 228.069 237.813 228.298 236.612 228.812C235.411 229.325 234.345 230.109 233.497 231.102C230.936 233.589 227.765 234.825 222.337 234.825C217.55 234.825 213.021 233.299 212.107 230.782L205.84 230.69L205.886 228.997Z" fill="#F8C244"/>
<path d="M250.711 248.876C226.042 248.509 206.161 240.073 206.313 230.004C206.313 228.891 205.475 222.559 205.963 221.553C209.85 213.101 229.305 212.109 251.229 212.399C272.803 212.719 290.87 212.399 294.94 220.744C295.535 221.934 295.626 230.065 295.611 231.27C295.489 241.339 275.364 249.226 250.711 248.876Z" fill="#E8A825"/>
<path d="M295.312 222.882C295.456 212.815 275.581 204.367 250.921 204.014C226.26 203.661 206.152 211.536 206.008 221.603C205.864 231.671 225.738 240.118 250.399 240.472C275.06 240.825 295.168 232.95 295.312 222.882Z" fill="#F8C244"/>
<path d="M288.696 222.787C288.819 214.211 271.889 207.015 250.882 206.714C229.876 206.413 212.747 213.121 212.624 221.698C212.502 230.274 229.432 237.47 250.438 237.771C271.445 238.072 288.573 231.364 288.696 222.787Z" fill="#E8A825"/>
<path d="M226.652 220.408L232.75 220.5C232.869 219.706 233.178 218.953 233.65 218.305C234.123 217.657 234.745 217.133 235.464 216.777L239.504 217.418C238.806 217.741 238.198 218.232 237.736 218.847C237.273 219.462 236.969 220.181 236.852 220.942C236.852 222.681 239.291 223.917 242.721 223.993C244.051 224.101 245.388 223.917 246.639 223.453C247.89 222.989 249.025 222.257 249.963 221.308C251.305 219.909 252.945 218.831 254.762 218.155C256.578 217.478 258.523 217.221 260.453 217.403C265.469 217.403 269.265 218.928 270.134 221.263L276.233 221.354V222.88L270.378 222.788C270.282 223.449 270.038 224.079 269.662 224.632C269.287 225.184 268.792 225.644 268.213 225.977L264.249 225.305C264.809 224.993 265.29 224.555 265.652 224.025C266.015 223.496 266.249 222.89 266.338 222.254C266.338 220.393 263.594 219.615 261.185 219.569C259.881 219.499 258.58 219.73 257.38 220.243C256.179 220.756 255.113 221.538 254.263 222.529C251.686 225.031 248.53 226.266 243.087 226.266C238.3 226.266 233.787 224.741 232.872 222.224L226.606 222.132L226.652 220.408Z" fill="#F8C244"/>
<path d="M220.568 161.506C219.852 161.002 223.617 135.83 223.617 135.83L236.409 137.081L233.131 162.375L220.568 161.506Z" fill="#399478"/>
<path d="M246.137 163.992C245.42 163.473 251.808 125.853 251.808 125.853L264.6 127.104L258.745 164.938L246.137 163.992Z" fill="#399478"/>
<path d="M271.704 166.464C271.003 165.96 281.203 98.8809 281.203 98.8809L293.995 100.132L284.313 167.333L271.704 166.464Z" fill="#399478"/>
<path d="M297.273 168.95C296.572 168.447 304.591 117.98 304.591 117.98L317.383 119.231L309.882 169.82L297.273 168.95Z" fill="#399478"/>
<path d="M310.126 176.762L209.957 169.485L210.049 168.875C211.085 160.881 220.233 90.7499 220.721 89.4531L221.819 89.804C221.438 91.3296 214.836 141.506 211.329 168.417L310.248 175.587L310.126 176.762Z" fill="#399478"/>
<path opacity="0.39" d="M352.51 199.554L354.858 187.212C348.373 187.358 341.996 185.539 336.562 181.994L341.136 173.802C346.16 177.227 352.119 179.012 358.197 178.913C367.223 178.913 374.191 173.832 375.517 166.876C376.843 159.919 372.681 156.044 364.067 152.413C352.114 147.623 345.253 142.055 347.296 131.467C349.232 121.337 358.136 113.603 370.165 111.635L372.513 99.3232H380.335L377.972 111.162C383.447 111.113 388.832 112.552 393.553 115.327L388.903 123.534C384.381 120.712 379.121 119.299 373.794 119.476C364.082 119.476 359.371 125.182 358.441 130.048C357.221 136.395 361.292 139.537 371.4 143.855C383.43 148.889 388.766 155.175 386.647 166.037C384.817 175.678 376.127 184.771 362.771 186.937L360.438 199.554H352.51Z" fill="#399478"/>
</g>
<defs>
<filter id="filter0_d_963_4751" x="0" y="0" width="524.161" height="413.419" filterUnits="userSpaceOnUse" color-interpolation-filters="sRGB">
<feFlood flood-opacity="0" result="BackgroundImageFix"/>
<feColorMatrix in="SourceAlpha" type="matrix" values="0 0 0 0 0 0 0 0 0 0 0 0 0 0 0 0 0 0 127 0" result="hardAlpha"/>
<feOffset/>
<feGaussianBlur stdDeviation="25"/>
<feComposite in2="hardAlpha" operator="out"/>
<feColorMatrix type="matrix" values="0 0 0 0 0 0 0 0 0 0 0 0 0 0 0 0 0 0 0.25 0"/>
<feBlend mode="normal" in2="BackgroundImageFix" result="effect1_dropShadow_963_4751"/>
<feBlend mode="normal" in="SourceGraphic" in2="effect1_dropShadow_963_4751" result="shape"/>
</filter>
<linearGradient id="paint0_linear_963_4751" x1="249.536" y1="356.337" x2="254.051" y2="359.706" gradientUnits="userSpaceOnUse">
<stop offset="0.01"/>
<stop offset="0.08" stop-opacity="0.69"/>
<stop offset="0.21" stop-opacity="0.32"/>
<stop offset="1" stop-opacity="0"/>
</linearGradient>
<linearGradient id="paint1_linear_963_4751" x1="-33246.6" y1="1060.26" x2="48114.8" y2="185148" gradientUnits="userSpaceOnUse">
<stop offset="0.01"/>
<stop offset="0.08" stop-opacity="0.69"/>
<stop offset="0.21" stop-opacity="0.32"/>
<stop offset="1" stop-opacity="0"/>
</linearGradient>
<linearGradient id="paint2_linear_963_4751" x1="61439.5" y1="23113.3" x2="65830.8" y2="59411.1" gradientUnits="userSpaceOnUse">
<stop offset="0.01"/>
<stop offset="0.08" stop-opacity="0.69"/>
<stop offset="0.21" stop-opacity="0.32"/>
<stop offset="1" stop-opacity="0"/>
</linearGradient>
<linearGradient id="paint3_linear_963_4751" x1="51136.7" y1="6579.08" x2="49999.7" y2="32329.4" gradientUnits="userSpaceOnUse">
<stop offset="0.01"/>
<stop offset="0.08" stop-opacity="0.69"/>
<stop offset="0.21" stop-opacity="0.32"/>
<stop offset="1" stop-opacity="0"/>
</linearGradient>
<linearGradient id="paint4_linear_963_4751" x1="18922.5" y1="8739" x2="29920.8" y2="18562.1" gradientUnits="userSpaceOnUse">
<stop offset="0.01"/>
<stop offset="0.08" stop-opacity="0.69"/>
<stop offset="0.21" stop-opacity="0.32"/>
<stop offset="1" stop-opacity="0"/>
</linearGradient>
<linearGradient id="paint5_linear_963_4751" x1="18686.8" y1="6663.19" x2="17926.8" y2="19469.2" gradientUnits="userSpaceOnUse">
<stop offset="0.01"/>
<stop offset="0.08" stop-opacity="0.69"/>
<stop offset="0.21" stop-opacity="0.32"/>
<stop offset="1" stop-opacity="0"/>
</linearGradient>
<linearGradient id="paint6_linear_963_4751" x1="8550.6" y1="4461.34" x2="8436.65" y2="5444.96" gradientUnits="userSpaceOnUse">
<stop offset="0.01"/>
<stop offset="0.08" stop-opacity="0.69"/>
<stop offset="0.21" stop-opacity="0.32"/>
<stop offset="1" stop-opacity="0"/>
</linearGradient>
<linearGradient id="paint7_linear_963_4751" x1="60829.7" y1="8464.1" x2="73633.2" y2="155027" gradientUnits="userSpaceOnUse">
<stop offset="0.01"/>
<stop offset="0.08" stop-opacity="0.69"/>
<stop offset="0.21" stop-opacity="0.32"/>
<stop offset="1" stop-opacity="0"/>
</linearGradient>
</defs>
</svg>
