<svg width="518" height="408" viewBox="0 0 518 408" fill="none" xmlns="http://www.w3.org/2000/svg">
<path d="M498.32 246.894C496.155 242.826 493.873 238.824 491.474 234.888C489.218 231.135 486.89 227.463 484.492 223.873C474.048 208.206 462.445 192.782 457.338 174.658C451.026 152.232 457.338 127.365 450.568 105.687C444.82 86.8308 427.302 67.1051 414.099 53.1461C384.902 22.1159 345.094 -0.554151 301.581 0.0103117C293.21 0.162577 284.867 1.01478 276.638 2.55803C260.339 5.51764 244.346 10.6741 228.612 15.9984C188.758 29.515 148.797 44.5724 114.615 69.1494C80.4324 93.7264 52.2418 129.105 44.4814 170.478C40.4564 191.836 41.9048 214.354 34.983 235.01C26.6889 259.724 8.27132 275.956 2.41672 301.632C-4.32217 331.182 2.72164 366.103 27.4665 383.571C40.3497 392.648 56.4346 396.035 72.0011 397.88C111.251 402.429 151.018 398.602 188.682 386.652C209.92 379.894 230.944 370.496 253.235 370.405C277.232 370.298 299.721 380.992 322.102 389.658C356.346 402.93 393.471 411.931 429.727 406.119C465.982 400.306 501.141 377.133 513.063 342.426C523.903 310.877 514.359 276.994 498.32 246.894Z" fill="#EFF7F5"/>
</svg>
