<svg width="465" height="354" viewBox="0 0 465 354" fill="none" xmlns="http://www.w3.org/2000/svg">
<g filter="url(#filter0_d_963_4751)">
<path d="M220.741 327.374L221.747 327.511C222.479 328.091 220.436 328.213 220.741 327.374Z" fill="url(#paint0_linear_963_4751)"/>
<path d="M444.161 210.744C436.66 213.795 428.777 216.663 423.914 220.096L308.788 301.012C299.958 307.388 290.759 313.236 281.238 318.526C273.478 322.721 269.041 330.731 259.649 332.866C254.98 333.677 250.2 333.595 245.562 332.622C237.992 331.387 230.544 329.493 223.302 326.962C222.403 326.657 221.152 326.474 220.756 327.329C153.672 318.175 89.5001 293.766 22.9802 281.088C22.2034 280.944 21.4945 280.552 20.9601 279.97C20.4258 279.387 20.095 278.647 20.0175 277.861C19.9401 277.074 20.1203 276.283 20.5309 275.608C20.9415 274.933 21.5603 274.409 22.2941 274.116C27.862 272.144 33.6131 270.733 39.4615 269.906C50.134 267.938 60.6692 266.016 71.3111 264.277C92.7589 260.559 114.413 258.154 136.154 257.076C172.257 255.55 208.681 259.41 244.403 253.811C278.296 248.548 310.298 234.955 341.873 221.423C349.496 218.158 357.241 214.772 363.218 209.035C367.883 204.55 371.649 198.601 377.611 195.641C383.572 192.681 391.332 193.124 397.98 193.429C411.197 194.329 424.342 196.092 437.33 198.707C439.76 202.664 442.037 206.676 444.161 210.744Z" fill="url(#paint1_linear_963_4751)"/>
<path d="M25.9535 258.403L176.649 192.803C179.91 191.157 183.596 190.545 187.214 191.049L373.601 206.899C377.169 207.403 376.528 222.75 373.601 225.206L263.553 319.06C260.23 321.973 256.257 324.048 251.968 325.11C247.678 326.171 243.197 326.189 238.9 325.162L27.28 273.689C24.5814 273.033 23.4226 259.669 25.9535 258.403Z" fill="#399478"/>
<path d="M25.9535 258.403L176.649 192.803C179.91 191.157 183.596 190.545 187.214 191.049L373.601 206.899C377.169 207.403 376.528 222.75 373.601 225.206L263.553 319.06C260.23 321.973 256.257 324.048 251.968 325.11C247.678 326.171 243.197 326.189 238.9 325.162L27.28 273.689C24.5814 273.033 23.4226 259.669 25.9535 258.403Z" fill="url(#paint2_linear_963_4751)"/>
<path d="M373.647 214.345L263.553 308.107C260.24 311.034 256.273 313.124 251.986 314.199C247.698 315.274 243.216 315.304 238.915 314.285L27.2645 262.812C24.5659 262.156 24.2152 257.885 26.7309 256.618L84.7738 223.864L100.02 215.291L146.384 189.142C149.642 187.501 153.322 186.889 156.935 187.388L371.756 206.168C375.324 206.595 376.528 211.888 373.647 214.345Z" fill="#399478"/>
<path d="M156.92 192.574L353.293 221.636L292.856 270.76L91.2993 229.951L156.92 192.574Z" fill="url(#paint3_linear_963_4751)"/>
<path d="M235.759 244.215C244.107 242.409 252.092 239.206 259.375 234.741C261.388 233.459 263.598 231.156 262.424 229.051C261.632 227.525 259.68 227.113 259.07 225.511C261.738 224.428 264.666 224.931 267.09 222.841C269.514 220.751 269.773 216.739 267.197 215.214C269.218 215.079 271.17 214.427 272.868 213.322C273.695 212.747 274.309 211.915 274.615 210.955C274.921 209.995 274.902 208.961 274.561 208.013C273.631 206.075 271.191 205.526 269.087 205.191C266.141 204.611 263.138 204.37 260.138 204.474C256.704 204.779 253.376 205.819 250.38 207.525C247.575 209.05 245.303 211.705 242.513 213.108C236.811 215.976 229.325 215.656 223.196 216.999C218.622 217.99 214.2 219.714 209.703 221.072C205.205 222.43 200.936 223.406 196.499 224.382C185.766 226.742 175.007 228.979 164.223 231.095C164.924 235.9 170.062 238.555 174.56 240.37C180.803 243.108 187.326 245.154 194.014 246.473C199.253 247.23 204.554 247.47 209.84 247.19C218.555 247.037 227.235 246.041 235.759 244.215V244.215Z" fill="url(#paint4_linear_963_4751)"/>
<path d="M136.368 242.125L217.295 258.494L175.444 292.667L91.2993 273.765L136.368 242.125Z" fill="url(#paint5_linear_963_4751)"/>
<path d="M95.8887 279.67C96.7145 281.336 97.8853 282.807 99.3232 283.986C100.761 285.164 102.433 286.023 104.228 286.505C110.175 287.939 144.829 296.817 144.829 296.817C144.829 296.817 150.471 297.489 153.596 293.766L95.8887 279.67Z" fill="url(#paint6_linear_963_4751)"/>
<path d="M150.745 187.372L372.366 218.921C373.992 219.155 375.645 218.756 376.985 217.804C378.324 216.853 379.247 215.423 379.563 213.811L411.183 54.0523C411.522 52.3471 411.498 50.5897 411.112 48.8946C410.727 47.1994 409.988 45.6046 408.945 44.2142C407.902 42.8237 406.578 41.6688 405.059 40.8247C403.54 39.9806 401.861 39.4663 400.13 39.3153L181.268 20.0472C178.047 19.7648 174.843 20.7566 172.343 22.8099C169.844 24.8631 168.248 27.8145 167.897 31.0314L150.745 187.372Z" fill="#399478"/>
<path d="M150.745 187.372L371.817 218.845C373.604 219.098 375.419 218.657 376.89 217.613C378.362 216.569 379.378 215.001 379.73 213.231L411.229 54.0523C411.568 52.3472 411.544 50.5897 411.158 48.8946C410.772 47.1994 410.034 45.6046 408.991 44.2142C407.948 42.8237 406.624 41.6688 405.105 40.8247C403.586 39.9806 401.906 39.4663 400.176 39.3153L181.268 20.0472C178.047 19.7648 174.843 20.7566 172.343 22.8099C169.844 24.8631 168.248 27.8145 167.897 31.0314L150.745 187.372Z" fill="url(#paint7_linear_963_4751)"/>
<path d="M368.402 209.752L399.886 48.5447L176.664 27.9189L158.917 180.553L368.402 209.752Z" fill="white"/>
<path d="M141.521 276.633C141.478 277.057 141.526 277.484 141.663 277.887C141.8 278.29 142.022 278.658 142.314 278.967C142.633 279.192 142.997 279.343 143.381 279.41C144.384 279.61 145.41 279.671 146.43 279.593C148.323 279.46 150.203 279.19 152.056 278.784L155.258 278.174C155.459 278.161 155.655 278.109 155.836 278.02C156.016 277.931 156.177 277.807 156.31 277.655C156.4 277.453 156.431 277.23 156.399 277.011C156.366 276.792 156.272 276.587 156.127 276.42C155.576 275.793 154.864 275.329 154.069 275.077C152.154 274.299 150.181 273.671 148.168 273.201C147.835 273.15 147.517 273.025 147.238 272.835C146.842 272.484 146.766 271.889 146.491 271.416C146.215 271.019 145.826 270.714 145.375 270.54C144.924 270.366 144.431 270.331 143.96 270.439C143.045 270.623 141.719 271.248 141.506 272.255C141.351 273.711 141.356 275.179 141.521 276.633Z" fill="#F9C6D6"/>
<path d="M151.827 273.583C151.503 273.498 151.162 273.5 150.838 273.588C150.514 273.677 150.219 273.848 149.983 274.086C149.464 274.864 150.15 276.1 149.51 276.801C149.316 276.961 149.092 277.08 148.851 277.151C148.61 277.222 148.357 277.243 148.107 277.213H144.555C143.609 277.252 142.662 277.175 141.734 276.985C141.52 276.906 141.29 276.88 141.063 276.908C140.91 276.957 140.773 277.049 140.67 277.174C140.568 277.298 140.503 277.45 140.484 277.61C140.447 277.932 140.494 278.258 140.621 278.556C140.844 279.201 141.174 279.805 141.597 280.341C141.708 280.503 141.854 280.639 142.024 280.737C142.224 280.811 142.436 280.847 142.649 280.844C144.738 280.844 146.827 280.844 148.915 280.753C150.364 280.646 151.797 280.432 153.245 280.31C155.323 280.307 157.385 279.951 159.344 279.258C159.6 279.17 159.836 279.032 160.038 278.851C160.24 278.67 160.403 278.45 160.518 278.205C160.579 277.979 160.588 277.741 160.543 277.511C160.498 277.281 160.401 277.064 160.259 276.878C159.977 276.511 159.624 276.205 159.222 275.978C158.08 275.25 156.829 274.709 155.517 274.376C154.308 274.024 153.075 273.758 151.827 273.583Z" fill="#565056"/>
<path d="M102.871 272.728C102.856 272.804 102.856 272.882 102.871 272.957C102.993 275.764 106.713 275.84 108.711 275.734C110.607 275.6 112.492 275.335 114.352 274.94L117.538 274.33C117.74 274.316 117.937 274.261 118.118 274.169C118.299 274.077 118.459 273.951 118.59 273.796C118.681 273.597 118.713 273.375 118.68 273.159C118.648 272.942 118.553 272.739 118.407 272.576C117.863 271.945 117.156 271.476 116.364 271.218C114.641 270.559 112.886 269.989 111.104 269.509C109.58 269.036 110.845 266.855 111.013 265.695C111.09 265.468 111.09 265.221 111.013 264.994C110.842 264.739 110.58 264.559 110.281 264.49C109.357 264.174 108.391 263.999 107.415 263.971C107.22 263.951 107.024 263.988 106.851 264.078C106.693 264.198 106.576 264.363 106.515 264.551L103.466 271.05C103.165 271.567 102.963 272.137 102.871 272.728V272.728Z" fill="#F9C6D6"/>
<path d="M104.228 190.012C104.228 190.012 101.956 202.827 106.652 212.453C109.12 217.622 111.874 222.649 114.901 227.51C114.901 227.51 105.112 238.098 105.112 251.447C105.112 264.795 104.868 265.406 104.868 265.406L110.738 268.457L125.375 227.526C125.375 227.526 126.259 221.728 125.375 219.76C124.49 217.792 116.989 195.489 116.989 195.489L104.228 190.012Z" fill="#473F47"/>
<path d="M157.392 138.004C154.343 138.004 151.035 134.77 149.19 129.766C147.055 123.984 147.97 118.675 151.324 117.439C154.678 116.204 158.81 119.636 160.945 125.433C163.079 131.215 162.164 136.524 158.81 137.76C158.356 137.925 157.876 138.007 157.392 138.004ZM152.818 119.926C152.657 119.92 152.497 119.946 152.346 120.002C150.821 120.582 150.211 124.472 151.812 128.82C153.413 133.168 156.386 135.777 157.911 135.197C159.435 134.617 160.045 130.727 158.444 126.379C156.904 122.428 154.343 119.926 152.712 119.926H152.818Z" fill="#473F47"/>
<path d="M169.437 150.712C169.231 150.714 169.026 150.67 168.839 150.583C168.652 150.496 168.486 150.368 168.355 150.209L158.262 137.516C158.037 137.233 157.934 136.872 157.976 136.513C158.017 136.154 158.2 135.826 158.483 135.602C158.766 135.377 159.126 135.274 159.485 135.316C159.844 135.357 160.172 135.54 160.396 135.823L170.489 148.577C170.652 148.774 170.755 149.014 170.786 149.268C170.817 149.522 170.775 149.78 170.664 150.011C170.554 150.242 170.379 150.436 170.162 150.572C169.945 150.707 169.693 150.777 169.437 150.773V150.712Z" fill="#473F47"/>
<path d="M151.538 131.81C151.7 133.151 151.756 134.503 151.706 135.853C151.45 136.903 150.814 137.822 149.922 138.431C149.027 139.033 148.03 139.467 146.979 139.713C146.669 139.778 146.374 139.902 146.11 140.079C145.927 140.303 145.792 140.562 145.713 140.84C145.635 141.118 145.614 141.41 145.653 141.696V145.144C145.695 145.503 145.609 145.865 145.409 146.166C145.249 146.335 145.042 146.452 144.814 146.502C143.978 146.694 143.101 146.587 142.335 146.199C141.569 145.812 140.963 145.169 140.621 144.381C140.217 143.622 139.774 142.884 139.295 142.169C138.833 141.214 138.563 140.177 138.502 139.118C138.154 135.804 138.773 132.46 140.286 129.491C141.226 127.605 142.594 125.964 144.281 124.701C145.638 123.725 148.26 122.275 149.647 123.954C150.333 124.777 150.318 126.013 150.959 126.883C151.416 127.508 152.239 127.951 152.361 128.713C152.483 129.476 151.98 130.025 151.751 130.666C151.612 131.032 151.54 131.419 151.538 131.81V131.81Z" fill="#F9C6D6"/>
<path d="M161.662 138.798C161.669 138.727 161.669 138.655 161.662 138.584C161.673 137.79 161.97 137.026 162.5 136.433C162.767 136.145 163.124 135.957 163.513 135.901C163.902 135.845 164.298 135.926 164.635 136.128C164.894 136.311 165.092 136.616 165.397 136.754C165.702 136.891 166.357 136.754 166.678 137.12C166.998 137.486 166.906 137.791 167.059 138.111C167.211 138.432 167.653 138.722 167.943 139.027C169.376 140.552 167.791 143.344 167.226 144.915C166.373 147.265 165.534 149.63 164.833 152.04C163.99 152.162 163.13 151.995 162.393 151.567C162.126 151.406 161.889 151.199 161.692 150.957C161.458 150.541 161.312 150.08 161.265 149.605C161.218 149.13 161.27 148.65 161.418 148.195C161.598 147.504 161.649 146.785 161.57 146.075C161.364 145.307 161.11 144.553 160.808 143.817C160.594 143.192 160.411 142.398 160.899 141.956C161.094 141.835 161.277 141.697 161.448 141.544C161.568 141.363 161.632 141.151 161.631 140.934C161.692 140.217 161.631 139.5 161.662 138.798Z" fill="#F9C6D6"/>
<path d="M133.791 195.489L148.016 227.526L147.421 272.896L140.896 272.423C140.896 272.423 129.735 246.611 136.916 230.623C136.916 230.623 119.673 215.87 113.3 207.48C105.478 197.152 107.201 188.486 107.201 188.486L133.791 195.489Z" fill="#565056"/>
<path d="M140.377 140.384C142.123 140.787 143.817 141.391 145.424 142.184C150.882 144.702 151.126 149.019 153.047 154.191C154.267 157.484 155.656 160.713 157.209 163.863L159.847 148.271L167.135 151.231C167.135 151.231 167.866 174.237 162.561 177.334C159.115 179.317 154.282 176.998 151.156 175.396C150.013 174.817 148.107 173.062 146.903 172.894C144.57 172.574 144.417 175.35 142.329 176.968C140.979 177.757 139.685 178.639 138.456 179.607C137.298 180.938 136.431 182.497 135.91 184.184C135.323 186.271 135.153 188.453 135.407 190.606C135.569 191.326 135.577 192.072 135.43 192.796C135.283 193.519 134.984 194.202 134.553 194.802C133.951 195.313 133.216 195.641 132.434 195.747C129.838 196.121 127.199 196.09 124.612 195.656C119.484 195.252 114.408 194.342 109.458 192.94C107.656 192.383 105.893 191.705 104.182 190.911C103.811 190.753 103.471 190.531 103.176 190.255C102.864 189.891 102.659 189.447 102.581 188.974C101.895 185.831 104.106 182.872 105.311 179.927C106.073 177.913 106.317 175.717 107.003 173.672C107.899 171.591 109.057 169.633 110.449 167.845C111.47 166.319 111.973 164.366 113.071 162.719C115.816 158.498 118.874 154.49 122.219 150.728C124.17 148.302 126.345 146.065 128.714 144.046C131.414 141.647 134.877 140.284 138.487 140.201C139.121 140.21 139.753 140.271 140.377 140.384V140.384Z" fill="#399478"/>
<path d="M134.233 111.154C132.335 111.421 130.535 112.166 129.004 113.321C125.665 116.036 124.902 120.949 121.731 123.862C119.017 126.319 115.099 126.807 111.455 127.188C112.043 128.88 112.96 130.438 114.153 131.774C115.346 133.109 116.791 134.196 118.405 134.97C120.019 135.744 121.771 136.191 123.558 136.285C125.346 136.379 127.134 136.118 128.821 135.518L125.085 139.24C124.987 139.317 124.918 139.425 124.887 139.545C124.887 139.789 125.116 139.942 125.345 140.018C127.074 140.657 128.982 140.614 130.681 139.896C130.706 140.689 131.01 141.447 131.541 142.036C132.071 142.625 132.793 143.008 133.578 143.115C134.681 143.274 135.807 143.138 136.84 142.719C137.417 142.49 138.034 142.381 138.655 142.398C139.173 142.398 139.646 142.673 140.179 142.49C141.76 141.493 143.028 140.071 143.838 138.386C145.043 135.67 143.274 132.284 144.723 129.599C145.927 127.463 149.708 126.822 150.272 124.412C150.882 121.742 149.434 117.836 147.894 115.731C146.143 113.33 143.561 111.666 140.652 111.063C138.95 110.762 137.212 110.726 135.499 110.956L134.233 111.154Z" fill="#FC682D"/>
<path d="M113.529 269.234C113.203 269.15 112.86 269.154 112.536 269.245C112.212 269.336 111.918 269.511 111.684 269.753C111.166 270.516 111.852 271.752 111.211 272.453C111.019 272.616 110.795 272.737 110.554 272.808C110.312 272.879 110.058 272.899 109.809 272.865H106.256C105.31 272.919 104.361 272.842 103.436 272.636C103.22 272.565 102.991 272.539 102.765 272.56C102.611 272.609 102.475 272.701 102.372 272.826C102.269 272.95 102.204 273.102 102.185 273.262C102.155 273.584 102.202 273.908 102.323 274.208C102.546 274.853 102.876 275.457 103.298 275.993C103.414 276.151 103.559 276.286 103.725 276.389C103.924 276.468 104.137 276.505 104.35 276.496C106.439 276.496 108.528 276.496 110.617 276.405C112.141 276.298 113.498 276.084 114.947 275.977C117.025 275.969 119.087 275.608 121.045 274.91C121.302 274.822 121.538 274.684 121.739 274.503C121.941 274.322 122.104 274.102 122.219 273.857C122.281 273.631 122.29 273.393 122.245 273.163C122.2 272.933 122.102 272.716 121.96 272.53C121.674 272.167 121.322 271.862 120.923 271.63C119.781 270.901 118.531 270.361 117.218 270.028C116.007 269.683 114.775 269.418 113.529 269.234V269.234Z" fill="#565056"/>
<path d="M206.973 245.512C182.32 245.161 162.439 236.725 162.591 226.641C162.591 225.527 161.753 219.196 162.24 218.189C166.128 209.738 185.567 208.746 207.492 209.036C229.065 209.356 247.132 209.036 251.218 217.381C251.813 218.571 251.904 226.687 251.889 227.892C251.752 237.991 231.642 245.833 206.973 245.512Z" fill="#E8A825"/>
<path d="M251.574 219.517C251.718 209.449 231.843 201.002 207.183 200.649C182.522 200.296 162.414 208.17 162.27 218.238C162.126 228.305 182.001 236.753 206.661 237.106C231.322 237.459 251.43 229.584 251.574 219.517Z" fill="#F8C244"/>
<path d="M244.958 219.422C245.08 210.846 228.151 203.649 207.144 203.349C186.138 203.048 169.009 209.756 168.886 218.333C168.764 226.909 185.693 234.105 206.7 234.406C227.706 234.707 244.835 227.998 244.958 219.422Z" fill="#E8A825"/>
<path d="M182.93 217.06L189.029 217.151C189.148 216.358 189.458 215.606 189.93 214.958C190.403 214.31 191.024 213.785 191.742 213.429L195.783 214.054C195.082 214.372 194.474 214.862 194.013 215.478C193.551 216.094 193.253 216.816 193.145 217.578C193.145 219.333 195.584 220.629 199 220.629C200.322 220.724 201.649 220.531 202.889 220.062C204.129 219.593 205.252 218.86 206.181 217.914C207.525 216.514 209.168 215.436 210.987 214.76C212.806 214.084 214.754 213.827 216.685 214.008C221.686 214.008 225.483 215.534 226.367 217.853L232.465 217.944V219.47L226.596 219.378C226.506 220.039 226.265 220.671 225.892 221.223C225.519 221.776 225.025 222.236 224.446 222.567L220.482 221.896C221.042 221.585 221.522 221.147 221.882 220.617C222.242 220.087 222.473 219.48 222.555 218.845C222.555 216.968 219.826 216.19 217.402 216.16C216.098 216.086 214.795 216.315 213.595 216.828C212.394 217.342 211.328 218.126 210.48 219.119C207.919 221.606 204.748 222.842 199.32 222.842C194.532 222.842 190.004 221.316 189.089 218.799L182.823 218.707L182.93 217.06Z" fill="#F8C244"/>
<path d="M199.93 227.525C175.276 227.174 155.395 218.738 155.547 208.654C155.547 207.54 154.709 201.209 155.182 200.202C159.085 191.75 178.524 190.759 200.448 191.049C222.022 191.369 240.089 191.049 244.175 199.393C244.769 200.583 244.861 208.699 244.845 209.905C244.708 219.897 224.598 227.8 199.93 227.525Z" fill="#E8A825"/>
<path d="M244.538 201.455C244.682 191.387 224.807 182.939 200.147 182.586C175.486 182.233 155.378 190.108 155.234 200.176C155.09 210.243 174.965 218.691 199.625 219.044C224.286 219.397 244.394 211.522 244.538 201.455Z" fill="#F8C244"/>
<path d="M237.922 201.36C238.045 192.783 221.115 185.587 200.108 185.286C179.102 184.985 161.973 191.694 161.851 200.27C161.728 208.846 178.658 216.043 199.664 216.344C220.671 216.644 237.799 209.936 237.922 201.36Z" fill="#E8A825"/>
<path d="M175.886 198.997L181.985 199.089C182.105 198.296 182.414 197.543 182.886 196.895C183.359 196.247 183.98 195.723 184.698 195.366L188.739 195.992C188.038 196.31 187.43 196.8 186.969 197.416C186.508 198.031 186.209 198.754 186.101 199.516C186.101 201.27 188.541 202.567 191.956 202.567C193.286 202.675 194.623 202.49 195.874 202.027C197.125 201.563 198.259 200.831 199.198 199.882C200.54 198.48 202.183 197.4 204.002 196.723C205.822 196.047 207.77 195.792 209.703 195.976C214.703 195.976 218.5 197.502 219.384 199.821L225.483 199.912V201.438L219.613 201.346C219.523 202.007 219.282 202.639 218.909 203.191C218.537 203.744 218.042 204.204 217.463 204.535L213.499 203.864C214.059 203.553 214.539 203.115 214.899 202.585C215.259 202.055 215.49 201.448 215.572 200.813C215.572 198.951 212.843 198.173 210.419 198.143C209.115 198.069 207.813 198.298 206.612 198.812C205.411 199.325 204.345 200.109 203.497 201.102C200.936 203.589 197.765 204.825 192.337 204.825C187.55 204.825 183.021 203.299 182.107 200.782L175.84 200.69L175.886 198.997Z" fill="#F8C244"/>
<path d="M220.711 218.876C196.042 218.509 176.161 210.073 176.313 200.004C176.313 198.891 175.475 192.559 175.963 191.553C179.85 183.101 199.305 182.109 221.229 182.399C242.803 182.719 260.87 182.399 264.94 190.744C265.535 191.934 265.626 200.065 265.611 201.27C265.489 211.339 245.364 219.226 220.711 218.876Z" fill="#E8A825"/>
<path d="M265.312 192.882C265.456 182.815 245.581 174.367 220.921 174.014C196.26 173.661 176.152 181.536 176.008 191.603C175.864 201.671 195.738 210.118 220.399 210.472C245.06 210.825 265.168 202.95 265.312 192.882Z" fill="#F8C244"/>
<path d="M258.696 192.787C258.819 184.211 241.889 177.015 220.882 176.714C199.876 176.413 182.747 183.121 182.624 191.698C182.502 200.274 199.432 207.47 220.438 207.771C241.445 208.072 258.573 201.364 258.696 192.787Z" fill="#E8A825"/>
<path d="M196.652 190.408L202.75 190.5C202.869 189.706 203.178 188.953 203.65 188.305C204.123 187.657 204.745 187.133 205.464 186.777L209.504 187.418C208.806 187.741 208.198 188.232 207.736 188.847C207.273 189.462 206.969 190.181 206.852 190.942C206.852 192.681 209.291 193.917 212.721 193.993C214.051 194.101 215.388 193.917 216.639 193.453C217.89 192.989 219.025 192.257 219.963 191.308C221.305 189.909 222.945 188.831 224.762 188.155C226.578 187.478 228.523 187.221 230.453 187.403C235.469 187.403 239.265 188.928 240.134 191.263L246.233 191.354V192.88L240.378 192.788C240.282 193.449 240.038 194.079 239.662 194.632C239.287 195.184 238.792 195.644 238.213 195.977L234.249 195.305C234.809 194.993 235.29 194.555 235.652 194.025C236.015 193.496 236.249 192.89 236.338 192.254C236.338 190.393 233.594 189.615 231.185 189.569C229.881 189.499 228.58 189.73 227.38 190.243C226.179 190.756 225.113 191.538 224.263 192.529C221.686 195.031 218.53 196.266 213.087 196.266C208.3 196.266 203.787 194.741 202.872 192.224L196.606 192.132L196.652 190.408Z" fill="#F8C244"/>
<path d="M190.568 131.506C189.852 131.002 193.617 105.83 193.617 105.83L206.409 107.081L203.131 132.375L190.568 131.506Z" fill="#399478"/>
<path d="M216.137 133.992C215.42 133.473 221.808 95.8525 221.808 95.8525L234.6 97.1035L228.745 134.938L216.137 133.992Z" fill="#399478"/>
<path d="M241.704 136.464C241.003 135.96 251.203 68.8809 251.203 68.8809L263.995 70.1318L254.313 137.333L241.704 136.464Z" fill="#399478"/>
<path d="M267.273 138.95C266.572 138.447 274.591 87.9805 274.591 87.9805L287.383 89.2314L279.882 139.82L267.273 138.95Z" fill="#399478"/>
<path d="M280.126 146.762L179.957 139.485L180.049 138.875C181.085 130.881 190.233 60.7499 190.721 59.4531L191.819 59.804C191.438 61.3296 184.836 111.506 181.329 138.417L280.248 145.587L280.126 146.762Z" fill="#399478"/>
<path opacity="0.39" d="M322.51 169.554L324.858 157.212C318.373 157.358 311.996 155.539 306.562 151.994L311.136 143.802C316.16 147.227 322.119 149.012 328.197 148.913C337.223 148.913 344.191 143.832 345.517 136.876C346.843 129.919 342.681 126.044 334.067 122.413C322.114 117.623 315.253 112.055 317.296 101.467C319.232 91.3373 328.136 83.6026 340.165 81.6346L342.513 69.3232H350.335L347.972 81.1617C353.447 81.1126 358.832 82.5521 363.553 85.3265L358.903 93.5341C354.381 90.7116 349.121 89.299 343.794 89.4761C334.082 89.4761 329.371 95.1817 328.441 100.048C327.221 106.395 331.292 109.537 341.4 113.855C353.43 118.889 358.766 125.175 356.647 136.037C354.817 145.678 346.127 154.771 332.771 156.937L330.438 169.554H322.51Z" fill="#399478"/>
</g>
<defs>
<filter id="filter0_d_963_4751" x="0" y="0" width="464.161" height="353.419" filterUnits="userSpaceOnUse" color-interpolation-filters="sRGB">
<feFlood flood-opacity="0" result="BackgroundImageFix"/>
<feColorMatrix in="SourceAlpha" type="matrix" values="0 0 0 0 0 0 0 0 0 0 0 0 0 0 0 0 0 0 127 0" result="hardAlpha"/>
<feOffset/>
<feGaussianBlur stdDeviation="10"/>
<feComposite in2="hardAlpha" operator="out"/>
<feColorMatrix type="matrix" values="0 0 0 0 0 0 0 0 0 0 0 0 0 0 0 0 0 0 0.15 0"/>
<feBlend mode="normal" in2="BackgroundImageFix" result="effect1_dropShadow_963_4751"/>
<feBlend mode="normal" in="SourceGraphic" in2="effect1_dropShadow_963_4751" result="shape"/>
</filter>
<linearGradient id="paint0_linear_963_4751" x1="219.536" y1="326.337" x2="224.051" y2="329.706" gradientUnits="userSpaceOnUse">
<stop offset="0.01"/>
<stop offset="0.08" stop-opacity="0.69"/>
<stop offset="0.21" stop-opacity="0.32"/>
<stop offset="1" stop-opacity="0"/>
</linearGradient>
<linearGradient id="paint1_linear_963_4751" x1="-33276.6" y1="1030.26" x2="48084.8" y2="185118" gradientUnits="userSpaceOnUse">
<stop offset="0.01"/>
<stop offset="0.08" stop-opacity="0.69"/>
<stop offset="0.21" stop-opacity="0.32"/>
<stop offset="1" stop-opacity="0"/>
</linearGradient>
<linearGradient id="paint2_linear_963_4751" x1="61409.5" y1="23083.3" x2="65800.8" y2="59381.1" gradientUnits="userSpaceOnUse">
<stop offset="0.01"/>
<stop offset="0.08" stop-opacity="0.69"/>
<stop offset="0.21" stop-opacity="0.32"/>
<stop offset="1" stop-opacity="0"/>
</linearGradient>
<linearGradient id="paint3_linear_963_4751" x1="51106.7" y1="6549.08" x2="49969.7" y2="32299.4" gradientUnits="userSpaceOnUse">
<stop offset="0.01"/>
<stop offset="0.08" stop-opacity="0.69"/>
<stop offset="0.21" stop-opacity="0.32"/>
<stop offset="1" stop-opacity="0"/>
</linearGradient>
<linearGradient id="paint4_linear_963_4751" x1="18892.5" y1="8709" x2="29890.8" y2="18532.1" gradientUnits="userSpaceOnUse">
<stop offset="0.01"/>
<stop offset="0.08" stop-opacity="0.69"/>
<stop offset="0.21" stop-opacity="0.32"/>
<stop offset="1" stop-opacity="0"/>
</linearGradient>
<linearGradient id="paint5_linear_963_4751" x1="18656.8" y1="6633.19" x2="17896.8" y2="19439.2" gradientUnits="userSpaceOnUse">
<stop offset="0.01"/>
<stop offset="0.08" stop-opacity="0.69"/>
<stop offset="0.21" stop-opacity="0.32"/>
<stop offset="1" stop-opacity="0"/>
</linearGradient>
<linearGradient id="paint6_linear_963_4751" x1="8520.6" y1="4431.34" x2="8406.65" y2="5414.96" gradientUnits="userSpaceOnUse">
<stop offset="0.01"/>
<stop offset="0.08" stop-opacity="0.69"/>
<stop offset="0.21" stop-opacity="0.32"/>
<stop offset="1" stop-opacity="0"/>
</linearGradient>
<linearGradient id="paint7_linear_963_4751" x1="60799.7" y1="8434.1" x2="73603.2" y2="154997" gradientUnits="userSpaceOnUse">
<stop offset="0.01"/>
<stop offset="0.08" stop-opacity="0.69"/>
<stop offset="0.21" stop-opacity="0.32"/>
<stop offset="1" stop-opacity="0"/>
</linearGradient>
</defs>
</svg>
