<svg width="670" height="509" viewBox="0 0 670 509" fill="none" xmlns="http://www.w3.org/2000/svg">
<g clip-path="url(#clip0_891_4662)">
<path fill-rule="evenodd" clip-rule="evenodd" d="M302.195 55.8021C351.584 70.0975 388.914 99.2401 433.923 124.097C514.442 168.566 638.803 167.47 664.377 255.826C690.284 345.331 621.796 448.039 541.243 494.874C469.125 536.804 385.61 467.343 302.194 466.402C220.817 465.483 135.199 536.142 68.4816 489.539C-0.644425 441.253 1.68581 340.141 0.734823 255.826C-0.230724 170.22 -8.18715 64.1135 63.1494 16.7805C133.086 -29.6233 221.573 32.467 302.195 55.8021Z" fill="#EFF7F5"/>
<g filter="url(#filter0_d_891_4662)">
<g clip-path="url(#clip1_891_4662)">
<path d="M283.92 81.9629C299.225 73.1263 324.04 73.1263 339.346 81.9629L556.718 207.463C572.023 216.299 572.023 230.626 556.718 239.463L339.346 364.963C324.04 373.799 299.225 373.799 283.92 364.963L66.5476 239.463C51.2423 230.626 51.2423 216.299 66.5476 207.463L283.92 81.9629Z" fill="white"/>
<path d="M469.947 231.43C417.037 196.689 431.05 170.399 431.76 169.411C434.35 165.316 432 160.605 426.738 157.288C421.234 154.11 413.084 153.038 405.983 154.249C404.022 154.514 358.494 162.889 298.071 132.197C293.575 129.881 286.934 129.96 282.819 132.336L204.388 177.618C136.366 216.89 191.953 285.041 194.496 287.906C195.254 288.624 195.763 289.197 196.764 289.775C197.764 290.353 198.757 290.646 200 291.084C204.963 292.552 323.004 324.645 391.026 285.373L469.214 240.231C473.58 237.999 473.716 234.165 469.947 231.43ZM375.022 276.413C324.187 305.762 232.568 285.57 212.99 280.695C204.548 269.392 169.573 216.496 220.408 187.146L291.819 145.917C348.424 172.169 395.333 169.064 409.309 167.35C406.099 175.56 400.963 202.503 446.433 235.184L375.022 276.413Z" fill="#399478"/>
<path d="M367.665 199.769L372.022 197.253C375.895 195.017 375.789 191.322 371.786 189.011C367.784 186.7 361.384 186.639 357.511 188.875L353.154 191.391C348.457 190.636 343.292 190.729 338.903 192.108L315.377 178.246C314.126 177.524 311.907 177.36 310.439 177.631L259.278 186.946C257.809 187.216 256.349 187.771 255.881 188.618C248.474 196.361 249.952 205.041 259.959 210.819C269.967 216.597 285.001 217.45 298.412 213.174C299.631 212.759 300.841 212.061 301.309 211.213L312.95 188.025L329.212 197.414C327.316 199.953 326.905 202.79 328.212 205.502L283.429 231.357C274.957 236.249 261.432 236.547 251.95 231.91L236.987 224.949C235.244 224.222 233.033 224.343 231.58 225.182L223.834 229.654C222.382 230.492 222.18 232.053 223.932 233.064L294.984 274.086C296.485 274.953 299.197 275.121 300.891 274.143L308.637 269.67C310.09 268.832 310.299 267.555 309.04 266.549L296.991 258.194C289.203 252.58 289.718 244.771 297.948 240.019L342.973 214.024C347.67 214.779 352.585 214.542 356.982 213.447L373.244 222.836L333.591 230.13C332.122 230.4 330.662 230.955 330.194 231.803C322.787 239.546 324.265 248.225 334.272 254.003C344.28 259.781 359.314 260.634 372.725 256.358C373.944 255.943 375.154 255.245 375.622 254.397L391.757 224.859C391.966 223.583 391.692 222.585 390.433 221.579L366.423 207.997C368.811 205.462 368.972 202.48 367.665 199.769ZM295.901 202.779L273.384 189.779L306.429 183.701L295.901 202.779ZM370.706 245.968L348.189 232.968L381.234 226.89L370.706 245.968Z" fill="#399478"/>
</g>
</g>
</g>
<defs>
<filter id="filter0_d_891_4662" x="-25.1652" y="65.9629" width="673.596" height="479" filterUnits="userSpaceOnUse" color-interpolation-filters="sRGB">
<feFlood flood-opacity="0" result="BackgroundImageFix"/>
<feColorMatrix in="SourceAlpha" type="matrix" values="0 0 0 0 0 0 0 0 0 0 0 0 0 0 0 0 0 0 127 0" result="hardAlpha"/>
<feOffset dy="100"/>
<feGaussianBlur stdDeviation="32"/>
<feComposite in2="hardAlpha" operator="out"/>
<feColorMatrix type="matrix" values="0 0 0 0 0.223529 0 0 0 0 0.580392 0 0 0 0 0.470588 0 0 0 0.12 0"/>
<feBlend mode="normal" in2="BackgroundImageFix" result="effect1_dropShadow_891_4662"/>
<feBlend mode="normal" in="SourceGraphic" in2="effect1_dropShadow_891_4662" result="shape"/>
</filter>
<clipPath id="clip0_891_4662">
<rect width="669.945" height="508.317" fill="white"/>
</clipPath>
<clipPath id="clip1_891_4662">
<path d="M283.92 81.9629C299.225 73.1263 324.04 73.1263 339.346 81.9629L556.718 207.463C572.023 216.299 572.023 230.626 556.718 239.463L339.346 364.963C324.04 373.799 299.225 373.799 283.92 364.963L66.5476 239.463C51.2423 230.626 51.2423 216.299 66.5476 207.463L283.92 81.9629Z" fill="white"/>
</clipPath>
</defs>
</svg>
