<svg width="541" height="408" viewBox="0 0 541 408" fill="none" xmlns="http://www.w3.org/2000/svg">
<path d="M498.32 246.894C496.155 242.826 493.873 238.824 491.474 234.888C489.218 231.135 486.89 227.463 484.492 223.873C474.048 208.206 462.445 192.782 457.338 174.658C451.026 152.232 457.338 127.365 450.568 105.687C444.82 86.8308 427.302 67.1051 414.099 53.1461C384.902 22.1159 345.094 -0.554151 301.581 0.0103117C293.21 0.162577 284.867 1.01478 276.638 2.55803C260.339 5.51764 244.346 10.6741 228.612 15.9984C188.758 29.515 148.797 44.5724 114.615 69.1494C80.4324 93.7264 52.2418 129.105 44.4814 170.478C40.4564 191.836 41.9048 214.354 34.983 235.01C26.6889 259.724 8.27132 275.956 2.41672 301.632C-4.32217 331.182 2.72164 366.103 27.4665 383.571C40.3497 392.648 56.4346 396.035 72.0011 397.88C111.251 402.429 151.018 398.602 188.682 386.652C209.92 379.894 230.944 370.496 253.235 370.405C277.232 370.298 299.721 380.992 322.102 389.658C356.346 402.93 393.471 411.931 429.727 406.119C465.982 400.306 501.141 377.133 513.063 342.426C523.903 310.877 514.359 276.994 498.32 246.894Z" fill="#EFF7F5"/>
<path d="M286.554 363.605L287.561 363.743C288.292 364.322 286.249 364.444 286.554 363.605Z" fill="url(#paint0_linear_358_2375)"/>
<path d="M509.974 246.976C502.473 250.027 494.591 252.895 489.727 256.327L374.602 337.244C365.771 343.62 356.572 349.468 347.052 354.757C339.291 358.953 334.855 366.962 325.463 369.098C320.794 369.909 316.013 369.826 311.375 368.854C303.805 367.618 296.357 365.724 289.116 363.194C288.216 362.889 286.966 362.706 286.569 363.56C219.485 354.407 155.314 329.997 88.7937 317.32C88.0169 317.176 87.3079 316.783 86.7736 316.201C86.2392 315.619 85.9084 314.879 85.831 314.092C85.7536 313.305 85.9338 312.515 86.3444 311.84C86.755 311.164 87.3738 310.641 88.1076 310.348C93.6754 308.375 99.4265 306.965 105.275 306.137C115.947 304.169 126.483 302.247 137.125 300.508C158.572 296.79 180.227 294.386 201.967 293.307C238.071 291.782 274.494 295.641 310.217 290.043C344.109 284.779 376.111 271.186 407.687 257.655C415.31 254.39 423.055 251.003 429.031 245.267C433.697 240.782 437.463 234.832 443.424 231.872C449.385 228.913 457.146 229.355 463.793 229.66C477.011 230.561 490.156 232.324 503.144 234.939C505.573 238.895 507.85 242.907 509.974 246.976Z" fill="url(#paint1_linear_358_2375)"/>
<path d="M91.767 294.634L242.462 229.034C245.724 227.388 249.41 226.776 253.028 227.28L439.415 243.131C442.982 243.634 442.342 258.982 439.415 261.438L329.366 355.291C326.043 358.205 322.07 360.279 317.781 361.341C313.492 362.403 309.011 362.421 304.713 361.393L93.0935 309.92C90.3948 309.264 89.2361 295.9 91.767 294.634Z" fill="#399478"/>
<path d="M91.767 294.634L242.462 229.034C245.724 227.388 249.41 226.776 253.028 227.28L439.415 243.131C442.982 243.634 442.342 258.982 439.415 261.438L329.366 355.291C326.043 358.205 322.07 360.279 317.781 361.341C313.492 362.403 309.011 362.421 304.713 361.393L93.0935 309.92C90.3948 309.264 89.2361 295.9 91.767 294.634Z" fill="url(#paint2_linear_358_2375)"/>
<path d="M439.46 250.576L329.366 344.338C326.053 347.266 322.087 349.355 317.799 350.43C313.512 351.506 309.029 351.535 304.728 350.517L93.078 299.044C90.3794 298.388 90.0287 294.116 92.5444 292.85L150.587 260.096L165.834 251.522L212.198 225.374C215.456 223.732 219.135 223.12 222.748 223.619L437.57 242.399C441.137 242.826 442.342 248.12 439.46 250.576Z" fill="#399478"/>
<path d="M222.733 228.806L419.106 257.868L358.67 306.991L157.113 266.182L222.733 228.806Z" fill="url(#paint3_linear_358_2375)"/>
<path d="M301.572 280.446C309.921 278.64 317.905 275.437 325.189 270.972C327.201 269.691 329.412 267.387 328.238 265.282C327.445 263.756 325.494 263.345 324.884 261.743C327.552 260.66 330.479 261.163 332.903 259.073C335.327 256.983 335.587 252.971 333.01 251.445C335.031 251.31 336.984 250.659 338.682 249.553C339.508 248.978 340.122 248.146 340.428 247.186C340.734 246.226 340.715 245.192 340.374 244.244C339.444 242.307 337.005 241.758 334.901 241.422C331.954 240.842 328.952 240.602 325.951 240.705C322.517 241.01 319.19 242.051 316.193 243.756C313.388 245.282 311.116 247.936 308.326 249.34C302.624 252.208 295.138 251.887 289.009 253.23C284.435 254.222 280.014 255.945 275.516 257.303C271.018 258.661 266.749 259.637 262.313 260.614C251.579 262.973 240.82 265.211 230.036 267.326C230.737 272.132 235.875 274.786 240.373 276.602C246.616 279.339 253.14 281.386 259.828 282.704C265.067 283.461 270.367 283.701 275.653 283.421C284.369 283.269 293.049 282.272 301.572 280.446Z" fill="url(#paint4_linear_358_2375)"/>
<path d="M202.181 278.356L283.109 294.726L241.257 328.899L157.113 309.997L202.181 278.356Z" fill="url(#paint5_linear_358_2375)"/>
<path d="M161.702 315.901C162.528 317.567 163.699 319.039 165.137 320.217C166.575 321.395 168.247 322.254 170.042 322.736C175.988 324.17 210.643 333.049 210.643 333.049C210.643 333.049 216.284 333.72 219.41 329.998L161.702 315.901Z" fill="url(#paint6_linear_358_2375)"/>
<path d="M216.559 223.604L438.18 255.153C439.805 255.387 441.459 254.987 442.798 254.036C444.137 253.085 445.06 251.655 445.376 250.042L476.997 90.2838C477.336 88.5786 477.311 86.8211 476.926 85.126C476.54 83.4309 475.802 81.8361 474.759 80.4456C473.716 79.0552 472.392 77.9002 470.873 77.0561C469.354 76.212 467.674 75.6977 465.943 75.5467L247.082 56.2787C243.86 55.9963 240.656 56.988 238.157 59.0413C235.657 61.0946 234.061 64.046 233.711 67.2628L216.559 223.604Z" fill="#399478"/>
<path d="M216.559 223.604L437.631 255.076C439.417 255.33 441.232 254.889 442.704 253.845C444.175 252.801 445.191 251.233 445.544 249.462L477.043 90.2838C477.381 88.5786 477.357 86.8212 476.971 85.126C476.586 83.4309 475.847 81.8361 474.804 80.4456C473.762 79.0552 472.437 77.9002 470.919 77.0561C469.4 76.212 467.72 75.6977 465.989 75.5467L247.082 56.2787C243.86 55.9963 240.656 56.988 238.157 59.0413C235.657 61.0946 234.061 64.046 233.711 67.2628L216.559 223.604Z" fill="url(#paint7_linear_358_2375)"/>
<path d="M434.216 245.984L465.699 84.7762L242.477 64.1504L224.73 216.784L434.216 245.984Z" fill="white"/>
<path d="M207.334 312.865C207.291 313.288 207.339 313.716 207.476 314.118C207.613 314.521 207.835 314.89 208.127 315.199C208.446 315.423 208.81 315.574 209.194 315.641C210.198 315.841 211.224 315.903 212.244 315.824C214.136 315.692 216.016 315.422 217.87 315.016L221.071 314.406C221.272 314.393 221.469 314.341 221.649 314.251C221.83 314.162 221.991 314.039 222.123 313.887C222.214 313.685 222.245 313.461 222.212 313.242C222.18 313.023 222.086 312.818 221.94 312.651C221.389 312.024 220.678 311.56 219.882 311.309C217.967 310.53 215.994 309.903 213.982 309.432C213.648 309.382 213.33 309.257 213.052 309.066C212.655 308.715 212.579 308.12 212.305 307.647C212.028 307.251 211.639 306.946 211.188 306.772C210.737 306.598 210.245 306.563 209.774 306.671C208.859 306.854 207.533 307.479 207.319 308.486C207.164 309.942 207.169 311.41 207.334 312.865Z" fill="#F9C6D6"/>
<path d="M217.641 309.814C217.316 309.729 216.975 309.731 216.651 309.82C216.328 309.908 216.033 310.08 215.796 310.317C215.278 311.095 215.964 312.331 215.323 313.033C215.13 313.193 214.905 313.312 214.664 313.383C214.423 313.453 214.17 313.475 213.921 313.445H210.368C209.422 313.484 208.475 313.407 207.548 313.216C207.333 313.137 207.103 313.111 206.877 313.14C206.723 313.188 206.587 313.281 206.484 313.405C206.381 313.53 206.316 313.681 206.298 313.841C206.26 314.163 206.308 314.489 206.435 314.787C206.658 315.433 206.988 316.036 207.411 316.572C207.522 316.734 207.668 316.87 207.837 316.969C208.037 317.043 208.249 317.079 208.463 317.076C210.551 317.076 212.64 317.076 214.729 316.984C216.177 316.877 217.61 316.664 219.059 316.542C221.136 316.538 223.198 316.182 225.157 315.489C225.414 315.402 225.65 315.263 225.852 315.083C226.053 314.902 226.216 314.682 226.331 314.436C226.393 314.21 226.402 313.973 226.357 313.743C226.312 313.512 226.214 313.296 226.072 313.109C225.79 312.743 225.437 312.437 225.035 312.209C223.894 311.481 222.643 310.94 221.33 310.607C220.121 310.255 218.888 309.99 217.641 309.814Z" fill="#565056"/>
<path d="M168.685 308.96C168.67 309.035 168.67 309.113 168.685 309.189C168.807 311.996 172.527 312.072 174.524 311.965C176.421 311.831 178.305 311.566 180.165 311.172L183.352 310.562C183.554 310.547 183.751 310.492 183.931 310.401C184.112 310.309 184.273 310.182 184.404 310.028C184.495 309.828 184.526 309.607 184.494 309.39C184.461 309.173 184.366 308.971 184.221 308.807C183.676 308.177 182.97 307.707 182.178 307.449C180.455 306.791 178.699 306.22 176.918 305.741C175.393 305.268 176.659 303.086 176.826 301.927C176.903 301.699 176.903 301.453 176.826 301.225C176.655 300.97 176.394 300.79 176.094 300.722C175.171 300.405 174.204 300.23 173.228 300.203C173.034 300.182 172.837 300.219 172.664 300.31C172.506 300.429 172.389 300.594 172.329 300.783L169.279 307.282C168.978 307.799 168.776 308.368 168.685 308.96Z" fill="#F9C6D6"/>
<path d="M170.042 226.243C170.042 226.243 167.77 239.058 172.466 248.684C174.933 253.853 177.687 258.88 180.714 263.742C180.714 263.742 170.926 274.329 170.926 287.678C170.926 301.027 170.682 301.637 170.682 301.637L176.552 304.688L191.188 263.757C191.188 263.757 192.073 257.96 191.188 255.992C190.304 254.024 182.803 231.72 182.803 231.72L170.042 226.243Z" fill="#473F47"/>
<path d="M223.206 174.236C220.156 174.236 216.848 171.001 215.003 165.998C212.869 160.216 213.784 154.907 217.138 153.671C220.492 152.435 224.624 155.868 226.758 161.665C228.893 167.447 227.978 172.756 224.624 173.992C224.169 174.156 223.689 174.239 223.206 174.236ZM218.632 156.158C218.471 156.152 218.31 156.178 218.159 156.234C216.635 156.814 216.025 160.704 217.626 165.052C219.226 169.4 222.199 172.008 223.724 171.429C225.249 170.849 225.859 166.959 224.258 162.611C222.718 158.659 220.156 156.158 218.525 156.158H218.632Z" fill="#473F47"/>
<path d="M235.251 186.944C235.044 186.946 234.84 186.902 234.652 186.815C234.465 186.727 234.3 186.6 234.168 186.44L224.075 173.748C223.851 173.464 223.748 173.104 223.789 172.744C223.831 172.385 224.013 172.058 224.296 171.833C224.579 171.608 224.94 171.506 225.299 171.547C225.657 171.589 225.985 171.771 226.21 172.054L236.303 184.808C236.465 185.006 236.568 185.246 236.6 185.5C236.631 185.754 236.588 186.012 236.478 186.243C236.367 186.473 236.193 186.668 235.975 186.803C235.758 186.938 235.506 187.008 235.251 187.005V186.944Z" fill="#473F47"/>
<path d="M217.351 168.042C217.514 169.383 217.57 170.735 217.519 172.085C217.263 173.135 216.628 174.053 215.735 174.663C214.84 175.265 213.843 175.699 212.793 175.944C212.482 176.009 212.187 176.133 211.924 176.31C211.741 176.534 211.605 176.793 211.527 177.071C211.448 177.35 211.427 177.641 211.466 177.928V181.375C211.509 181.734 211.422 182.096 211.222 182.397C211.062 182.567 210.855 182.683 210.628 182.733C209.791 182.925 208.914 182.818 208.148 182.431C207.383 182.044 206.776 181.4 206.435 180.613C206.03 179.853 205.587 179.115 205.109 178.4C204.646 177.446 204.377 176.409 204.316 175.349C203.967 172.035 204.587 168.691 206.1 165.723C207.04 163.836 208.407 162.196 210.094 160.933C211.451 159.956 214.073 158.507 215.461 160.185C216.147 161.009 216.132 162.245 216.772 163.114C217.229 163.74 218.053 164.182 218.175 164.945C218.297 165.708 217.794 166.257 217.565 166.898C217.425 167.263 217.353 167.651 217.351 168.042Z" fill="#F9C6D6"/>
<path d="M227.475 175.029C227.482 174.958 227.482 174.887 227.475 174.816C227.486 174.021 227.784 173.257 228.314 172.665C228.58 172.376 228.938 172.188 229.327 172.132C229.715 172.077 230.111 172.157 230.448 172.36C230.707 172.543 230.905 172.848 231.21 172.985C231.515 173.122 232.171 172.985 232.491 173.351C232.811 173.717 232.72 174.022 232.872 174.343C233.025 174.663 233.467 174.953 233.756 175.258C235.19 176.784 233.604 179.576 233.04 181.147C232.186 183.496 231.348 185.861 230.646 188.271C229.803 188.393 228.943 188.227 228.207 187.798C227.94 187.637 227.702 187.431 227.505 187.188C227.271 186.772 227.126 186.312 227.078 185.836C227.031 185.361 227.083 184.881 227.231 184.427C227.411 183.735 227.463 183.017 227.384 182.306C227.178 181.538 226.923 180.784 226.621 180.049C226.408 179.423 226.225 178.63 226.713 178.187C226.907 178.066 227.091 177.928 227.262 177.775C227.381 177.595 227.445 177.382 227.444 177.165C227.505 176.448 227.444 175.731 227.475 175.029Z" fill="#F9C6D6"/>
<path d="M199.604 231.72L213.829 263.757L213.235 309.128L206.709 308.655C206.709 308.655 195.549 282.842 202.73 266.854C202.73 266.854 185.486 252.102 179.113 243.711C171.292 233.383 173.015 224.718 173.015 224.718L199.604 231.72Z" fill="#565056"/>
<path d="M206.191 176.616C207.937 177.019 209.63 177.623 211.237 178.416C216.695 180.933 216.939 185.25 218.86 190.422C220.08 193.716 221.47 196.944 223.023 200.094L225.66 184.503L232.948 187.463C232.948 187.463 233.68 210.468 228.374 213.565C224.928 215.548 220.095 213.23 216.97 211.628C215.826 211.048 213.921 209.294 212.716 209.126C210.383 208.805 210.231 211.582 208.142 213.199C206.792 213.988 205.498 214.87 204.27 215.838C203.111 217.17 202.244 218.729 201.723 220.415C201.137 222.502 200.966 224.684 201.22 226.838C201.383 227.558 201.39 228.304 201.243 229.027C201.096 229.75 200.797 230.434 200.367 231.033C199.765 231.544 199.029 231.873 198.247 231.979C195.651 232.353 193.013 232.322 190.426 231.887C185.297 231.483 180.221 230.574 175.271 229.172C173.469 228.615 171.707 227.937 169.996 227.143C169.625 226.984 169.284 226.762 168.99 226.487C168.678 226.122 168.472 225.679 168.395 225.205C167.709 222.063 169.92 219.103 171.124 216.159C171.886 214.145 172.13 211.948 172.816 209.904C173.713 207.823 174.871 205.864 176.262 204.076C177.284 202.55 177.787 200.598 178.884 198.95C181.629 194.73 184.687 190.721 188.032 186.959C189.984 184.534 192.158 182.296 194.527 180.277C197.227 177.878 200.69 176.516 204.3 176.433C204.934 176.442 205.567 176.503 206.191 176.616Z" fill="#399478"/>
<path d="M200.047 147.386C198.148 147.652 196.348 148.398 194.817 149.552C191.478 152.268 190.716 157.18 187.545 160.094C184.831 162.55 180.912 163.038 177.269 163.42C177.857 165.111 178.774 166.67 179.967 168.005C181.159 169.341 182.604 170.427 184.219 171.201C185.833 171.976 187.584 172.423 189.372 172.517C191.159 172.611 192.948 172.35 194.634 171.749L190.899 175.472C190.801 175.549 190.731 175.656 190.701 175.777C190.701 176.021 190.929 176.173 191.158 176.25C192.888 176.889 194.796 176.845 196.494 176.128C196.519 176.92 196.824 177.678 197.354 178.267C197.884 178.857 198.606 179.239 199.391 179.347C200.495 179.506 201.62 179.369 202.654 178.95C203.231 178.721 203.848 178.612 204.468 178.63C204.986 178.63 205.459 178.904 205.993 178.721C207.574 177.725 208.842 176.302 209.652 174.617C210.856 171.902 209.088 168.515 210.536 165.83C211.741 163.694 215.522 163.054 216.086 160.643C216.696 157.973 215.247 154.068 213.707 151.963C211.956 149.561 209.375 147.897 206.465 147.294C204.763 146.993 203.025 146.957 201.312 147.188L200.047 147.386Z" fill="#FC682D"/>
<path d="M179.342 305.466C179.016 305.382 178.674 305.385 178.35 305.476C178.026 305.567 177.732 305.743 177.497 305.985C176.979 306.747 177.665 307.983 177.025 308.685C176.833 308.848 176.609 308.969 176.367 309.04C176.125 309.111 175.872 309.13 175.622 309.097H172.07C171.123 309.151 170.174 309.074 169.249 308.868C169.033 308.797 168.805 308.771 168.578 308.792C168.424 308.84 168.288 308.933 168.185 309.057C168.082 309.182 168.018 309.333 167.999 309.493C167.968 309.815 168.015 310.14 168.136 310.439C168.359 311.085 168.689 311.688 169.112 312.224C169.227 312.383 169.372 312.517 169.539 312.621C169.737 312.7 169.95 312.736 170.164 312.728C172.253 312.728 174.341 312.728 176.43 312.636C177.955 312.529 179.312 312.316 180.76 312.209C182.839 312.2 184.901 311.839 186.859 311.141C187.115 311.054 187.351 310.915 187.553 310.735C187.755 310.554 187.918 310.334 188.033 310.088C188.094 309.862 188.103 309.625 188.058 309.394C188.013 309.164 187.916 308.948 187.773 308.761C187.487 308.399 187.136 308.094 186.737 307.861C185.595 307.133 184.344 306.592 183.032 306.259C181.821 305.914 180.588 305.649 179.342 305.466Z" fill="#565056"/>
<path d="M272.787 281.744C248.133 281.393 228.252 272.956 228.405 262.872C228.405 261.759 227.566 255.428 228.054 254.421C231.942 245.969 251.381 244.977 273.305 245.267C294.879 245.588 312.946 245.267 317.032 253.612C317.626 254.802 317.718 262.918 317.702 264.123C317.565 274.223 297.455 282.064 272.787 281.744Z" fill="#E8A825"/>
<path d="M317.388 255.748C317.532 245.681 297.657 237.233 272.996 236.88C248.336 236.527 228.227 244.402 228.083 254.469C227.939 264.537 247.814 272.985 272.475 273.338C297.135 273.691 317.244 265.816 317.388 255.748Z" fill="#F8C244"/>
<path d="M310.771 255.653C310.894 247.077 293.964 239.881 272.958 239.58C251.951 239.279 234.822 245.988 234.7 254.564C234.577 263.14 251.507 270.337 272.513 270.638C293.52 270.938 310.649 264.23 310.771 255.653Z" fill="#E8A825"/>
<path d="M248.743 253.291L254.842 253.383C254.962 252.59 255.271 251.837 255.744 251.189C256.216 250.541 256.838 250.017 257.556 249.66L261.596 250.286C260.896 250.604 260.287 251.094 259.826 251.709C259.365 252.325 259.067 253.048 258.959 253.81C258.959 255.564 261.398 256.861 264.813 256.861C266.135 256.956 267.462 256.762 268.702 256.293C269.942 255.824 271.065 255.092 271.994 254.145C273.339 252.746 274.982 251.668 276.8 250.991C278.619 250.315 280.567 250.058 282.499 250.24C287.5 250.24 291.296 251.765 292.18 254.084L298.279 254.176V255.701L292.409 255.61C292.319 256.271 292.078 256.902 291.706 257.455C291.333 258.008 290.838 258.468 290.259 258.798L286.295 258.127C286.856 257.817 287.335 257.379 287.696 256.849C288.056 256.319 288.286 255.712 288.369 255.076C288.369 253.2 285.64 252.421 283.215 252.391C281.912 252.318 280.609 252.546 279.408 253.06C278.208 253.573 277.142 254.357 276.294 255.351C273.732 257.837 270.561 259.073 265.133 259.073C260.346 259.073 255.818 257.547 254.903 255.03L248.637 254.939L248.743 253.291Z" fill="#F8C244"/>
<path d="M265.743 263.757C241.09 263.406 221.208 254.969 221.361 244.885C221.361 243.771 220.522 237.44 220.995 236.433C224.898 227.982 244.337 226.99 266.261 227.28C287.835 227.6 305.902 227.28 309.988 235.625C310.583 236.815 310.674 244.931 310.659 246.136C310.522 256.129 290.412 264.031 265.743 263.757Z" fill="#E8A825"/>
<path d="M310.351 237.686C310.495 227.618 290.621 219.171 265.96 218.818C241.3 218.465 221.191 226.34 221.047 236.407C220.903 246.474 240.778 254.922 265.439 255.275C290.099 255.628 310.207 247.753 310.351 237.686Z" fill="#F8C244"/>
<path d="M303.736 237.591C303.858 229.015 286.929 221.818 265.922 221.517C244.915 221.217 227.787 227.925 227.664 236.501C227.541 245.078 244.471 252.274 265.478 252.575C286.484 252.876 303.613 246.167 303.736 237.591Z" fill="#E8A825"/>
<path d="M241.7 235.229L247.798 235.32C247.918 234.527 248.227 233.775 248.7 233.127C249.172 232.479 249.794 231.954 250.512 231.598L254.552 232.223C253.852 232.541 253.243 233.031 252.782 233.647C252.321 234.263 252.023 234.985 251.915 235.747C251.915 237.502 254.354 238.798 257.769 238.798C259.099 238.906 260.436 238.722 261.687 238.258C262.938 237.794 264.073 237.062 265.011 236.113C266.354 234.711 267.997 233.631 269.816 232.955C271.635 232.278 273.584 232.023 275.516 232.208C280.517 232.208 284.313 233.733 285.197 236.052L291.296 236.144V237.669L285.426 237.578C285.336 238.239 285.096 238.87 284.723 239.423C284.35 239.976 283.855 240.435 283.276 240.766L279.312 240.095C279.873 239.785 280.352 239.347 280.713 238.817C281.073 238.287 281.303 237.68 281.386 237.044C281.386 235.183 278.657 234.405 276.233 234.374C274.929 234.301 273.626 234.53 272.425 235.043C271.225 235.556 270.159 236.34 269.311 237.334C266.749 239.82 263.578 241.056 258.15 241.056C253.363 241.056 248.835 239.531 247.92 237.013L241.654 236.922L241.7 235.229Z" fill="#F8C244"/>
<path d="M286.524 255.107C261.856 254.741 241.974 246.304 242.127 236.236C242.127 235.122 241.288 228.791 241.776 227.784C245.664 219.332 265.118 218.341 287.043 218.631C308.616 218.951 326.683 218.631 330.754 226.975C331.348 228.165 331.44 236.297 331.425 237.502C331.303 247.571 311.178 255.458 286.524 255.107Z" fill="#E8A825"/>
<path d="M331.125 229.114C331.269 219.046 311.395 210.599 286.734 210.245C262.073 209.892 241.965 217.767 241.821 227.835C241.677 237.902 261.552 246.35 286.213 246.703C310.873 247.056 330.981 239.181 331.125 229.114Z" fill="#F8C244"/>
<path d="M324.509 229.019C324.632 220.442 307.702 213.246 286.696 212.945C265.689 212.644 248.561 219.353 248.438 227.929C248.315 236.506 265.245 243.702 286.252 244.003C307.258 244.304 324.387 237.595 324.509 229.019Z" fill="#E8A825"/>
<path d="M262.465 226.64L268.564 226.731C268.682 225.938 268.991 225.185 269.464 224.537C269.936 223.888 270.559 223.364 271.278 223.009L275.318 223.65C274.62 223.973 274.012 224.463 273.549 225.078C273.086 225.693 272.783 226.413 272.665 227.174C272.665 228.913 275.104 230.148 278.535 230.225C279.865 230.333 281.202 230.148 282.453 229.685C283.704 229.221 284.838 228.489 285.777 227.54C287.119 226.14 288.759 225.062 290.575 224.386C292.391 223.71 294.337 223.453 296.266 223.634C301.282 223.634 305.079 225.16 305.948 227.494L312.046 227.586V229.111L306.192 229.02C306.096 229.68 305.851 230.311 305.476 230.863C305.101 231.415 304.605 231.875 304.027 232.208L300.063 231.537C300.623 231.224 301.103 230.786 301.466 230.257C301.828 229.727 302.063 229.121 302.151 228.486C302.151 226.624 299.407 225.846 296.998 225.801C295.695 225.731 294.393 225.961 293.193 226.474C291.993 226.987 290.927 227.77 290.076 228.76C287.5 231.262 284.344 232.498 278.901 232.498C274.113 232.498 269.6 230.972 268.686 228.455L262.419 228.364L262.465 226.64Z" fill="#F8C244"/>
<path d="M256.382 167.737C255.665 167.234 259.431 142.062 259.431 142.062L272.223 143.313L268.945 168.607L256.382 167.737Z" fill="#399478"/>
<path d="M281.95 170.223C281.234 169.705 287.622 132.084 287.622 132.084L300.413 133.335L294.559 171.169L281.95 170.223Z" fill="#399478"/>
<path d="M307.518 172.695C306.817 172.192 317.016 105.112 317.016 105.112L329.808 106.363L320.127 173.565L307.518 172.695Z" fill="#399478"/>
<path d="M333.086 175.181C332.385 174.678 340.405 124.212 340.405 124.212L353.196 125.463L345.695 176.051L333.086 175.181Z" fill="#399478"/>
<path d="M345.939 182.993L245.771 175.716L245.862 175.106C246.899 167.112 256.047 96.9813 256.534 95.6846L257.632 96.0354C257.251 97.561 250.649 147.737 247.143 174.648L346.061 181.819L345.939 182.993Z" fill="#399478"/>
<path opacity="0.39" d="M388.324 205.785L390.672 193.443C384.187 193.589 377.809 191.771 372.376 188.226L376.95 180.033C381.973 183.458 387.933 185.244 394.011 185.144C403.036 185.144 410.004 180.064 411.33 173.107C412.657 166.151 408.495 162.276 399.88 158.645C387.927 153.854 381.066 148.286 383.109 137.699C385.046 127.569 393.95 119.834 405.979 117.866L408.327 105.555H416.148L413.785 117.393C419.26 117.344 424.646 118.784 429.367 121.558L424.717 129.766C420.194 126.943 414.935 125.53 409.608 125.708C399.896 125.708 395.185 131.413 394.255 136.28C393.035 142.626 397.106 145.769 407.214 150.086C419.243 155.121 424.58 161.406 422.46 172.268C420.631 181.91 411.94 191.002 398.584 193.168L396.252 205.785H388.324Z" fill="#399478"/>
<defs>
<linearGradient id="paint0_linear_358_2375" x1="285.35" y1="362.568" x2="289.865" y2="365.937" gradientUnits="userSpaceOnUse">
<stop offset="0.01"/>
<stop offset="0.08" stop-opacity="0.69"/>
<stop offset="0.21" stop-opacity="0.32"/>
<stop offset="1" stop-opacity="0"/>
</linearGradient>
<linearGradient id="paint1_linear_358_2375" x1="-33210.8" y1="1066.49" x2="48150.6" y2="185154" gradientUnits="userSpaceOnUse">
<stop offset="0.01"/>
<stop offset="0.08" stop-opacity="0.69"/>
<stop offset="0.21" stop-opacity="0.32"/>
<stop offset="1" stop-opacity="0"/>
</linearGradient>
<linearGradient id="paint2_linear_358_2375" x1="61475.3" y1="23119.5" x2="65866.6" y2="59417.4" gradientUnits="userSpaceOnUse">
<stop offset="0.01"/>
<stop offset="0.08" stop-opacity="0.69"/>
<stop offset="0.21" stop-opacity="0.32"/>
<stop offset="1" stop-opacity="0"/>
</linearGradient>
<linearGradient id="paint3_linear_358_2375" x1="51172.5" y1="6585.31" x2="50035.5" y2="32335.6" gradientUnits="userSpaceOnUse">
<stop offset="0.01"/>
<stop offset="0.08" stop-opacity="0.69"/>
<stop offset="0.21" stop-opacity="0.32"/>
<stop offset="1" stop-opacity="0"/>
</linearGradient>
<linearGradient id="paint4_linear_358_2375" x1="18958.3" y1="8745.23" x2="29956.6" y2="18568.3" gradientUnits="userSpaceOnUse">
<stop offset="0.01"/>
<stop offset="0.08" stop-opacity="0.69"/>
<stop offset="0.21" stop-opacity="0.32"/>
<stop offset="1" stop-opacity="0"/>
</linearGradient>
<linearGradient id="paint5_linear_358_2375" x1="18722.6" y1="6669.42" x2="17962.6" y2="19475.5" gradientUnits="userSpaceOnUse">
<stop offset="0.01"/>
<stop offset="0.08" stop-opacity="0.69"/>
<stop offset="0.21" stop-opacity="0.32"/>
<stop offset="1" stop-opacity="0"/>
</linearGradient>
<linearGradient id="paint6_linear_358_2375" x1="8586.42" y1="4467.57" x2="8472.47" y2="5451.19" gradientUnits="userSpaceOnUse">
<stop offset="0.01"/>
<stop offset="0.08" stop-opacity="0.69"/>
<stop offset="0.21" stop-opacity="0.32"/>
<stop offset="1" stop-opacity="0"/>
</linearGradient>
<linearGradient id="paint7_linear_358_2375" x1="60865.5" y1="8470.33" x2="73669" y2="155034" gradientUnits="userSpaceOnUse">
<stop offset="0.01"/>
<stop offset="0.08" stop-opacity="0.69"/>
<stop offset="0.21" stop-opacity="0.32"/>
<stop offset="1" stop-opacity="0"/>
</linearGradient>
</defs>
</svg>
