<svg width="699" height="584" viewBox="0 0 699 584" fill="none" xmlns="http://www.w3.org/2000/svg">
<path fill-rule="evenodd" clip-rule="evenodd" d="M427.339 485.309C375.932 484.284 332.332 465.796 282.423 453.435C193.137 431.321 73.298 464.567 25.7269 385.841C-22.4629 306.091 17.1087 189.156 82.7958 123.069C141.604 63.9023 240.251 109.381 321.068 88.7002C399.91 68.5253 464.323 -21.8854 540.829 5.86247C620.097 34.6121 644.015 132.882 666.756 214.078C689.846 296.517 724.993 396.948 668.338 461.132C612.795 524.055 511.253 486.983 427.339 485.309Z" fill="#F7F3F0"/>
<g filter="url(#filter0_d_895_4670)">
<g clip-path="url(#clip0_895_4670)">
<path d="M293.287 130C308.593 121.163 333.407 121.163 348.713 130L566.085 255.5C581.391 264.337 581.391 278.663 566.085 287.5L348.713 413C333.407 421.837 308.593 421.837 293.287 413L75.9148 287.5C60.6095 278.663 60.6095 264.337 75.9148 255.5L293.287 130Z" fill="white"/>
<path d="M471.765 284.2L354.499 351.903L363.547 357.127L483.304 287.986L483.616 232.755L351.248 156.332L303.316 184.005L312.364 189.229L351.183 166.817L469.976 235.402L428.613 259.283L471.767 284.198L471.765 284.2ZM472.59 244.35L472.424 274.055L446.781 259.25L472.59 244.35Z" fill="#DC8B2D"/>
<path d="M195.031 246.531L134.211 281.646L264.293 356.749L273.406 351.488L152.372 281.609L204.079 251.755L195.031 246.531Z" fill="#DC8B2D"/>
<path d="M216.355 258.842C219.624 270.53 228.994 281.732 244.528 290.7C260.062 299.668 279.465 305.079 299.707 306.966C301.415 307.125 303.125 307.259 304.841 307.368C334.594 309.254 365.603 303.604 388.463 290.406C428.286 267.414 428.515 230.132 388.973 207.302C368.477 195.469 341.257 189.82 314.243 190.311C289.138 190.767 264.215 196.522 245.033 207.596C220.859 221.559 211.302 240.782 216.355 258.842ZM280.364 295.798C270.739 293.343 261.728 289.857 253.861 285.315C245.994 280.773 239.956 275.57 235.704 270.013C232.412 265.711 230.182 261.198 229.054 256.603C243.367 253.595 259.491 255.542 270.383 261.831L294.568 275.794C305.442 282.072 308.804 291.372 303.592 299.637C295.632 298.986 287.817 297.699 280.364 295.798ZM327.964 198.236C346.893 199.542 365.188 204.349 379.64 212.693C394.093 221.037 402.421 231.601 404.681 242.528C405.15 244.797 405.363 247.08 405.309 249.363C404.995 262.286 396.295 275.183 379.193 285.057C362.094 294.929 339.755 299.952 317.371 300.134C317.276 300.134 317.181 300.137 317.089 300.139C322.286 289.664 317.498 278.262 303.892 270.407L279.708 256.444C266.084 248.579 246.325 245.808 228.18 248.807C228.423 235.831 237.129 222.866 254.302 212.951C274.425 201.333 301.801 196.431 327.964 198.236Z" fill="#DC8B2D"/>
<path d="M299.495 258.97C317.528 269.381 346.974 269.321 365.135 258.835C383.297 248.35 383.398 231.351 365.365 220.939C347.332 210.528 317.889 210.587 299.727 221.072C281.566 231.558 281.461 248.558 299.495 258.97ZM356.033 226.327C368.956 233.789 368.879 245.971 355.866 253.484C342.85 260.999 321.748 261.042 308.827 253.582C295.906 246.122 295.981 233.938 308.996 226.424C322.007 218.912 343.109 218.866 356.033 226.327Z" fill="#DC8B2D"/>
<path d="M279.861 373.922C279.836 378.071 282.613 381.97 287.678 384.894C292.743 387.818 299.493 389.42 306.682 389.407C313.875 389.392 320.642 387.761 325.745 384.814C330.849 381.868 333.669 377.961 333.7 373.808L333.904 340.013L333.943 333.702L323.012 333.724L312.762 333.745L312.792 328.748L312.903 310.741L301.43 310.763L301.292 333.769L280.116 333.812L280.03 347.666L279.861 373.922ZM323.153 339.931L322.945 373.832C322.913 378.979 315.637 383.179 306.726 383.196L306.723 383.198C302.409 383.207 298.354 382.245 295.31 380.488C292.265 378.73 290.601 376.392 290.619 373.897L290.824 339.998L323.153 339.931Z" fill="#DC8B2D"/>
</g>
</g>
<defs>
<filter id="filter0_d_895_4670" x="-15.7981" y="114" width="673.596" height="479" filterUnits="userSpaceOnUse" color-interpolation-filters="sRGB">
<feFlood flood-opacity="0" result="BackgroundImageFix"/>
<feColorMatrix in="SourceAlpha" type="matrix" values="0 0 0 0 0 0 0 0 0 0 0 0 0 0 0 0 0 0 127 0" result="hardAlpha"/>
<feOffset dy="100"/>
<feGaussianBlur stdDeviation="32"/>
<feComposite in2="hardAlpha" operator="out"/>
<feColorMatrix type="matrix" values="0 0 0 0 0.580392 0 0 0 0 0.480471 0 0 0 0 0.223529 0 0 0 0.12 0"/>
<feBlend mode="normal" in2="BackgroundImageFix" result="effect1_dropShadow_895_4670"/>
<feBlend mode="normal" in="SourceGraphic" in2="effect1_dropShadow_895_4670" result="shape"/>
</filter>
<clipPath id="clip0_895_4670">
<path d="M293.287 130C308.593 121.163 333.407 121.163 348.713 130L566.085 255.5C581.391 264.337 581.391 278.663 566.085 287.5L348.713 413C333.407 421.837 308.593 421.837 293.287 413L75.9148 287.5C60.6095 278.663 60.6095 264.337 75.9148 255.5L293.287 130Z" fill="white"/>
</clipPath>
</defs>
</svg>
