<svg width="642" height="470" viewBox="0 0 642 470" fill="none" xmlns="http://www.w3.org/2000/svg">
<g filter="url(#filter0_d_980_4768)">
<g clip-path="url(#clip0_980_4768)">
<path d="M293.085 16C308.39 7.16344 333.205 7.16344 348.511 16L565.883 141.5C581.188 150.337 581.188 164.663 565.883 173.5L348.511 299C333.205 307.837 308.39 307.837 293.085 299L75.7127 173.5C60.4073 164.663 60.4073 150.337 75.7127 141.5L293.085 16Z" fill="white"/>
<path d="M479.113 165.467C426.202 130.726 440.215 104.436 440.925 103.448C443.515 99.3528 441.166 94.6424 435.904 91.3249C430.399 88.1471 422.249 87.0751 415.148 88.286C413.187 88.5515 367.659 96.9261 307.236 66.2337C302.74 63.9179 296.099 63.9968 291.984 66.3727L213.553 111.655C145.531 150.927 201.118 219.078 203.661 221.944C204.419 222.661 204.928 223.234 205.929 223.812C206.929 224.39 207.922 224.683 209.165 225.121C214.128 226.589 332.169 258.682 400.191 219.41L478.38 174.268C482.745 172.036 482.882 168.202 479.113 165.467ZM384.187 210.45C333.352 239.799 241.733 219.607 222.156 214.732C213.713 203.429 178.738 150.533 229.573 121.183L300.984 79.9543C357.589 106.206 404.498 103.101 418.474 101.388C415.264 109.597 410.128 136.54 455.598 169.221L384.187 210.45Z" fill="#399478"/>
<path d="M376.83 133.806L381.187 131.29C385.06 129.054 384.954 125.359 380.952 123.048C376.949 120.737 370.549 120.676 366.676 122.912L362.319 125.428C357.622 124.673 352.458 124.766 348.068 126.145L324.542 112.283C323.291 111.561 321.072 111.398 319.604 111.668L268.443 120.983C266.974 121.253 265.514 121.808 265.046 122.656C257.639 130.399 259.117 139.078 269.124 144.856C279.132 150.634 294.166 151.487 307.577 147.211C308.796 146.796 310.006 146.098 310.474 145.25L322.115 122.062L338.377 131.451C336.481 133.99 336.07 136.827 337.378 139.539L292.595 165.395C284.122 170.286 270.597 170.584 261.115 165.947L246.152 158.986C244.409 158.259 242.198 158.38 240.745 159.219L232.999 163.691C231.547 164.529 231.345 166.09 233.097 167.101L304.149 208.124C305.65 208.99 308.362 209.158 310.056 208.18L317.802 203.707C319.255 202.869 319.464 201.592 318.205 200.586L306.156 192.232C298.368 186.617 298.883 178.808 307.113 174.057L352.138 148.061C356.835 148.816 361.75 148.579 366.147 147.484L382.409 156.873L342.756 164.167C341.287 164.437 339.827 164.992 339.359 165.84C331.952 173.583 333.43 182.263 343.437 188.04C353.445 193.818 368.479 194.671 381.89 190.395C383.109 189.981 384.319 189.282 384.787 188.434L400.922 158.896C401.131 157.62 400.857 156.623 399.598 155.616L375.588 142.034C377.976 139.499 378.137 136.518 376.83 133.806ZM305.066 136.817L282.549 123.817L315.594 117.738L305.066 136.817ZM379.871 180.005L357.354 167.005L390.399 160.927L379.871 180.005Z" fill="#399478"/>
</g>
</g>
<defs>
<filter id="filter0_d_980_4768" x="-16.0002" y="0" width="673.596" height="479" filterUnits="userSpaceOnUse" color-interpolation-filters="sRGB">
<feFlood flood-opacity="0" result="BackgroundImageFix"/>
<feColorMatrix in="SourceAlpha" type="matrix" values="0 0 0 0 0 0 0 0 0 0 0 0 0 0 0 0 0 0 127 0" result="hardAlpha"/>
<feOffset dy="100"/>
<feGaussianBlur stdDeviation="32"/>
<feComposite in2="hardAlpha" operator="out"/>
<feColorMatrix type="matrix" values="0 0 0 0 0.223529 0 0 0 0 0.580392 0 0 0 0 0.470588 0 0 0 0.12 0"/>
<feBlend mode="normal" in2="BackgroundImageFix" result="effect1_dropShadow_980_4768"/>
<feBlend mode="normal" in="SourceGraphic" in2="effect1_dropShadow_980_4768" result="shape"/>
</filter>
<clipPath id="clip0_980_4768">
<path d="M293.085 16C308.39 7.16344 333.205 7.16344 348.511 16L565.883 141.5C581.188 150.337 581.188 164.663 565.883 173.5L348.511 299C333.205 307.837 308.39 307.837 293.085 299L75.7127 173.5C60.4073 164.663 60.4073 150.337 75.7127 141.5L293.085 16Z" fill="white"/>
</clipPath>
</defs>
</svg>
