<svg width="698" height="656" viewBox="0 0 698 656" fill="none" xmlns="http://www.w3.org/2000/svg">
<path fill-rule="evenodd" clip-rule="evenodd" d="M151.663 11.2062C216.52 -24.2343 290.889 41.0662 363.222 56.2468C419.99 68.1608 477.346 65.0856 529.486 90.5004C593.863 121.879 680.848 148.197 695.63 218.272C710.545 288.977 631.106 341.656 595.764 404.684C567.383 455.299 550.884 510.429 509.183 550.782C459.88 598.491 405.256 664.758 337.389 654.709C268.733 644.544 255.923 546.255 200.098 505.018C140.686 461.129 34.2112 478.152 5.98011 409.895C-21.5964 343.221 54.0104 279.449 78.7736 211.68C103.789 143.219 87.7008 46.1572 151.663 11.2062Z" fill="#EFF7F5"/>
</svg>
