<svg width="499" height="315" viewBox="0 0 499 315" fill="none" xmlns="http://www.w3.org/2000/svg">
<g clip-path="url(#clip0_984_5600)">
<path d="M201.49 26.54L191.02 19.12L157.91 0L24.63 11.33L0.11 25.58L0 63.26L3.49 65.28V65.32L6.98 67.31V67.35L10.47 69.33V69.37L14.02 71.35L27.3 79.02L27.2 114.82L59.24 133.32L69.71 137.35L99.36 120.63L108.04 125.64L118.51 129.89L142.15 116.56L142.2 96.47L201.39 63.1L201.49 26.54Z" fill="#D6D8E5"/>
<path d="M322.011 183.02L297.491 197.27L297.381 234.95L300.871 236.97V237.01L304.361 239V239.05L307.851 241.02V241.06L311.401 243.05L324.681 250.71L324.581 286.51L356.631 305.01L367.101 309.04L396.751 292.32L405.421 297.33L415.891 301.58L439.531 288.25L439.591 268.16L498.771 234.79L498.881 198.23L488.411 190.81L455.291 171.69L322.011 183.02Z" fill="#D6D8E5"/>
<path d="M303.17 189.42L303.68 189.12L306.78 187.26L307.97 186.51C308.73 186.04 309.48 185.57 310.21 185.1L311.5 184.26C312.17 183.83 312.82 183.39 313.5 182.96L314.77 182.09C315.39 181.67 316 181.24 316.6 180.82L317.79 179.97L319.54 178.68L320.62 177.87L322.4 176.47L323.25 175.79C324.1 175.1 324.92 174.42 325.7 173.73L326.7 172.9C327.07 172.57 327.41 172.24 327.76 171.9L328.25 171.44C328.93 170.8 329.57 170.16 330.18 169.52C330.32 169.38 330.45 169.23 330.58 169.09C331.05 168.58 331.51 168.09 331.94 167.57C332.11 167.38 332.28 167.18 332.44 166.98L332.86 166.49C333.21 166.06 333.54 165.64 333.86 165.21L334 165.02C334.49 164.36 334.95 163.7 335.37 163.02C335.61 162.64 335.85 162.26 336.07 161.88C336.17 161.71 336.25 161.53 336.35 161.36C336.45 161.19 336.66 160.79 336.8 160.5C336.94 160.21 337.18 159.73 337.36 159.35C337.54 158.97 337.61 158.79 337.72 158.51C337.83 158.23 337.84 158.24 337.89 158.11C338.07 157.66 338.22 157.22 338.37 156.77C338.563 156.15 338.723 155.53 338.85 154.91C338.85 154.84 338.9 154.76 338.92 154.68C338.94 154.6 338.92 154.45 338.97 154.33C339.03 154.04 339.07 153.75 339.11 153.47C339.15 153.19 339.17 153.04 339.19 152.82C339.21 152.6 339.24 152.24 339.26 151.95C339.28 151.66 339.26 151.68 339.26 151.54C339.26 151.4 339.26 151.23 339.26 151.07L339.36 114.51C339.36 114.8 339.36 115.09 339.36 115.39V115.69C339.612 111.523 338.465 107.391 336.1 103.95C332.7 98.7099 326.24 93.4199 316.72 88.0799C315.24 87.2599 313.72 86.4899 312.27 85.7399C311.11 85.0999 309.95 84.4799 308.78 83.8899C307.61 83.2999 306.46 82.6199 305.29 82.0199C296.966 77.2742 287.99 73.7769 278.65 71.6399C269.135 69.5373 259.343 68.9769 249.65 69.9799C239.299 71.0575 229.129 73.4605 219.39 77.1299C208.132 81.4494 197.257 86.7079 186.88 92.8499C175.587 99.4099 166.637 105.673 160.03 111.64C153.423 117.607 149.257 123.42 147.53 129.08C146.934 131.023 146.651 133.048 146.69 135.08C146.69 134.95 146.69 134.81 146.69 134.67L146.58 172.36C146.634 176.351 147.873 180.235 150.14 183.52C153.673 188.933 160.087 194.307 169.38 199.64C170.56 200.32 171.74 200.98 172.92 201.64L174.08 202.23C174.87 202.64 175.67 203.05 176.47 203.44C176.93 203.67 177.4 203.87 177.87 204.09C178.58 204.43 179.3 204.77 180.01 205.09C180.52 205.32 181.01 205.52 181.53 205.73C182.21 206.01 182.88 206.31 183.53 206.57L183.67 206.63C183.91 206.73 184.15 206.8 184.39 206.9C185.39 207.29 186.39 207.67 187.45 208.02L188.81 208.47L191.4 209.28L192.12 209.5L193.31 209.82L194.26 210.07C195.31 210.34 196.37 210.6 197.42 210.83L198.3 211.01C199.05 211.17 199.79 211.31 200.54 211.44L201.01 211.53C201.963 211.697 202.913 211.847 203.86 211.98H204.03L204.5 212.06C205.447 212.233 206.397 212.383 207.35 212.51H207.52L207.99 212.6L210.84 213.05C210.897 213.045 210.954 213.045 211.01 213.05L211.48 213.13C212.48 213.3 213.4 213.45 214.37 213.58H214.71L215.5 213.68C216.32 213.78 217.14 213.87 217.97 213.95L218.91 214.04L219.58 214.1C220.34 214.17 221.11 214.21 221.87 214.26H222.1C222.98 214.31 223.86 214.34 224.74 214.36H228.65H229.65H230.2C230.86 214.36 231.52 214.3 232.2 214.26H233.08C234.16 214.19 235.24 214.11 236.32 214H236.57C237.843 213.873 239.123 213.723 240.41 213.55L241.7 213.35C242.56 213.22 243.42 213.1 244.28 212.95L244.6 212.9L246.02 212.63L248.02 212.24L249.8 211.84C250.47 211.69 251.15 211.55 251.8 211.38L253.6 210.93L255.6 210.4L257.43 209.88L259.43 209.27L259.99 209.11L261.79 208.52L262.95 208.15C264.15 207.74 265.36 207.33 266.56 206.88C277.856 202.704 288.789 197.607 299.25 191.64C300.583 190.88 301.89 190.127 303.17 189.38V189.42ZM339.26 116.21C339.26 116.42 339.21 116.64 339.18 116.85C339.15 117.06 339.09 117.43 339.04 117.72C339.04 117.72 339.04 117.78 339.04 117.81C339.149 117.278 339.229 116.74 339.28 116.2L339.26 116.21ZM338.94 118.3C338.81 118.928 338.646 119.549 338.45 120.16C338.646 119.549 338.81 118.928 338.94 118.3ZM148.68 143.07C148.57 142.85 148.49 142.63 148.4 142.41C148.56 142.79 148.73 143.17 148.93 143.54C148.84 143.38 148.75 143.23 148.68 143.07Z" fill="#D6D8E5"/>
<path d="M126.611 19.4302L126.501 57.1102L48.3105 63.7702L48.4205 26.0902L126.611 19.4302Z" fill="#399478"/>
<path d="M58.26 59.1501L58.15 96.8301L0 63.2601L0.11 25.5801L58.26 59.1501Z" fill="#399478"/>
<path d="M191.02 19.1201L190.92 56.8001L113.83 101.6L113.94 63.9101L191.02 19.1201Z" fill="#399478"/>
<path d="M108.139 87.9499L108.039 125.64L90.1895 115.33L90.2995 77.6499L108.139 87.9499Z" fill="#399478"/>
<path d="M131.779 74.2202L131.679 111.9L108.039 125.64L108.139 87.9502L131.779 74.2202Z" fill="#399478"/>
<path d="M59.3492 95.6401L59.2392 133.32L27.1992 114.82L27.2992 77.1401L59.3492 95.6401Z" fill="#399478"/>
<path d="M90.3002 77.6499L90.1902 115.33L59.2402 133.32L59.3502 95.6399L90.3002 77.6499Z" fill="#399478"/>
<path d="M113.939 63.92L131.779 74.22L108.149 87.96L90.2994 77.64L59.3494 95.64L27.3494 77.14L58.3494 59.14L0.109375 25.58L24.6294 11.33L157.879 0L190.999 19.12L113.939 63.92ZM81.9394 45.42L126.649 19.42L48.4594 26.08L81.8794 45.42" fill="#44BD99"/>
<path d="M281.931 96.6398C281.461 96.3698 280.981 96.1198 280.501 95.8798L280.061 95.6798C279.701 95.5098 279.341 95.3498 278.971 95.1998L278.701 95.0798L278.541 95.0298C277.891 94.7798 277.221 94.5498 276.541 94.3498L276.391 94.2998L276.111 94.2298C275.681 94.1098 275.241 93.9998 274.791 93.9098L274.511 93.8398H274.371C273.864 93.7398 273.344 93.6498 272.811 93.5698C272.291 93.4898 271.811 93.4398 271.221 93.3898H271.111H270.721L269.551 93.3198H267.081C266.381 93.3198 265.671 93.3698 264.951 93.4698H264.811L264.231 93.5398L263.351 93.6398L262.561 93.7598L261.661 93.8998L261.411 93.9498H261.131C260.271 94.1098 259.411 94.2898 258.521 94.5098C257.891 94.6598 257.231 94.8298 256.521 95.0198L255.871 95.2198L254.451 95.6398L254.151 95.7398L253.821 95.8498C252.821 96.1698 251.821 96.5098 250.771 96.8998L250.571 96.9798C249.571 97.3598 248.481 97.7798 247.391 98.2198L246.891 98.4198C245.791 98.8798 244.651 99.4198 243.491 99.8798L242.801 100.19C241.621 100.72 240.421 101.28 239.181 101.87L238.671 102.12C237.451 102.706 236.201 103.326 234.921 103.98L234.531 104.17C233.211 104.85 231.841 105.57 230.451 106.31L229.651 106.74C228.278 107.467 226.874 108.233 225.441 109.04L224.681 109.47C223.161 110.32 221.631 111.19 220.051 112.11L217.251 113.76L216.381 114.28L214.851 115.2L214.631 115.33C213.581 115.97 212.551 116.6 211.561 117.22L210.991 117.58L208.661 119.06L207.761 119.65L205.881 120.91L205.051 121.47C204.311 121.96 203.611 122.47 202.921 122.94L202.591 123.17C201.811 123.72 201.071 124.26 200.351 124.79L199.751 125.25L198.271 126.38L197.621 126.9L196.291 127.99L195.791 128.41C195.231 128.89 194.691 129.41 194.181 129.83C193.801 130.19 193.441 130.53 193.091 130.88L192.821 131.15L192.071 131.93L191.741 132.3L191.161 132.96L190.861 133.33L190.661 133.57C190.488 133.783 190.328 133.993 190.181 134.2C189.991 134.46 189.821 134.71 189.651 134.97L189.481 135.25L189.201 135.72C189.061 135.98 188.921 136.24 188.801 136.5L188.701 136.72C188.621 136.91 188.541 137.09 188.471 137.27V137.35C188.321 137.761 188.201 138.182 188.111 138.61C188.039 138.969 187.995 139.334 187.981 139.7C187.981 139.7 187.981 139.77 187.981 139.8C187.976 139.86 187.976 139.92 187.981 139.98L187.881 177.66C187.881 177.57 187.881 177.47 187.881 177.38C187.9 177.014 187.944 176.65 188.011 176.29C188.098 175.857 188.222 175.432 188.381 175.02C188.378 174.977 188.378 174.933 188.381 174.89L188.611 174.35C188.611 174.28 188.671 174.2 188.711 174.12C188.831 173.86 188.971 173.6 189.121 173.34C189.271 173.08 189.321 172.99 189.431 172.82C189.541 172.65 189.521 172.66 189.581 172.58C189.741 172.33 189.921 172.07 190.101 171.81C190.281 171.55 190.541 171.23 190.781 170.94C190.881 170.81 190.981 170.69 191.091 170.57C191.201 170.45 191.461 170.13 191.661 169.91L191.991 169.54L192.751 168.76L193.011 168.49C193.371 168.13 193.751 167.77 194.151 167.41C194.651 166.94 195.151 166.47 195.761 165.98L196.261 165.56C196.681 165.2 197.121 164.84 197.591 164.47L198.231 163.96C198.711 163.58 199.231 163.2 199.711 162.82L200.311 162.37C201.031 161.83 201.771 161.29 202.551 160.74L202.881 160.64C203.561 160.16 204.261 159.64 204.991 159.18L205.821 158.62L207.701 157.37L208.601 156.79L210.941 155.3L211.501 154.94C212.501 154.32 213.501 153.69 214.581 153.05L216.291 152.05L217.201 151.5L220.001 149.86C221.568 148.953 223.108 148.076 224.621 147.23L225.381 146.79C226.821 145.99 228.221 145.22 229.601 144.49L230.401 144.06C231.791 143.32 233.151 142.6 234.481 141.92L234.881 141.64C236.161 140.973 237.411 140.353 238.631 139.78L239.141 139.53C240.381 138.943 241.591 138.383 242.771 137.85L243.451 137.54C244.621 137.03 245.751 136.54 246.851 136.08L247.351 135.88C248.441 135.44 249.511 135.02 250.531 134.64L250.741 134.56C251.791 134.18 252.801 133.83 253.791 133.56L254.411 133.36C254.891 133.2 255.361 133.06 255.831 132.93L256.491 132.73C257.161 132.55 257.821 132.37 258.491 132.22C259.371 132 260.241 131.83 261.091 131.67L261.631 131.57L262.521 131.42L263.311 131.3L264.191 131.2L264.911 131.12C265.641 131.05 266.351 131 267.051 130.97H268.881H269.461C269.861 130.97 270.251 130.99 270.631 131.03H271.131C271.671 131.03 272.201 131.13 272.731 131.21C273.251 131.29 273.731 131.38 274.281 131.48L274.711 131.58C275.151 131.68 275.591 131.78 276.021 131.9L276.461 132.02C277.141 132.22 277.801 132.45 278.461 132.7L278.891 132.87C279.251 133.016 279.611 133.177 279.971 133.35C280.121 133.42 280.271 133.48 280.411 133.56C280.904 133.786 281.384 134.036 281.851 134.31C285.851 136.623 287.851 139.257 287.851 142.21L287.951 104.53C287.951 101.57 285.951 98.9365 281.951 96.6298" fill="#399478"/>
<path d="M328.881 110.69C328.881 110.99 328.861 111.29 328.821 111.59C328.821 111.81 328.771 112.03 328.741 112.25C328.711 112.47 328.651 112.85 328.601 113.15L328.481 113.74C328.35 114.388 328.187 115.029 327.991 115.66C327.811 116.25 327.581 116.85 327.351 117.45C327.231 117.74 327.111 118.02 326.981 118.31C326.851 118.6 326.621 119.11 326.431 119.5L325.971 120.39C325.27 121.688 324.488 122.94 323.631 124.14L323.491 124.34C323.051 124.94 322.571 125.55 322.081 126.16L321.581 126.77C321.141 127.29 320.691 127.77 320.221 128.33L319.821 128.78C319.201 129.44 318.561 130.1 317.891 130.78L317.401 131.25C316.751 131.88 316.091 132.5 315.401 133.13C314.711 133.76 313.791 134.54 312.951 135.25L312.101 135.94C311.511 136.42 310.921 136.94 310.311 137.39L309.241 138.22L307.491 139.55L306.291 140.43L304.461 141.75L303.201 142.64L301.201 143.98L299.921 144.84L297.671 146.3C297.281 146.56 296.891 146.81 296.481 147.06C295.481 147.7 294.431 148.35 293.381 148.99L292.881 149.3C291.587 150.08 290.254 150.867 288.881 151.66C278.48 157.793 267.589 163.054 256.321 167.39C255.111 167.84 253.911 168.27 252.711 168.69L251.551 169.08L249.191 169.85L247.141 170.47L245.321 171.01L243.321 171.56C242.711 171.71 242.111 171.88 241.511 172.02C240.911 172.16 240.161 172.35 239.511 172.5C238.861 172.65 238.321 172.78 237.731 172.9C237.141 173.02 236.381 173.17 235.731 173.31L233.881 173.64L231.281 174.06L230.001 174.25C228.721 174.43 227.441 174.59 226.161 174.72C224.881 174.85 223.841 174.93 222.681 175.01H221.791C220.951 175.06 220.111 175.1 219.271 175.12H218.271C217.471 175.12 216.671 175.12 215.871 175.12H214.871C213.811 175.12 212.751 175.12 211.691 175.01H211.461C210.461 174.95 209.461 174.87 208.461 174.79L207.511 174.69C206.691 174.61 205.871 174.52 205.051 174.41L204.261 174.31C203.181 174.16 202.101 174 201.021 173.81L200.571 173.72C199.521 173.53 198.481 173.33 197.441 173.11C196.401 172.89 195.331 172.62 194.271 172.35L193.331 172.1L191.421 171.55C190.561 171.3 189.691 171.03 188.831 170.75L187.471 170.3C186.471 169.94 185.421 169.57 184.401 169.17C184.121 169.06 183.831 168.97 183.541 168.85C182.871 168.59 182.201 168.29 181.541 168.01L180.021 167.37C179.311 167.06 178.601 166.72 177.891 166.37L176.471 165.71C175.681 165.32 174.891 164.91 174.091 164.5L172.931 163.9C171.751 163.28 170.571 162.62 169.381 161.9C160.094 156.527 153.681 151.137 150.141 145.73C149.559 144.85 149.037 143.931 148.581 142.98C147.275 140.365 146.591 137.483 146.581 134.56L146.471 172.25C146.525 176.241 147.764 180.125 150.031 183.41C153.637 188.897 160.087 194.307 169.381 199.64C170.561 200.32 171.741 200.98 172.921 201.64L174.081 202.23C174.871 202.64 175.671 203.05 176.471 203.44C176.931 203.67 177.401 203.87 177.871 204.09C178.581 204.43 179.301 204.77 180.011 205.09L181.531 205.73C182.211 206.01 182.881 206.31 183.531 206.57L183.671 206.63C183.911 206.73 184.151 206.8 184.391 206.89C185.391 207.29 186.391 207.67 187.451 208.02L188.811 208.47C189.681 208.75 190.541 209.02 191.401 209.27L192.121 209.5L193.311 209.82L194.261 210.07C195.311 210.34 196.371 210.6 197.421 210.83L198.301 211.01C199.051 211.17 199.791 211.31 200.541 211.44L201.011 211.53C202.011 211.7 202.931 211.85 203.901 211.99H204.241L205.031 212.09C205.851 212.2 206.671 212.29 207.501 212.38L208.441 212.47L209.111 212.53C209.871 212.6 210.641 212.64 211.401 212.69H211.631C212.511 212.74 213.391 212.78 214.271 212.8H215.791C216.581 212.8 217.381 212.8 218.181 212.8H219.181H219.731C220.391 212.8 221.051 212.74 221.731 212.7H222.611C223.691 212.63 224.771 212.54 225.851 212.44H226.101C227.371 212.31 228.651 212.15 229.931 211.98L231.231 211.77C232.091 211.64 232.941 211.51 233.811 211.36L234.131 211.31L235.551 211.03C236.231 210.89 236.901 210.77 237.551 210.62C238.201 210.47 238.731 210.36 239.331 210.22L241.331 209.75L243.131 209.28L245.131 208.73C245.741 208.56 246.351 208.37 246.951 208.19C247.551 208.01 248.321 207.79 248.951 207.57L249.511 207.4L251.311 206.8L252.471 206.41C253.671 205.99 254.871 205.56 256.081 205.11C267.353 200.774 278.247 195.513 288.651 189.38C289.984 188.6 291.291 187.823 292.571 187.05H292.621L293.131 186.74L296.231 184.82L297.421 184.05L299.661 182.6L300.951 181.73C301.621 181.28 302.271 180.84 302.951 180.39L304.231 179.5C304.851 179.06 305.461 178.62 306.051 178.18C306.461 177.89 306.861 177.6 307.251 177.3C307.851 176.86 308.421 176.42 309.001 175.97L310.081 175.14C310.691 174.66 311.271 174.14 311.861 173.7L312.711 173C313.561 172.29 314.381 171.58 315.161 170.88L316.111 170.02C316.481 169.68 316.821 169.34 317.171 169.02L317.661 168.55C318.341 167.89 318.981 167.23 319.591 166.55L319.991 166.1C320.461 165.58 320.921 165.1 321.351 164.54L321.851 163.93C321.991 163.76 322.141 163.59 322.271 163.42C322.621 162.98 322.941 162.55 323.271 162.11L323.411 161.91C323.901 161.23 324.361 160.55 324.781 159.91C325.021 159.52 325.261 159.13 325.481 158.74C325.581 158.55 325.661 158.38 325.761 158.2C325.861 158.02 326.071 157.61 326.211 157.32C326.351 157.03 326.591 156.52 326.761 156.12C326.931 155.72 327.021 155.55 327.131 155.26C327.241 154.97 327.251 154.99 327.301 154.85C327.481 154.39 327.631 153.93 327.771 153.47C327.971 152.83 328.131 152.19 328.261 151.56C328.285 151.481 328.305 151.401 328.321 151.32C328.321 151.2 328.321 151.08 328.381 150.96C328.441 150.66 328.481 150.36 328.521 150.06C328.561 149.76 328.581 149.62 328.601 149.4C328.621 149.18 328.651 148.8 328.671 148.5C328.671 148.36 328.671 148.22 328.671 148.08C328.671 147.94 328.671 147.76 328.671 147.59L328.771 109.91C328.771 110.21 328.771 110.52 328.771 110.82" fill="#399478"/>
<path d="M315.36 133.11C308.693 139.07 299.866 145.246 288.88 151.64C278.479 157.772 267.588 163.034 256.32 167.37C246.632 171.106 236.501 173.569 226.18 174.7C216.617 175.699 206.957 175.172 197.56 173.14C187.677 170.904 178.204 167.143 169.48 161.99C160.193 156.617 153.78 151.226 150.24 145.82C146.7 140.413 145.8 134.833 147.54 129.08C149.266 123.413 153.433 117.6 160.04 111.64C166.646 105.68 175.593 99.4165 186.88 92.8498C197.255 86.6942 208.13 81.4222 219.39 77.0898C229.129 73.4205 239.299 71.0175 249.65 69.9398C259.343 68.9368 269.134 69.4973 278.65 71.5998C288.328 73.8336 297.611 77.5258 306.18 82.5498C315.706 88.0498 322.17 93.4998 325.57 98.8998C327.208 101.328 328.274 104.096 328.688 106.995C329.102 109.895 328.853 112.85 327.96 115.64C326.22 121.307 322.02 127.123 315.36 133.09V133.11ZM217.36 149.9C226.746 147.586 239.496 141.75 255.61 132.39C271.843 122.957 281.89 115.56 285.75 110.2C289.61 104.84 288.336 100.32 281.93 96.6398C275.61 92.9865 267.806 92.2798 258.52 94.5198C249.233 96.7598 236.423 102.626 220.09 112.12C204.09 121.413 194.116 128.787 190.17 134.24C186.223 139.693 187.413 144.243 193.74 147.89C200.08 151.55 207.946 152.216 217.34 149.89" fill="#44BD99"/>
<path d="M423.989 191.12L423.879 228.8L345.699 235.47L345.809 197.79L423.989 191.12Z" fill="#399478"/>
<path d="M355.641 230.84L355.531 268.53L297.391 234.96L297.501 197.28L355.641 230.84Z" fill="#399478"/>
<path d="M488.411 190.81L488.301 228.5L411.211 273.29L411.321 235.61L488.411 190.81Z" fill="#399478"/>
<path d="M405.53 259.65L405.42 297.33L387.58 287.03L387.68 249.35L405.53 259.65Z" fill="#399478"/>
<path d="M429.17 245.91L429.06 283.59L405.42 297.33L405.53 259.65L429.17 245.91Z" fill="#399478"/>
<path d="M356.73 267.33L356.63 305.01L324.58 286.51L324.69 248.83L356.73 267.33Z" fill="#399478"/>
<path d="M387.679 249.35L387.579 287.03L356.619 305.01L356.729 267.33L387.679 249.35Z" fill="#399478"/>
<path d="M411.33 235.64L429.17 245.95L405.53 259.64L387.69 249.34L356.74 267.34L324.69 248.84L355.64 230.84L297.5 197.27L322.02 183.02L455.3 171.69L488.41 190.81L411.33 235.64ZM379.28 217.14L424 191.14L345.82 197.8L379.28 217.12" fill="#44BD99"/>
<path d="M367.16 227.51C369.281 231.284 371.854 234.786 374.82 237.94C375.65 238.94 382.02 236.47 380.68 235.78C379.34 235.09 375.18 229.28 373.09 225.41C371.338 220.774 369.849 216.043 368.63 211.24C367.32 206.5 366.19 199.53 365.23 196.24C364.27 192.95 362.31 191.73 360.35 191.24C358.06 190.71 356.58 191.34 356.99 194.11C357.73 198.99 361.53 217.9 367.16 227.47" fill="#FFCEA9"/>
<path d="M363.51 301.64C365.51 303.25 368.39 301.78 368.51 301.93C370.832 304.08 373.265 306.106 375.8 308C377.03 309 378.95 310.26 378.61 312.13C377.98 315.45 372.61 314.43 370.61 313.41C368.61 312.39 366.96 310.71 365.06 309.52C363.7 308.68 362.37 308.25 362.15 306.52C362.03 305.52 363.09 301.59 363.45 301.63" fill="#2B2A30"/>
<path d="M362.241 305.82C362.501 307.46 363.821 307.91 365.171 308.75C367.101 309.95 368.801 311.68 370.811 312.7C372.821 313.72 377.301 314.58 378.611 312.2C377.901 315.41 372.611 314.4 370.671 313.39C368.731 312.38 367.021 310.69 365.121 309.5C363.761 308.66 362.431 308.22 362.221 306.5C362.192 306.27 362.192 306.039 362.221 305.81" fill="#DC8B2D"/>
<path d="M383.54 290.08C385.54 291.69 388.98 289.93 389.12 290.08C391.174 292.165 393.348 294.128 395.63 295.96C396.87 296.96 398.79 298.23 398.44 300.09C397.82 303.42 392.49 302.39 390.44 301.37C388.39 300.35 386.78 298.67 384.88 297.49C383.52 296.64 382.19 296.21 381.98 294.49C381.85 293.49 383.15 290.04 383.5 290.08" fill="#2B2A30"/>
<path d="M382.08 294.04C382.34 295.68 383.66 296.13 385 296.97C386.94 298.17 388.64 299.9 390.65 300.92C392.66 301.94 397.14 302.79 398.45 300.42C397.74 303.63 392.5 302.62 390.51 301.61C388.52 300.6 386.86 298.9 384.96 297.72C383.6 296.88 382.26 296.44 382.05 294.72C382.022 294.491 382.022 294.259 382.05 294.03" fill="#DC8B2D"/>
<path d="M337.09 238.3C334.88 251.98 340.98 257.08 348.88 259.99C354.54 262.08 362.67 265.3 362.67 265.3C362.67 265.3 362.56 268.3 362.5 275.04C362.44 280.97 363.22 302.63 363.22 302.63C363.22 302.63 366.5 304.33 369.27 302.56C369.27 302.56 372.46 285.97 373.13 278.49C374.05 268.34 375.61 261.7 375.13 259.49C374.67 257.57 363.58 252.11 360.06 249.19L383.3 256.98C382.837 259.5 382.61 262.058 382.62 264.62C382.84 272.68 383.28 290.11 383.28 290.11C383.28 290.11 386.47 292.41 389.19 290.11C389.19 290.11 395.04 255.6 394.33 251.03C393.65 246.7 373.17 237.84 369.57 234.79C368.931 234.284 368.19 233.92 367.399 233.721C366.608 233.523 365.783 233.495 364.98 233.64L337.09 238.3Z" fill="#DC8B2D"/>
<path d="M392.821 244L377.201 235C377.064 234.921 376.909 234.88 376.751 234.88C376.593 234.88 376.438 234.921 376.301 235L348.881 250.8L364.941 260.07L392.821 244Z" fill="#F4F4F4"/>
<path d="M364.25 256.76L363.06 257.44C362.96 257.5 362.97 257.6 363.06 257.66L364.2 258.32C364.258 258.35 364.324 258.366 364.39 258.366C364.456 258.366 364.521 258.35 364.58 258.32L365.77 257.64C365.87 257.58 365.85 257.48 365.77 257.42L364.64 256.76C364.581 256.73 364.516 256.715 364.45 256.715C364.384 256.715 364.318 256.73 364.26 256.76" fill="#399478"/>
<path d="M365.93 255.78L364.74 256.47C364.64 256.53 364.66 256.63 364.74 256.69L365.88 257.35C365.937 257.38 366 257.396 366.065 257.396C366.129 257.396 366.192 257.38 366.25 257.35L367.44 256.66C367.54 256.66 367.53 256.51 367.44 256.45L366.3 255.79C366.241 255.761 366.175 255.746 366.11 255.746C366.044 255.746 365.979 255.761 365.92 255.79" fill="#399478"/>
<path d="M367.64 254.8L366.45 255.49C366.35 255.49 366.36 255.64 366.45 255.71L367.59 256.36C367.649 256.389 367.714 256.404 367.78 256.404C367.846 256.404 367.911 256.389 367.97 256.36L369.16 255.67C369.26 255.61 369.24 255.52 369.16 255.45L368.03 254.8C367.972 254.768 367.907 254.752 367.84 254.752C367.774 254.752 367.709 254.768 367.65 254.8" fill="#399478"/>
<path d="M369.301 253.84L368.111 254.53C368.011 254.58 368.031 254.68 368.111 254.74L369.251 255.4C369.309 255.426 369.372 255.44 369.436 255.44C369.5 255.44 369.563 255.426 369.621 255.4L370.811 254.71C370.911 254.65 370.901 254.55 370.811 254.49L369.671 253.83C369.612 253.8 369.547 253.784 369.481 253.784C369.415 253.784 369.35 253.8 369.291 253.83" fill="#399478"/>
<path d="M370.99 252.87L369.8 253.55C369.7 253.61 369.71 253.71 369.8 253.77L370.94 254.43C370.999 254.46 371.064 254.475 371.13 254.475C371.196 254.475 371.261 254.46 371.32 254.43L372.51 253.75C372.61 253.69 372.59 253.59 372.51 253.53L371.38 252.87C371.321 252.84 371.256 252.824 371.19 252.824C371.124 252.824 371.059 252.84 371 252.87" fill="#399478"/>
<path d="M372.67 251.89L371.48 252.58C371.38 252.64 371.4 252.73 371.48 252.8L372.62 253.45C372.676 253.481 372.74 253.498 372.805 253.498C372.87 253.498 372.933 253.481 372.99 253.45L374.18 252.76C374.28 252.71 374.27 252.61 374.18 252.54L373.04 251.89C372.981 251.861 372.916 251.846 372.85 251.846C372.784 251.846 372.719 251.861 372.66 251.89" fill="#399478"/>
<path d="M374.361 250.92L373.171 251.61C373.071 251.61 373.081 251.76 373.171 251.83L374.311 252.48C374.37 252.509 374.435 252.524 374.501 252.524C374.567 252.524 374.632 252.509 374.691 252.48L375.881 251.79C375.981 251.73 375.961 251.64 375.881 251.57L374.751 250.92C374.693 250.889 374.627 250.872 374.561 250.872C374.495 250.872 374.429 250.889 374.371 250.92" fill="#399478"/>
<path d="M376.04 249.95L374.88 250.64C374.79 250.7 374.8 250.8 374.88 250.86L376.02 251.52C376.079 251.55 376.144 251.566 376.21 251.566C376.276 251.566 376.341 251.55 376.4 251.52L377.59 250.84C377.68 250.78 377.67 250.68 377.59 250.62L376.45 249.96C376.391 249.931 376.326 249.915 376.26 249.915C376.194 249.915 376.129 249.931 376.07 249.96" fill="#399478"/>
<path d="M377.73 248.97L376.54 249.66C376.44 249.72 376.45 249.82 376.54 249.88L377.68 250.54C377.739 250.57 377.804 250.585 377.87 250.585C377.936 250.585 378.001 250.57 378.06 250.54L379.25 249.85C379.35 249.8 379.33 249.7 379.25 249.64L378.12 248.98C378.061 248.951 377.996 248.936 377.93 248.936C377.864 248.936 377.799 248.951 377.74 248.98" fill="#399478"/>
<path d="M379.41 248L378.22 248.69C378.13 248.74 378.14 248.84 378.22 248.91L379.36 249.56C379.419 249.589 379.484 249.604 379.55 249.604C379.616 249.604 379.681 249.589 379.74 249.56L380.93 248.87C381.02 248.82 381.01 248.72 380.93 248.65L379.79 248C379.732 247.969 379.666 247.952 379.6 247.952C379.534 247.952 379.468 247.969 379.41 248Z" fill="#399478"/>
<path d="M381.099 247.03L379.909 247.71C379.809 247.77 379.819 247.87 379.909 247.93L381.049 248.59C381.109 248.617 381.174 248.631 381.239 248.631C381.305 248.631 381.369 248.617 381.429 248.59L382.619 247.9C382.719 247.84 382.699 247.74 382.619 247.68L381.489 247.02C381.43 246.99 381.365 246.975 381.299 246.975C381.233 246.975 381.168 246.99 381.109 247.02" fill="#399478"/>
<path d="M382.779 246.05L381.589 246.74C381.499 246.8 381.509 246.9 381.589 246.96L382.729 247.62C382.788 247.649 382.853 247.665 382.919 247.665C382.985 247.665 383.05 247.649 383.109 247.62L384.299 246.94C384.389 246.88 384.379 246.78 384.299 246.72L383.159 246.06C383.1 246.033 383.035 246.019 382.969 246.019C382.904 246.019 382.839 246.033 382.779 246.06" fill="#399478"/>
<path d="M384.47 245.08L383.28 245.77C383.18 245.83 383.19 245.92 383.28 245.99L384.42 246.64C384.479 246.672 384.544 246.688 384.61 246.688C384.677 246.688 384.742 246.672 384.8 246.64L385.99 245.95C386.09 245.9 386.07 245.8 385.99 245.73L384.86 245.08C384.801 245.051 384.736 245.036 384.67 245.036C384.604 245.036 384.539 245.051 384.48 245.08" fill="#399478"/>
<path d="M386.96 243.64L384.96 244.8C384.86 244.8 384.88 244.95 384.96 245.02L386.1 245.67C386.158 245.699 386.221 245.714 386.285 245.714C386.35 245.714 386.413 245.699 386.47 245.67L388.47 244.51C388.56 244.46 388.55 244.36 388.47 244.29L387.33 243.64C387.272 243.608 387.207 243.592 387.14 243.592C387.074 243.592 387.009 243.608 386.95 243.64" fill="#399478"/>
<path d="M365.109 254.37L363.919 255.06C363.829 255.11 363.839 255.21 363.919 255.28L365.059 255.93C365.118 255.959 365.183 255.975 365.249 255.975C365.315 255.975 365.38 255.959 365.439 255.93L366.629 255.24C366.719 255.18 366.709 255.09 366.629 255.02L365.489 254.37C365.431 254.339 365.366 254.322 365.299 254.322C365.233 254.322 365.168 254.339 365.109 254.37Z" fill="#399478"/>
<path d="M366.801 253.4L365.611 254.08C365.511 254.14 365.531 254.24 365.611 254.3L366.741 254.96C366.8 254.99 366.865 255.005 366.931 255.005C366.997 255.005 367.062 254.99 367.121 254.96L368.311 254.28C368.411 254.22 368.401 254.12 368.311 254.06L367.171 253.4C367.112 253.37 367.047 253.354 366.981 253.354C366.915 253.354 366.85 253.37 366.791 253.4" fill="#399478"/>
<path d="M368.49 252.42L367.3 253.11C367.2 253.11 367.21 253.26 367.3 253.33L368.43 253.98C368.488 254.011 368.553 254.028 368.62 254.028C368.686 254.028 368.751 254.011 368.81 253.98L370 253.29C370.1 253.24 370.09 253.14 370 253.07L368.88 252.44C368.821 252.411 368.756 252.396 368.69 252.396C368.624 252.396 368.559 252.411 368.5 252.44" fill="#399478"/>
<path d="M370.179 251.45L368.989 252.13C368.889 252.19 368.899 252.29 368.989 252.35L370.129 253.01C370.188 253.04 370.253 253.055 370.319 253.055C370.385 253.055 370.45 253.04 370.509 253.01L371.699 252.33C371.799 252.27 371.779 252.17 371.699 252.11L370.569 251.45C370.51 251.42 370.445 251.404 370.379 251.404C370.313 251.404 370.248 251.42 370.189 251.45" fill="#399478"/>
<path d="M371.881 250.48L370.691 251.17C370.591 251.22 370.611 251.32 370.691 251.39L371.821 252.04C371.88 252.069 371.945 252.084 372.011 252.084C372.077 252.084 372.142 252.069 372.201 252.04L373.391 251.35C373.491 251.29 373.481 251.2 373.391 251.13L372.251 250.48C372.192 250.448 372.127 250.432 372.061 250.432C371.994 250.432 371.929 250.448 371.871 250.48" fill="#399478"/>
<path d="M373.541 249.51L372.351 250.19C372.251 250.25 372.271 250.35 372.351 250.41L373.481 251.07C373.54 251.1 373.605 251.116 373.671 251.116C373.737 251.116 373.802 251.1 373.861 251.07L375.051 250.39C375.151 250.33 375.141 250.23 375.051 250.17L373.911 249.51C373.852 249.48 373.787 249.465 373.721 249.465C373.655 249.465 373.59 249.48 373.531 249.51" fill="#399478"/>
<path d="M375.23 248.53L374.04 249.22C373.94 249.27 373.95 249.37 374.04 249.44L375.18 250.09C375.239 250.12 375.304 250.135 375.37 250.135C375.436 250.135 375.501 250.12 375.56 250.09L376.75 249.4C376.85 249.4 376.83 249.25 376.75 249.18L375.62 248.53C375.562 248.499 375.496 248.482 375.43 248.482C375.364 248.482 375.298 248.499 375.24 248.53" fill="#399478"/>
<path d="M376.88 247.56L375.69 248.24C375.59 248.3 375.6 248.4 375.69 248.46L376.83 249.12C376.889 249.15 376.954 249.165 377.02 249.165C377.086 249.165 377.152 249.15 377.21 249.12L378.4 248.44C378.5 248.38 378.48 248.28 378.4 248.22L377.27 247.56C377.212 247.53 377.146 247.515 377.08 247.515C377.014 247.515 376.949 247.53 376.89 247.56" fill="#399478"/>
<path d="M378.6 246.58L377.41 247.27C377.32 247.33 377.33 247.42 377.41 247.49L378.55 248.14C378.608 248.172 378.673 248.188 378.739 248.188C378.806 248.188 378.871 248.172 378.929 248.14L380.119 247.45C380.209 247.4 380.199 247.3 380.119 247.23L378.98 246.64C378.92 246.611 378.855 246.596 378.79 246.596C378.724 246.596 378.659 246.611 378.6 246.64" fill="#399478"/>
<path d="M380.291 245.64L379.101 246.32C379.001 246.38 379.021 246.48 379.101 246.54L380.241 247.2C380.298 247.23 380.362 247.246 380.426 247.246C380.49 247.246 380.554 247.23 380.611 247.2L381.801 246.52C381.901 246.46 381.891 246.36 381.801 246.3L380.661 245.64C380.602 245.61 380.537 245.595 380.471 245.595C380.405 245.595 380.34 245.61 380.281 245.64" fill="#399478"/>
<path d="M381.98 244.64L380.79 245.33C380.69 245.39 380.7 245.48 380.79 245.55L381.92 246.21C381.979 246.24 382.044 246.255 382.11 246.255C382.176 246.255 382.241 246.24 382.3 246.21L383.49 245.52C383.59 245.47 383.58 245.37 383.49 245.3L382.36 244.65C382.301 244.621 382.236 244.605 382.17 244.605C382.104 244.605 382.039 244.621 381.98 244.65" fill="#399478"/>
<path d="M383.67 243.64L382.48 244.33C382.38 244.38 382.39 244.48 382.48 244.54L383.61 245.2C383.669 245.227 383.734 245.241 383.8 245.241C383.865 245.241 383.93 245.227 383.989 245.2L385.179 244.51C385.279 244.45 385.269 244.35 385.179 244.29L384.05 243.63C383.991 243.601 383.926 243.585 383.86 243.585C383.793 243.585 383.728 243.601 383.67 243.63" fill="#399478"/>
<path d="M363.429 255.35L361.429 256.5C361.339 256.56 361.349 256.66 361.429 256.72L362.569 257.38C362.628 257.41 362.693 257.425 362.759 257.425C362.825 257.425 362.89 257.41 362.949 257.38L364.949 256.23C365.039 256.17 365.029 256.07 364.949 256.01L363.809 255.35C363.752 255.32 363.688 255.305 363.624 255.305C363.56 255.305 363.496 255.32 363.439 255.35" fill="#399478"/>
<path d="M386.879 243.58L385.689 244.27C385.634 244.295 385.575 244.308 385.514 244.308C385.454 244.308 385.394 244.295 385.339 244.27L384.139 243.57C384.113 243.57 384.087 243.56 384.069 243.541C384.05 243.522 384.039 243.497 384.039 243.47C384.039 243.444 384.05 243.418 384.069 243.4C384.087 243.381 384.113 243.37 384.139 243.37L384.229 243.31C384.319 243.26 384.319 243.18 384.229 243.12L382.959 242.39C382.933 242.39 382.907 242.38 382.889 242.361C382.87 242.342 382.859 242.317 382.859 242.29C382.859 242.264 382.87 242.238 382.889 242.22C382.907 242.201 382.933 242.19 382.959 242.19L383.719 241.75C383.774 241.723 383.834 241.709 383.894 241.709C383.955 241.709 384.015 241.723 384.069 241.75L385.259 242.44L385.499 242.58L385.679 242.68L385.859 242.78L386.859 243.37C386.959 243.43 386.959 243.52 386.859 243.58" fill="#399478"/>
<path d="M357.721 252.98L356.531 253.67C356.431 253.72 356.451 253.82 356.531 253.89L357.661 254.54C357.72 254.569 357.785 254.584 357.851 254.584C357.916 254.584 357.982 254.569 358.041 254.54L359.231 253.85C359.331 253.79 359.321 253.7 359.231 253.63L358.091 252.98C358.032 252.948 357.967 252.932 357.901 252.932C357.834 252.932 357.769 252.948 357.711 252.98" fill="#399478"/>
<path d="M359.4 252.01L358.21 252.7C358.11 252.75 358.13 252.85 358.21 252.92L359.34 253.57C359.399 253.599 359.464 253.614 359.53 253.614C359.596 253.614 359.661 253.599 359.72 253.57L360.91 252.88C361.01 252.83 361 252.73 360.91 252.66L359.77 252.01C359.712 251.978 359.647 251.962 359.58 251.962C359.514 251.962 359.449 251.978 359.39 252.01" fill="#399478"/>
<path d="M361.08 251.04L359.89 251.73C359.79 251.78 359.81 251.88 359.89 251.95L361.03 252.6C361.087 252.629 361.151 252.644 361.215 252.644C361.279 252.644 361.343 252.629 361.4 252.6L362.59 251.91C362.69 251.86 362.68 251.76 362.59 251.69L361.45 251.04C361.392 251.009 361.326 250.992 361.26 250.992C361.194 250.992 361.128 251.009 361.07 251.04" fill="#399478"/>
<path d="M375.391 242.78L374.201 243.47C374.101 243.52 374.121 243.62 374.201 243.68L375.331 244.34C375.39 244.37 375.455 244.385 375.521 244.385C375.586 244.385 375.651 244.37 375.71 244.34L376.901 243.65C377.001 243.59 376.991 243.5 376.901 243.43L375.761 242.78C375.702 242.749 375.637 242.732 375.571 242.732C375.504 242.732 375.439 242.749 375.381 242.78" fill="#399478"/>
<path d="M377.07 241.81L375.88 242.5C375.78 242.55 375.8 242.65 375.88 242.71L377.01 243.37C377.069 243.399 377.134 243.415 377.2 243.415C377.266 243.415 377.331 243.399 377.39 243.37L378.58 242.68C378.68 242.62 378.67 242.52 378.58 242.46L377.44 241.8C377.381 241.77 377.316 241.755 377.25 241.755C377.184 241.755 377.119 241.77 377.06 241.8" fill="#399478"/>
<path d="M378.75 240.84L377.56 241.53C377.46 241.58 377.48 241.68 377.56 241.75L378.69 242.4C378.749 242.429 378.814 242.444 378.88 242.444C378.946 242.444 379.011 242.429 379.07 242.4L380.26 241.71C380.36 241.65 380.35 241.56 380.26 241.49L379.12 240.84C379.062 240.808 378.996 240.792 378.93 240.792C378.864 240.792 378.798 240.808 378.74 240.84" fill="#399478"/>
<path d="M380.43 239.87L379.24 240.56C379.14 240.61 379.16 240.71 379.24 240.77L380.37 241.43C380.429 241.459 380.494 241.475 380.56 241.475C380.625 241.475 380.69 241.459 380.75 241.43L381.94 240.74C382.04 240.68 382.03 240.58 381.94 240.52L380.8 239.87C380.741 239.839 380.676 239.822 380.61 239.822C380.543 239.822 380.478 239.839 380.42 239.87" fill="#399478"/>
<path d="M363.19 249.82L361.57 250.76C361.47 250.81 361.49 250.91 361.57 250.98L362.7 251.63C362.759 251.66 362.824 251.675 362.89 251.675C362.956 251.675 363.021 251.66 363.08 251.63L364.71 250.69C364.8 250.63 364.79 250.54 364.71 250.47L363.57 249.82C363.511 249.789 363.446 249.772 363.38 249.772C363.313 249.772 363.248 249.789 363.19 249.82Z" fill="#399478"/>
<path d="M373.711 243.75L372.091 244.69C371.991 244.74 372.001 244.84 372.091 244.91L373.231 245.56C373.29 245.589 373.355 245.604 373.421 245.604C373.487 245.604 373.552 245.589 373.611 245.56L375.231 244.62C375.331 244.56 375.321 244.47 375.231 244.4L374.091 243.75C374.032 243.719 373.967 243.702 373.901 243.702C373.834 243.702 373.769 243.719 373.711 243.75Z" fill="#399478"/>
<path d="M371.599 244.97L363.679 249.54C363.589 249.59 363.599 249.69 363.679 249.76L364.819 250.41C364.878 250.439 364.943 250.454 365.009 250.454C365.075 250.454 365.14 250.439 365.199 250.41L373.109 245.84C373.209 245.78 373.189 245.69 373.109 245.62L371.979 244.97C371.921 244.938 371.855 244.922 371.789 244.922C371.723 244.922 371.657 244.938 371.599 244.97Z" fill="#399478"/>
<path d="M363.941 253.16L362.751 253.85C362.651 253.91 362.661 254 362.751 254.07L363.881 254.72C363.939 254.752 364.005 254.768 364.071 254.768C364.137 254.768 364.203 254.752 364.261 254.72L365.451 254.03C365.551 253.98 365.541 253.88 365.451 253.81L364.321 253.16C364.262 253.131 364.197 253.116 364.131 253.116C364.065 253.116 364 253.131 363.941 253.16Z" fill="#399478"/>
<path d="M365.619 252.19L364.429 252.88C364.339 252.93 364.349 253.03 364.429 253.1L365.569 253.75C365.626 253.779 365.69 253.794 365.754 253.794C365.818 253.794 365.882 253.779 365.939 253.75L367.129 253.06C367.229 253.01 367.219 252.91 367.129 252.84L365.989 252.19C365.931 252.158 365.865 252.142 365.799 252.142C365.733 252.142 365.667 252.158 365.609 252.19" fill="#399478"/>
<path d="M367.3 251.22L366.12 251.91C366.02 251.96 366.03 252.06 366.12 252.13L367.26 252.78C367.319 252.809 367.384 252.824 367.45 252.824C367.516 252.824 367.581 252.809 367.64 252.78L368.83 252.09C368.92 252.03 368.91 251.94 368.83 251.87L367.69 251.22C367.632 251.188 367.566 251.172 367.5 251.172C367.434 251.172 367.369 251.188 367.31 251.22" fill="#399478"/>
<path d="M368.99 250.25L367.8 250.93C367.7 250.99 367.71 251.09 367.8 251.15L368.93 251.81C368.989 251.839 369.054 251.855 369.12 251.855C369.186 251.855 369.251 251.839 369.31 251.81L370.5 251.13C370.6 251.07 370.59 250.97 370.5 250.91L369.37 250.25C369.311 250.22 369.246 250.204 369.18 250.204C369.114 250.204 369.049 250.22 368.99 250.25Z" fill="#399478"/>
<path d="M370.67 249.28L369.48 249.96C369.38 250.02 369.4 250.12 369.48 250.18L370.61 250.84C370.669 250.87 370.734 250.885 370.8 250.885C370.866 250.885 370.931 250.87 370.99 250.84L372.18 250.16C372.28 250.1 372.27 250 372.18 249.94L371.04 249.28C370.981 249.25 370.916 249.234 370.85 249.234C370.784 249.234 370.719 249.25 370.66 249.28" fill="#399478"/>
<path d="M372.35 248.3L371.16 248.99C371.07 249.05 371.08 249.15 371.16 249.21L372.3 249.87C372.358 249.899 372.423 249.915 372.489 249.915C372.556 249.915 372.621 249.899 372.679 249.87L373.869 249.19C373.959 249.13 373.949 249.03 373.869 248.97L372.73 248.31C372.67 248.283 372.605 248.269 372.54 248.269C372.474 248.269 372.409 248.283 372.35 248.31" fill="#399478"/>
<path d="M374.041 247.33L372.851 248.02C372.751 248.08 372.761 248.17 372.851 248.24L373.981 248.89C374.039 248.922 374.104 248.938 374.171 248.938C374.237 248.938 374.302 248.922 374.361 248.89L375.551 248.2C375.651 248.15 375.641 248.05 375.551 247.98L374.421 247.33C374.361 247.301 374.296 247.286 374.231 247.286C374.165 247.286 374.1 247.301 374.041 247.33Z" fill="#399478"/>
<path d="M375.721 246.36L374.531 247.05C374.431 247.05 374.451 247.2 374.531 247.27L375.661 247.92C375.72 247.949 375.785 247.964 375.851 247.964C375.916 247.964 375.982 247.949 376.041 247.92L377.231 247.23C377.331 247.17 377.321 247.08 377.231 247.01L376.091 246.36C376.032 246.328 375.967 246.312 375.901 246.312C375.834 246.312 375.769 246.328 375.711 246.36" fill="#399478"/>
<path d="M377.4 245.39L376.21 246.08C376.12 246.13 376.13 246.23 376.21 246.29L377.35 246.95C377.409 246.979 377.474 246.995 377.54 246.995C377.606 246.995 377.671 246.979 377.73 246.95L378.92 246.26C379.01 246.2 379 246.11 378.92 246.04L377.78 245.38C377.721 245.351 377.656 245.335 377.59 245.335C377.524 245.335 377.459 245.351 377.4 245.38" fill="#399478"/>
<path d="M379.089 244.42L377.899 245.1C377.799 245.16 377.809 245.26 377.899 245.32L379.039 245.98C379.098 246.01 379.163 246.026 379.229 246.026C379.295 246.026 379.361 246.01 379.419 245.98L380.609 245.3C380.709 245.24 380.689 245.14 380.609 245.08L379.479 244.42C379.421 244.391 379.355 244.375 379.289 244.375C379.223 244.375 379.158 244.391 379.099 244.42" fill="#399478"/>
<path d="M380.769 243.44L379.579 244.13C379.479 244.19 379.499 244.29 379.579 244.35L380.709 245.01C380.768 245.04 380.833 245.056 380.899 245.056C380.965 245.056 381.031 245.04 381.089 245.01L382.279 244.33C382.379 244.27 382.369 244.17 382.279 244.11L381.139 243.45C381.08 243.423 381.015 243.409 380.949 243.409C380.884 243.409 380.819 243.423 380.759 243.45" fill="#399478"/>
<path d="M382.449 242.47L381.259 243.16C381.169 243.22 381.179 243.32 381.259 243.38L382.399 244.04C382.458 244.07 382.523 244.085 382.589 244.085C382.655 244.085 382.72 244.07 382.779 244.04L383.969 243.35C384.059 243.3 384.049 243.2 383.969 243.14L382.829 242.48C382.77 242.451 382.705 242.436 382.639 242.436C382.573 242.436 382.508 242.451 382.449 242.48" fill="#399478"/>
<path d="M362.26 254.14L359.79 255.56C359.7 255.61 359.71 255.71 359.79 255.78L360.93 256.43C360.989 256.46 361.054 256.475 361.12 256.475C361.186 256.475 361.251 256.46 361.31 256.43L363.77 255.01C363.86 254.95 363.85 254.85 363.77 254.79L362.64 254.13C362.581 254.101 362.516 254.085 362.45 254.085C362.384 254.085 362.319 254.101 362.26 254.13" fill="#399478"/>
<path d="M361.47 252.7L360.28 253.39C360.18 253.45 360.19 253.54 360.28 253.61L361.41 254.26C361.469 254.291 361.534 254.308 361.6 254.308C361.667 254.308 361.732 254.291 361.79 254.26L362.98 253.57C363.08 253.52 363.07 253.42 362.98 253.35L361.85 252.7C361.791 252.67 361.726 252.655 361.66 252.655C361.594 252.655 361.529 252.67 361.47 252.7Z" fill="#399478"/>
<path d="M363.15 251.73L361.96 252.42C361.87 252.47 361.88 252.57 361.96 252.64L363.1 253.29C363.159 253.319 363.224 253.334 363.29 253.334C363.356 253.334 363.421 253.319 363.48 253.29L364.66 252.6C364.76 252.54 364.75 252.45 364.66 252.38L363.52 251.73C363.462 251.698 363.397 251.682 363.33 251.682C363.264 251.682 363.199 251.698 363.14 251.73" fill="#399478"/>
<path d="M364.88 250.76L363.69 251.45C363.59 251.5 363.6 251.6 363.69 251.67L364.83 252.32C364.89 252.349 364.955 252.364 365.02 252.364C365.086 252.364 365.151 252.349 365.21 252.32L366.4 251.63C366.5 251.57 366.48 251.48 366.4 251.41L365.27 250.76C365.212 250.728 365.147 250.712 365.08 250.712C365.014 250.712 364.949 250.728 364.89 250.76" fill="#399478"/>
<path d="M366.519 249.79L365.329 250.47C365.229 250.53 365.239 250.63 365.329 250.69L366.459 251.35C366.518 251.379 366.583 251.395 366.649 251.395C366.715 251.395 366.78 251.379 366.839 251.35L368.029 250.67C368.129 250.61 368.119 250.51 368.029 250.45L366.899 249.79C366.84 249.76 366.775 249.744 366.709 249.744C366.643 249.744 366.578 249.76 366.519 249.79Z" fill="#399478"/>
<path d="M368.199 248.82L367.009 249.5C366.909 249.56 366.929 249.66 367.009 249.72L368.139 250.38C368.198 250.41 368.263 250.425 368.329 250.425C368.395 250.425 368.46 250.41 368.519 250.38L369.709 249.7C369.809 249.64 369.799 249.54 369.709 249.48L368.569 248.82C368.51 248.79 368.445 248.774 368.379 248.774C368.313 248.774 368.248 248.79 368.189 248.82" fill="#399478"/>
<path d="M369.881 247.84L368.691 248.53C368.601 248.59 368.611 248.69 368.691 248.75L369.831 249.41C369.89 249.44 369.955 249.455 370.021 249.455C370.087 249.455 370.152 249.44 370.211 249.41L371.401 248.73C371.491 248.67 371.481 248.57 371.401 248.51L370.261 247.85C370.201 247.823 370.136 247.809 370.071 247.809C370.005 247.809 369.94 247.823 369.881 247.85" fill="#399478"/>
<path d="M371.57 246.87L370.38 247.56C370.28 247.62 370.29 247.71 370.38 247.78L371.52 248.43C371.578 248.462 371.644 248.478 371.71 248.478C371.776 248.478 371.842 248.462 371.9 248.43L373.09 247.74C373.19 247.69 373.17 247.59 373.09 247.52L371.96 246.87C371.901 246.841 371.836 246.826 371.77 246.826C371.704 246.826 371.639 246.841 371.58 246.87" fill="#399478"/>
<path d="M373.25 245.9L372.06 246.59C371.96 246.64 371.98 246.74 372.06 246.81L373.19 247.46C373.249 247.489 373.314 247.504 373.38 247.504C373.446 247.504 373.511 247.489 373.57 247.46L374.76 246.77C374.86 246.71 374.85 246.62 374.76 246.55L373.62 245.9C373.562 245.868 373.496 245.852 373.43 245.852C373.364 245.852 373.298 245.868 373.24 245.9" fill="#399478"/>
<path d="M374.93 244.93L373.74 245.62C373.65 245.62 373.66 245.77 373.74 245.84L374.88 246.49C374.939 246.519 375.004 246.534 375.07 246.534C375.135 246.534 375.2 246.519 375.26 246.49L376.44 245.8C376.54 245.74 376.53 245.65 376.44 245.58L375.3 244.93C375.241 244.898 375.176 244.882 375.11 244.882C375.043 244.882 374.978 244.898 374.92 244.93" fill="#399478"/>
<path d="M376.621 243.96L375.431 244.64C375.331 244.7 375.341 244.8 375.431 244.86L376.571 245.52C376.63 245.547 376.695 245.561 376.761 245.561C376.826 245.561 376.891 245.547 376.951 245.52L378.141 244.83C378.241 244.77 378.221 244.67 378.141 244.61L377.011 243.95C376.952 243.92 376.887 243.904 376.821 243.904C376.755 243.904 376.69 243.92 376.631 243.95" fill="#399478"/>
<path d="M378.3 242.99L377.11 243.67C377.01 243.73 377.02 243.83 377.11 243.89L378.24 244.55C378.299 244.58 378.364 244.595 378.43 244.595C378.496 244.595 378.561 244.58 378.62 244.55L379.81 243.87C379.91 243.81 379.9 243.71 379.81 243.65L378.68 242.99C378.621 242.96 378.556 242.944 378.49 242.944C378.424 242.944 378.359 242.96 378.3 242.99Z" fill="#399478"/>
<path d="M382.06 240.81L378.79 242.7C378.69 242.76 378.71 242.86 378.79 242.92L379.92 243.58C379.979 243.61 380.044 243.625 380.11 243.625C380.176 243.625 380.241 243.61 380.3 243.58L383.58 241.69C383.67 241.64 383.66 241.54 383.58 241.47L382.44 240.82C382.381 240.791 382.316 240.775 382.25 240.775C382.184 240.775 382.119 240.791 382.06 240.82" fill="#399478"/>
<path d="M359.79 253.64L358.16 254.58C358.07 254.64 358.08 254.74 358.16 254.8L359.3 255.46C359.358 255.49 359.423 255.506 359.489 255.506C359.556 255.506 359.621 255.49 359.679 255.46L361.3 254.52C361.4 254.47 361.38 254.37 361.3 254.31L360.17 253.65C360.11 253.623 360.045 253.609 359.98 253.609C359.914 253.609 359.849 253.623 359.79 253.65" fill="#399478"/>
<path d="M388.661 244.64L364.761 258.44C364.661 258.49 364.671 258.59 364.761 258.66L365.331 258.98C365.39 259.009 365.455 259.025 365.521 259.025C365.587 259.025 365.652 259.009 365.711 258.98L389.611 245.18C389.711 245.12 389.691 245.02 389.611 244.96L389.041 244.63C388.984 244.601 388.92 244.585 388.856 244.585C388.791 244.585 388.728 244.601 388.671 244.63" fill="#399478"/>
<path d="M360.689 245.23L360.839 245.32L364.969 247.7L372.309 243.46L372.459 243.38L368.179 240.9L360.689 245.23Z" fill="#BFBFBF"/>
<path d="M360.84 245.32L364.97 247.7L372.31 243.46L368.18 241.08L360.84 245.32Z" fill="#E5E5E5"/>
<path d="M348.881 250.8V251.16C348.881 251.424 348.95 251.685 349.082 251.914C349.213 252.144 349.403 252.336 349.631 252.47L364.191 260.87C364.418 261.004 364.677 261.073 364.941 261.07C365.208 261.072 365.47 261.003 365.701 260.87L392.061 245.64C392.292 245.508 392.484 245.317 392.617 245.087C392.75 244.857 392.821 244.596 392.821 244.33V243.97L364.971 260.04L348.881 250.8Z" fill="#E5E5E5"/>
<path d="M365.4 260.3C365.65 260.395 365.918 260.433 366.184 260.413C366.45 260.392 366.708 260.312 366.94 260.18L393.16 245.04C393.387 244.907 393.582 244.726 393.732 244.51C393.883 244.295 393.984 244.049 394.03 243.79L396.88 226.64C396.88 226.54 396.88 226.44 396.88 226.35C396.881 226.114 396.835 225.88 396.744 225.661C396.653 225.443 396.519 225.246 396.35 225.08L369.14 240.84C368.973 240.94 368.829 241.074 368.719 241.235C368.608 241.395 368.534 241.578 368.5 241.77L365.4 260.3Z" fill="#F4F4F4"/>
<path d="M364.971 260.07L365.151 260.18L365.401 260.3L368.501 241.77C368.534 241.578 368.608 241.395 368.719 241.235C368.829 241.074 368.973 240.94 369.141 240.84L396.391 225.11C396.284 225.001 396.163 224.906 396.031 224.83L368.721 240.64C368.553 240.737 368.408 240.869 368.297 241.028C368.187 241.187 368.113 241.369 368.081 241.56L364.971 260.07Z" fill="#E5E5E5"/>
<path d="M345.18 186.81C345.18 186.81 345.51 193.32 345.37 193.9C345.23 194.48 342.37 196.38 341.55 197.07C340.73 197.76 346.05 203.01 348.65 204.2C351.25 205.39 359.45 202.26 359.65 198.2C359.85 194.14 358.24 190.78 356.98 190.6C355.72 190.42 345.23 186.79 345.23 186.79" fill="#FFCEA9"/>
<path d="M344.449 195.02C344.449 195.02 349.179 202.07 355.769 202.73C357.849 200.73 358.039 193.38 355.159 191.05C355.159 191.05 357.809 188.92 359.619 189.33C361.563 190.511 363.01 192.36 363.689 194.53C365.372 199.384 366.162 204.504 366.019 209.64C365.909 216.55 366.019 234.02 366.019 234.02C366.019 234.02 365.019 240.7 359.069 244.02C354.316 246.701 348.721 247.473 343.419 246.18C340.079 245.4 338.839 243.53 337.689 241.1C337.989 236.26 339.899 226.29 339.099 220.19C338.299 214.09 336.999 209.56 336.669 204.63C336.339 199.7 337.319 199.8 339.789 198.05C341.271 196.942 342.828 195.94 344.449 195.05" fill="#F4F4F4"/>
<path d="M352.031 251.16C350.842 250.378 349.606 249.67 348.331 249.04C347.134 248.667 346.045 248.008 345.161 247.12C344.001 245.99 342.101 241.69 340.751 237.51C339.393 232.786 338.852 227.866 339.151 222.96C339.731 217.09 341.841 208.87 342.381 205.49C342.921 202.11 341.821 200.77 340.251 199.49C338.411 198.03 335.861 198.68 334.501 203.41C332.763 209.965 331.756 216.693 331.501 223.47C331.448 228.503 332.225 233.51 333.801 238.29C335.204 242.388 337.101 246.3 339.451 249.94C340.101 251.03 340.311 252 341.301 254.23C342.258 256.471 343.744 258.448 345.631 259.99C347.281 261.18 348.071 261.34 348.461 261.11C348.851 260.88 348.841 260.3 348.151 259.67C346.957 258.759 345.94 257.637 345.151 256.36C345.151 256.36 346.591 257.81 347.541 258.61C348.383 259.315 349.314 259.907 350.311 260.37C351.311 260.79 352.621 259.97 351.941 259.32C351.261 258.67 350.551 258.32 349.161 257.15C348.411 256.523 347.739 255.808 347.161 255.02C348.13 255.767 349.156 256.435 350.231 257.02C351.073 257.534 352.044 257.797 353.031 257.78C353.551 257.78 354.171 257.04 353.211 256.35C351.892 255.666 350.66 254.827 349.541 253.85C348.481 252.79 347.881 251.85 348.181 251.85C348.481 251.85 349.061 252.5 350.301 252.85C351.541 253.2 352.871 252.85 353.031 252.2C353.191 251.55 353.141 251.65 351.981 251.07" fill="#FFCEA9"/>
<path d="M359.88 177.1C359.1 172.04 355.46 168.21 350.25 168.5C348.93 168.571 347.638 168.902 346.446 169.474C345.255 170.046 344.188 170.847 343.306 171.832C342.425 172.816 341.746 173.965 341.309 175.212C340.872 176.459 340.686 177.78 340.76 179.1C340.85 180.633 341.291 182.126 342.051 183.461C342.81 184.797 343.868 185.939 345.14 186.8C345.325 187.567 345.593 188.311 345.94 189.02C347.79 191.17 353.37 192.51 354.94 192.28C357 191.98 358.11 191.12 359.09 188.87C360.82 184.87 360.28 179.6 359.85 177.1" fill="#FFCEA9"/>
<path d="M345.18 186.8L345.66 182.39C345.66 182.39 342.05 173.06 350.57 174.85C356.19 176.04 357.57 176.55 359.31 172.78C361.05 169.01 354.99 165.61 347.82 166.55C345.362 166.811 343.091 167.982 341.452 169.832C339.812 171.682 338.924 174.078 338.96 176.55C339.15 179.33 339.89 184.94 345.18 186.75" fill="#2B2A30"/>
<path d="M330.6 212.13C330.6 212.13 335.25 216.75 340.75 215.42C341.53 214.89 343.42 204.08 343.42 204.08C343.42 204.08 343.42 198.08 338.83 198.25C334.24 198.42 330.6 212.13 330.6 212.13Z" fill="#EDEDED"/>
<path d="M365.699 203.16C365.699 203.16 368.129 203.04 369.129 201.63C368.949 199.21 365.849 190.02 359.619 189.33C361.313 190.52 362.657 192.143 363.509 194.03C364.476 197.012 365.208 200.064 365.699 203.16Z" fill="#EDEDED"/>
<path d="M62.7599 3.96992C63.9899 1.96992 73.3599 0.699916 76.4499 8.63992C77.6199 11.6399 77.4499 19.3599 78.4499 24.1999C79.4499 29.0399 81.7299 31.7799 82.5599 35.7099C83.3899 39.6399 82.0399 46.2099 72.5599 47.3799C63.0799 48.5499 55.8199 45.2199 53.5599 42.1999C51.2999 39.1799 51.2799 32.7799 53.5599 29.3299C55.8399 25.8799 57.6499 23.0899 57.5599 18.5999L62.7599 3.96992Z" fill="#2B2A30"/>
<path d="M68.9497 2.64011C68.9497 2.64011 61.8897 0.640114 57.6097 4.43011C56.199 5.73124 55.1731 7.39505 54.644 9.23976C54.115 11.0845 54.1031 13.0391 54.6097 14.8901C55.1797 17.1201 56.3197 20.1601 58.0897 20.3301C59.8597 20.5001 68.9497 2.64011 68.9497 2.64011Z" fill="#2B2A30"/>
<path d="M71.6505 21.8599C71.6505 21.8599 71.1905 29.7299 71.3305 30.2999C71.4705 30.8699 74.4205 31.4399 75.2505 32.1299C76.0805 32.8199 70.9705 40.7999 68.3705 41.9799C65.7705 43.1599 57.7305 40.1499 57.1705 36.1499C56.6605 32.4599 59.4805 29.5999 60.5605 28.5999C61.2996 28.5485 62.0414 28.5485 62.7805 28.5999L63.0105 24.7799C66.5305 23.6599 71.6505 21.9099 71.6505 21.9099" fill="#FFCEA9"/>
<path d="M48.4999 63.8599C46.2677 66.9253 43.6266 69.6708 40.6499 72.02C39.7054 73.0045 38.811 74.0358 37.9699 75.1099C36.5649 76.7304 34.7472 77.9399 32.7099 78.6099C30.9299 79.0699 30.1799 78.9499 29.8799 78.6099C29.5799 78.2699 29.7199 77.76 30.4999 77.46C31.7596 77.0891 32.9326 76.4703 33.9499 75.6399C33.9499 75.6399 32.2899 76.4 31.2499 76.77C30.3113 77.0951 29.3318 77.287 28.3399 77.3399C27.3399 77.3399 26.3399 76.1999 27.1099 75.8699C27.8799 75.5399 28.5899 75.5099 30.1099 74.9399C30.9185 74.653 31.6853 74.2596 32.3899 73.77C31.3309 74.0848 30.2469 74.3089 29.1499 74.4399C28.2353 74.5898 27.297 74.4824 26.4399 74.13C25.9799 73.93 25.5799 73.1299 26.6099 72.8199C27.947 72.6924 29.2616 72.3898 30.5199 71.9199C31.7199 71.3699 32.5199 70.7999 32.2099 70.6799C31.8999 70.5599 31.2099 70.94 30.0499 70.85C28.8899 70.76 27.7199 70 27.7299 69.35C27.7399 68.7 27.9899 69.06 29.1699 68.96C30.3499 68.86 31.2899 68.3199 32.9799 68.3199C34.2459 68.3702 35.5118 68.2183 36.7299 67.8699C38.0099 67.4899 40.8899 64.0399 43.0999 60.8699C45.5004 57.3432 47.3985 53.4997 48.7399 49.4499C50.0699 45.0899 51.6499 36.93 52.7399 34.1C53.8299 31.27 55.8099 29.97 57.6599 29.91C59.8299 29.84 60.7599 32.6999 60.1799 35.1699C59.1799 39.4999 54.3399 56.1699 48.4599 63.8899" fill="#FFCEA9"/>
<path d="M72.7299 31.0698C74.9399 31.4098 77.4699 32.5898 77.8199 33.7998C78.2199 35.2198 79.0999 41.8698 77.1799 46.9398C75.2599 52.0098 73.0999 61.1398 71.9999 63.3298C71.9999 63.3298 63.2399 64.8898 55.5199 60.1098C55.5199 60.1098 55.0599 51.2998 55.0299 48.3998C47.9099 42.1798 54.0299 34.5298 60.0299 28.5698C60.752 28.5099 61.4778 28.5099 62.1999 28.5698C62.1999 28.5698 56.8199 34.9298 60.5599 38.5698C68.5599 36.1398 70.1699 32.5698 72.7299 31.1098" fill="#F4F4F4"/>
<path d="M56.9496 12.1C57.7396 7.1 61.3896 3.23 66.6096 3.53C68.7127 3.63801 70.7281 4.40721 72.3684 5.72795C74.0086 7.04869 75.1901 8.85355 75.7443 10.8852C76.2985 12.9169 76.1971 15.0717 75.4547 17.0424C74.7122 19.0131 73.3666 20.699 71.6096 21.86C71.4293 22.6251 71.1609 23.3668 70.8096 24.07C68.9496 26.22 64.0496 27.58 62.4296 27.6C61.0296 27.6 59.8196 26.31 58.5096 24.14C55.7796 19.61 56.5096 14.6 56.9096 12.14" fill="#FFCEA9"/>
<path d="M68.2203 3.64001C71.8803 4.36001 74.8903 5.39001 75.8803 8.98001C76.5603 11.46 77.4503 16.17 76.6003 18.16L76.0803 19.59L71.6503 21.88C71.6503 21.88 69.5803 20.15 70.2303 15.1C70.2023 14.4171 69.9841 13.7556 69.6003 13.19C69.3255 12.7151 69.1201 12.2032 68.9903 11.67C68.4682 10.3035 67.4406 9.18998 66.1203 8.56001C62.8203 6.71001 57.9903 8.31002 57.3203 8.97002C58.2502 6.96614 59.8408 5.3429 61.8253 4.37247C63.8099 3.40205 66.0677 3.14344 68.2203 3.64001Z" fill="#2B2A30"/>
<path d="M48.0793 124.64C46.2293 126.15 43.3493 125.11 43.2093 125.25C41.3293 127.13 38.5193 128.78 36.4293 130.42C35.2793 131.33 33.4793 132.55 33.8093 134.29C34.3893 137.41 39.3793 136.45 41.2693 135.5C43.1593 134.55 44.6893 132.96 46.4693 131.85C47.7393 131.06 48.9893 130.66 49.1893 129.05C49.3093 128.05 48.4093 124.61 48.0793 124.64Z" fill="#2B2A30"/>
<path d="M49.1709 128.42C48.9209 129.96 47.6909 130.42 46.4309 131.17C44.6109 132.29 43.0209 133.92 41.1409 134.87C39.2609 135.82 35.0509 136.64 33.8809 134.4C34.5409 137.4 39.4509 136.46 41.3209 135.52C43.1909 134.58 44.7409 132.98 46.5209 131.87C47.7909 131.08 49.0409 130.68 49.2409 129.07C49.2644 128.854 49.2644 128.636 49.2409 128.42" fill="#DC8B2D"/>
<path d="M39.0608 119.64C37.3708 121.02 34.8108 120.25 34.6808 120.38C32.9608 122.11 30.4008 123.59 28.4808 125.1C27.4308 125.93 25.7808 127.04 26.0808 128.64C26.6108 131.5 31.1808 130.64 32.9108 129.75C34.6408 128.86 36.0408 127.42 37.6808 126.41C38.8408 125.69 39.9908 125.31 40.1708 123.84C40.2808 122.95 39.3608 119.61 39.0608 119.64Z" fill="#2B2A30"/>
<path d="M40.1496 123.21C39.9196 124.61 38.7896 125 37.6396 125.72C35.9796 126.72 34.5196 128.24 32.7896 129.11C31.0596 129.98 27.2196 130.72 26.0996 128.68C26.7096 131.43 31.1996 130.57 32.9096 129.68C34.6196 128.79 36.0396 127.36 37.6796 126.35C38.8396 125.62 39.9896 125.25 40.1696 123.78C40.1933 123.584 40.1933 123.386 40.1696 123.19" fill="#DC8B2D"/>
<path d="M64.6993 65.2701C59.6803 65.9318 54.576 65.1947 49.9493 63.1401C50.0293 64.7001 50.1093 66.1401 50.1093 66.1401C44.1093 70.3801 32.1093 77.5201 31.2793 82.4501C32.0593 98.0201 34.4293 120.26 35.0993 120.58C36.9893 121.48 38.3093 121.33 39.1893 120.44C39.1893 120.44 42.9793 107.25 41.8793 87.8901C41.8793 87.8901 62.8793 78.5901 64.2493 73.5101C65.0393 70.5801 64.8793 70.2101 64.8193 67.1801C64.8193 66.5501 64.7593 65.9301 64.6993 65.3101" fill="#FFCEA9"/>
<path d="M71.6692 63.25C67.5092 65.19 63.6692 65.43 58.9892 64.95C59.0492 67.03 59.2892 70.95 59.2892 70.95C53.2892 75.19 41.2892 82.33 40.4492 87.26C41.2392 102.83 42.6892 125.38 43.3792 125.66C44.1895 126.014 45.0792 126.147 45.9575 126.045C46.8359 125.943 47.6715 125.61 48.3792 125.08C48.3792 125.08 52.1692 112.08 51.0692 92.7C51.0692 92.34 69.0692 83.48 71.3492 81.13C73.7992 78.62 74.0792 75.31 74.0192 71.99C73.9592 68.87 73.0192 66.3 71.6892 63.25" fill="#FFCEA9"/>
<path d="M76.0808 66.55C76.0808 66.55 82.7408 78.34 71.6408 84.4C59.9408 90.79 52.8008 92.29 52.8008 92.29L51.0508 92.7C51.0508 92.7 51.8808 96.98 51.0508 104.95C51.0508 104.95 42.7008 107.87 32.0508 98.4901L28.5208 87.1301L28.1008 84.1301C27.8969 83.1007 27.9528 82.0368 28.2636 81.0345C28.5744 80.0323 29.1303 79.1234 29.8808 78.39C32.4308 76.08 40.5308 70.15 45.5708 66.75C50.6108 63.35 54.6308 60.11 54.6308 60.11L55.5108 59.29C55.5108 59.29 61.5108 64.04 72.4008 62.45C73.8464 63.6121 75.0986 64.9959 76.1108 66.55" fill="#DC8B2D"/>
<path d="M69.4793 84.0402C70.4793 83.3502 71.1593 82.3602 72.6993 81.5002C73.8938 80.905 74.9871 80.1254 75.9393 79.1902C76.9393 78.1902 78.4693 73.8902 79.2593 69.7102C79.9838 65.041 79.9026 60.2821 79.0193 55.6402C77.6383 50.0947 75.7745 44.6807 73.4493 39.4602C71.9693 36.3302 72.7993 34.4602 74.1493 33.0402C75.7393 31.4102 77.3993 31.4502 79.2793 35.8202C81.1593 40.1902 84.1693 48.4502 85.1293 54.8202C85.8885 59.5758 85.8243 64.4265 84.9393 69.1602C84.1499 73.2985 82.8674 77.3272 81.1193 81.1602C80.6293 82.2902 80.5493 83.2402 79.8793 85.5002C79.2275 87.7481 78.0442 89.8061 76.4293 91.5002C74.9893 92.8402 74.2593 93.1002 73.8593 92.9202C73.4593 92.7402 73.3893 92.1902 73.9793 91.5002C74.9937 90.4803 75.8137 89.2841 76.3993 87.9702C76.3993 87.9702 75.1893 89.5402 74.3993 90.4202C73.6847 91.195 72.867 91.868 71.9693 92.4202C71.0893 92.9502 69.6993 92.3302 70.2793 91.6202C70.8593 90.9102 71.4893 90.5202 72.6693 89.2002C73.2984 88.5077 73.8423 87.7422 74.2893 86.9202C73.4523 87.7518 72.5493 88.5143 71.5893 89.2002C70.8456 89.7965 69.947 90.1677 68.9993 90.2702C68.5093 90.2702 67.8293 89.7002 68.6593 88.9202C69.8316 88.1492 70.912 87.2467 71.8793 86.2302C72.7593 85.0902 73.2293 84.1702 72.9393 84.1802C72.6493 84.1902 72.1793 84.9002 71.0393 85.4302C69.8993 85.9602 68.5793 85.7802 68.3493 85.1502C68.1193 84.5202 68.4693 84.7402 69.5093 84.0402" fill="#FFCEA9"/>
<path d="M82.1902 41.7C82.1902 41.7 78.1902 45.28 73.6602 44.55L71.8802 37.05C71.8802 37.05 70.6902 33.05 74.0802 31.59C77.4702 30.13 80.6902 34.03 82.1502 41.7" fill="#EDEDED"/>
<path d="M60.0293 28.5701C60.0293 28.5701 55.6593 27.2401 51.0293 36.9201L52.7593 37.9701C52.7593 37.9701 57.3293 31.0601 60.0393 28.5701" fill="#EDEDED"/>
<path d="M29.8809 70.3199L45.4509 61.3199C45.5862 61.2418 45.7396 61.2007 45.8959 61.2007C46.0521 61.2007 46.2056 61.2418 46.3409 61.3199L73.6409 77.0799L57.6409 86.3299L29.8809 70.3199Z" fill="#F4F4F4"/>
<path d="M58.0195 82.7902L59.2095 83.4802C59.3095 83.4802 59.2895 83.6302 59.2095 83.7002L58.0695 84.3502C58.0121 84.3792 57.9488 84.3943 57.8845 84.3943C57.8202 84.3943 57.7569 84.3792 57.6995 84.3502L56.4795 83.6402C56.3795 83.5802 56.3895 83.4902 56.4795 83.4202L57.6195 82.7702C57.6779 82.7387 57.7432 82.7222 57.8095 82.7222C57.8758 82.7222 57.9411 82.7387 57.9995 82.7702" fill="#399478"/>
<path d="M56.3299 81.8201L57.5199 82.5101C57.6199 82.5101 57.6099 82.6601 57.5199 82.7201L56.3799 83.3801C56.3202 83.4072 56.2554 83.4211 56.1899 83.4211C56.1244 83.4211 56.0596 83.4072 55.9999 83.3801L54.8099 82.6901C54.7099 82.6301 54.7299 82.5301 54.8099 82.4701L55.9399 81.8101C55.9988 81.7802 56.0639 81.7646 56.1299 81.7646C56.1959 81.7646 56.261 81.7802 56.3199 81.8101" fill="#399478"/>
<path d="M54.6301 80.8302L55.8201 81.5202C55.9101 81.5802 55.9001 81.6702 55.8201 81.7402L54.6801 82.4001C54.623 82.4299 54.5595 82.4455 54.4951 82.4455C54.4307 82.4455 54.3672 82.4299 54.3101 82.4001L53.1201 81.7102C53.0201 81.6602 53.0301 81.5602 53.1201 81.5002L54.2601 80.8401C54.3192 80.811 54.3842 80.7959 54.4501 80.7959C54.516 80.7959 54.581 80.811 54.6401 80.8401" fill="#399478"/>
<path d="M52.9602 79.8699L54.1502 80.5599C54.2502 80.6199 54.2402 80.7099 54.1502 80.7799L53.0202 81.4299C52.9618 81.4614 52.8965 81.478 52.8302 81.478C52.7639 81.478 52.6986 81.4614 52.6402 81.4299L51.4502 80.7399C51.3502 80.6899 51.3602 80.5899 51.4502 80.5199L52.5802 79.8699C52.6393 79.8408 52.7043 79.8257 52.7702 79.8257C52.8361 79.8257 52.9011 79.8408 52.9602 79.8699Z" fill="#399478"/>
<path d="M51.2791 78.9001L52.4691 79.5901C52.5591 79.6401 52.5491 79.7401 52.4691 79.8101L51.3291 80.4601C51.27 80.4892 51.205 80.5043 51.1391 80.5043C51.0732 80.5043 51.0082 80.4892 50.9491 80.4601L49.7591 79.7701C49.6691 79.7101 49.6791 79.6201 49.7591 79.5501L50.8991 78.9001C50.9575 78.8685 51.0228 78.8521 51.0891 78.8521C51.1554 78.8521 51.2207 78.8685 51.2791 78.9001Z" fill="#399478"/>
<path d="M49.5891 77.9302L50.7791 78.6102C50.8791 78.6702 50.8691 78.7702 50.7791 78.8302L49.6491 79.4902C49.5902 79.5201 49.5251 79.5356 49.4591 79.5356C49.3931 79.5356 49.328 79.5201 49.2691 79.4902L48.0791 78.8102C47.9791 78.7502 47.9891 78.6502 48.0791 78.5902L49.2091 77.9302C49.268 77.9003 49.3331 77.8848 49.3991 77.8848C49.4651 77.8848 49.5302 77.9003 49.5891 77.9302Z" fill="#399478"/>
<path d="M47.8807 76.9498L49.0707 77.6398C49.1607 77.6998 49.1507 77.7898 49.0707 77.8598L47.9307 78.5198C47.8718 78.5497 47.8067 78.5652 47.7407 78.5652C47.6747 78.5652 47.6096 78.5497 47.5507 78.5198L46.3607 77.8298C46.2707 77.8298 46.2807 77.6798 46.3607 77.6198L47.5007 76.9598C47.5598 76.9307 47.6248 76.9155 47.6907 76.9155C47.7566 76.9155 47.8216 76.9307 47.8807 76.9598" fill="#399478"/>
<path d="M46.22 75.9801L47.41 76.6701C47.51 76.7201 47.5 76.8201 47.41 76.8901L46.28 77.5401C46.2209 77.5692 46.1559 77.5844 46.09 77.5844C46.0241 77.5844 45.9591 77.5692 45.9 77.5401L44.71 76.8501C44.61 76.7901 44.62 76.7001 44.71 76.6301L45.84 75.9801C45.8983 75.9486 45.9636 75.9321 46.03 75.9321C46.0963 75.9321 46.1616 75.9486 46.22 75.9801Z" fill="#399478"/>
<path d="M44.5408 75.01L45.7308 75.69C45.8208 75.75 45.8108 75.85 45.7308 75.91L44.5908 76.57C44.5312 76.5971 44.4664 76.6111 44.4008 76.6111C44.3353 76.6111 44.2705 76.5971 44.2108 76.57L43.0208 75.88C42.9308 75.82 42.9408 75.72 43.0208 75.66L44.1608 75C44.2197 74.9702 44.2848 74.9546 44.3508 74.9546C44.4169 74.9546 44.482 74.9702 44.5408 75" fill="#399478"/>
<path d="M42.8796 74.0298L44.0696 74.7198C44.1696 74.7798 44.1596 74.8798 44.0696 74.9398L42.8796 75.6398C42.8207 75.6697 42.7556 75.6852 42.6896 75.6852C42.6236 75.6852 42.5585 75.6697 42.4996 75.6398L41.3096 74.9598C41.2096 74.8998 41.2196 74.7998 41.3096 74.7398L42.4396 74.0798C42.4993 74.0527 42.564 74.0387 42.6296 74.0387C42.6951 74.0387 42.7599 74.0527 42.8196 74.0798" fill="#399478"/>
<path d="M41.1697 73.0599L42.3597 73.7499C42.4497 73.8099 42.4397 73.8999 42.3597 73.9699L41.2197 74.6199C41.1614 74.6514 41.0961 74.6679 41.0297 74.6679C40.9634 74.6679 40.8981 74.6514 40.8397 74.6199L39.6497 73.9299C39.5597 73.8799 39.5697 73.7799 39.6497 73.7099L40.7897 73.0599C40.8488 73.0308 40.9139 73.0156 40.9797 73.0156C41.0456 73.0156 41.1106 73.0308 41.1697 73.0599Z" fill="#399478"/>
<path d="M39.4797 72.09L40.6697 72.78C40.7697 72.83 40.7597 72.93 40.6697 73L39.5397 73.65C39.4806 73.6791 39.4156 73.6943 39.3497 73.6943C39.2839 73.6943 39.2188 73.6791 39.1597 73.65L37.9697 72.96C37.8697 72.9 37.8797 72.81 37.9697 72.74L39.0997 72.09C39.1581 72.0585 39.2234 72.042 39.2897 72.042C39.3561 72.042 39.4214 72.0585 39.4797 72.09Z" fill="#399478"/>
<path d="M37.8006 71.1201L38.9906 71.8001C39.0806 71.8601 39.0706 71.9601 38.9906 72.0201L37.8506 72.6801C37.7917 72.71 37.7266 72.7256 37.6606 72.7256C37.5946 72.7256 37.5295 72.71 37.4706 72.6801L36.2806 72.0001C36.1906 71.9401 36.2006 71.8401 36.2806 71.7801L37.4206 71.1201C37.4795 71.0903 37.5446 71.0747 37.6106 71.0747C37.6766 71.0747 37.7417 71.0903 37.8006 71.1201Z" fill="#399478"/>
<path d="M35.3 69.6402L37.3 70.7902C37.4 70.8502 37.39 70.9502 37.3 71.0102L36.1701 71.6702C36.1112 71.7 36.0461 71.7156 35.98 71.7156C35.914 71.7156 35.8489 71.7 35.79 71.6702L33.79 70.5202C33.69 70.4602 33.7 70.3602 33.79 70.3002L34.93 69.6402C34.9889 69.6103 35.054 69.5947 35.1201 69.5947C35.1861 69.5947 35.2512 69.6103 35.31 69.6402" fill="#399478"/>
<path d="M57.1497 80.4002L58.3397 81.0902C58.4397 81.1502 58.4297 81.2502 58.3397 81.3102L57.2097 81.9702C57.1508 82.0001 57.0857 82.0156 57.0197 82.0156C56.9536 82.0156 56.8885 82.0001 56.8297 81.9702L55.6397 81.2902C55.5397 81.2302 55.5497 81.1302 55.6397 81.0702L56.7697 80.4102C56.8293 80.3831 56.8941 80.3691 56.9597 80.3691C57.0252 80.3691 57.09 80.3831 57.1497 80.4102" fill="#399478"/>
<path d="M55.4602 79.4299L56.6502 80.1199C56.7502 80.1699 56.7402 80.2699 56.6502 80.3399L55.5102 80.9899C55.4511 81.019 55.3861 81.0341 55.3202 81.0341C55.2543 81.0341 55.1893 81.019 55.1302 80.9899L53.8802 80.3199C53.7802 80.2599 53.8002 80.1699 53.8802 80.0999L55.0102 79.4499C55.0686 79.4184 55.1339 79.4019 55.2002 79.4019C55.2665 79.4019 55.3318 79.4184 55.3902 79.4499" fill="#399478"/>
<path d="M53.7794 78.46L54.9594 79.14C55.0594 79.2 55.0494 79.3 54.9594 79.36L53.8194 80.02C53.7605 80.0499 53.6954 80.0654 53.6294 80.0654C53.5633 80.0654 53.4982 80.0499 53.4394 80.02L52.2494 79.34C52.1594 79.28 52.1694 79.18 52.2494 79.12L53.3894 78.46C53.4482 78.4301 53.5133 78.4146 53.5794 78.4146C53.6454 78.4146 53.7105 78.4301 53.7694 78.46" fill="#399478"/>
<path d="M52.0897 77.4798L53.2797 78.1698C53.3697 78.2198 53.3597 78.3198 53.2797 78.3898L52.1397 79.0398C52.0806 79.0689 52.0156 79.0841 51.9497 79.0841C51.8838 79.0841 51.8188 79.0689 51.7597 79.0398L50.5697 78.3498C50.4797 78.3498 50.4897 78.1998 50.5697 78.1298L51.7097 77.4798C51.7688 77.4507 51.8338 77.4355 51.8997 77.4355C51.9656 77.4355 52.0306 77.4507 52.0897 77.4798Z" fill="#399478"/>
<path d="M50.4102 76.5098L51.6002 77.1998C51.7002 77.2598 51.6902 77.3598 51.6002 77.4198L50.4602 78.0798C50.4013 78.1097 50.3362 78.1253 50.2702 78.1253C50.2042 78.1253 50.1391 78.1097 50.0802 78.0798L48.8802 77.3998C48.7802 77.3998 48.8002 77.2498 48.8802 77.1898L50.0102 76.5298C50.0699 76.5028 50.1347 76.4888 50.2002 76.4888C50.2657 76.4888 50.3305 76.5028 50.3902 76.5298" fill="#399478"/>
<path d="M48.7205 75.5398L49.9105 76.2298C50.0105 76.2298 50.0005 76.3798 49.9105 76.4498L48.7705 77.0998C48.7114 77.1289 48.6464 77.144 48.5805 77.144C48.5146 77.144 48.4496 77.1289 48.3905 77.0998L47.2005 76.4098C47.1105 76.3498 47.1205 76.2598 47.2005 76.1898L48.3405 75.5398C48.3971 75.5082 48.4608 75.4917 48.5255 75.4917C48.5903 75.4917 48.654 75.5082 48.7105 75.5398" fill="#399478"/>
<path d="M47.0408 74.5698L48.2308 75.2498C48.3208 75.3098 48.3108 75.4098 48.2308 75.4698L47.0908 76.1299C47.032 76.1597 46.9669 76.1753 46.9008 76.1753C46.8348 76.1753 46.7697 76.1597 46.7108 76.1299L45.5208 75.4498C45.4308 75.3898 45.4408 75.2898 45.5208 75.2298L46.6608 74.5698C46.7197 74.54 46.7848 74.5244 46.8508 74.5244C46.9169 74.5244 46.982 74.54 47.0408 74.5698Z" fill="#399478"/>
<path d="M45.3508 73.6398L46.5408 74.3298C46.6408 74.3798 46.6208 74.4798 46.5408 74.5498L45.4108 75.1998C45.3517 75.2289 45.2867 75.244 45.2208 75.244C45.1549 75.244 45.0899 75.2289 45.0308 75.1998L43.8408 74.5098C43.7408 74.4498 43.7508 74.3598 43.8408 74.2898L44.9808 73.6398C45.0392 73.6083 45.1045 73.5918 45.1708 73.5918C45.2372 73.5918 45.3025 73.6083 45.3608 73.6398" fill="#399478"/>
<path d="M43.6594 72.6402L44.8494 73.3202C44.9494 73.3802 44.9394 73.4802 44.8494 73.5402L43.7194 74.2002C43.6605 74.23 43.5954 74.2456 43.5294 74.2456C43.4634 74.2456 43.3983 74.23 43.3394 74.2002L42.1494 73.5202C42.0494 73.4602 42.0594 73.3602 42.1494 73.3002L43.2794 72.6402C43.3383 72.6103 43.4034 72.5947 43.4694 72.5947C43.5354 72.5947 43.6005 72.6103 43.6594 72.6402Z" fill="#399478"/>
<path d="M41.9705 71.64L43.1605 72.33C43.2605 72.39 43.2505 72.48 43.1605 72.55L42.0205 73.2C41.9621 73.2315 41.8969 73.248 41.8305 73.248C41.7642 73.248 41.6989 73.2315 41.6405 73.2L40.4505 72.5099C40.3505 72.5099 40.3705 72.3599 40.4505 72.2899L41.5805 71.64C41.6396 71.6108 41.7046 71.5957 41.7705 71.5957C41.8364 71.5957 41.9014 71.6108 41.9605 71.64" fill="#399478"/>
<path d="M40.2791 70.6401L41.4691 71.3201C41.5691 71.3801 41.5591 71.4801 41.4691 71.5401L40.3291 72.2001C40.2702 72.2299 40.2051 72.2455 40.1391 72.2455C40.0731 72.2455 40.008 72.2299 39.9491 72.2001L38.7591 71.5201C38.6691 71.4601 38.6791 71.3601 38.7591 71.3001L39.8791 70.6401C39.9362 70.6103 39.9997 70.5947 40.0641 70.5947C40.1285 70.5947 40.192 70.6103 40.2491 70.6401" fill="#399478"/>
<path d="M38.5994 69.6898L39.7894 70.3798C39.8794 70.4398 39.8694 70.5298 39.7894 70.5998L38.6494 71.2498C38.5911 71.2813 38.5258 71.2978 38.4594 71.2978C38.3931 71.2978 38.3278 71.2813 38.2694 71.2498L37.0794 70.5598C36.9894 70.5098 36.9994 70.4098 37.0794 70.3398L38.2194 69.6898C38.2785 69.6606 38.3435 69.6455 38.4094 69.6455C38.4753 69.6455 38.5403 69.6606 38.5994 69.6898Z" fill="#399478"/>
<path d="M58.8801 81.38L60.8801 82.54C60.9801 82.54 60.9701 82.69 60.8801 82.75L59.7501 83.41C59.6904 83.4371 59.6257 83.4511 59.5601 83.4511C59.4946 83.4511 59.4298 83.4371 59.3701 83.41L57.3701 82.25C57.2701 82.19 57.2801 82.1 57.3701 82.03L58.5101 81.38C58.5685 81.3485 58.6338 81.332 58.7001 81.332C58.7665 81.332 58.8318 81.3485 58.8901 81.38" fill="#399478"/>
<path d="M35.3792 69.64L36.5692 70.33C36.6227 70.3598 36.683 70.3754 36.7442 70.3754C36.8055 70.3754 36.8657 70.3598 36.9192 70.33L38.1192 69.64C38.2192 69.58 38.2192 69.49 38.1192 69.43H38.0192C37.9992 69.4234 37.9818 69.4107 37.9694 69.3936C37.9571 69.3766 37.9504 69.3561 37.9504 69.335C37.9504 69.3139 37.9571 69.2934 37.9694 69.2763C37.9818 69.2593 37.9992 69.2466 38.0192 69.24L39.2892 68.51C39.3892 68.45 39.3892 68.36 39.2892 68.3L38.5392 67.86C38.4832 67.8326 38.4216 67.8184 38.3592 67.8184C38.2968 67.8184 38.2353 67.8326 38.1792 67.86L36.9992 68.54L36.7492 68.68L36.5692 68.79L36.3992 68.89L35.3992 69.48C35.2992 69.54 35.2992 69.63 35.3992 69.68" fill="#399478"/>
<path d="M64.5408 79.0201L65.7308 79.7C65.8308 79.76 65.8208 79.86 65.7308 79.92L64.5908 80.58C64.5319 80.6099 64.4669 80.6255 64.4008 80.6255C64.3348 80.6255 64.2697 80.6099 64.2108 80.58L63.0208 79.9C62.9208 79.84 62.9408 79.74 63.0208 79.68L64.1508 79.0201C64.2097 78.9902 64.2748 78.9746 64.3408 78.9746C64.4069 78.9746 64.472 78.9902 64.5308 79.0201" fill="#399478"/>
<path d="M62.8799 78.0501L64.0699 78.7301C64.1699 78.7901 64.1599 78.8901 64.0699 78.9501L62.8799 79.6401C62.821 79.67 62.7559 79.6855 62.6899 79.6855C62.6239 79.6855 62.5588 79.67 62.4999 79.6401L61.3099 78.9601C61.2099 78.9001 61.2299 78.8001 61.3099 78.7401L62.4399 78.0801C62.4988 78.0502 62.5639 78.0347 62.6299 78.0347C62.6959 78.0347 62.761 78.0502 62.8199 78.0801" fill="#399478"/>
<path d="M61.1795 77.0801L62.3695 77.7601C62.4695 77.8201 62.4595 77.9201 62.3695 77.9801L61.2295 78.6401C61.1706 78.67 61.1055 78.6855 61.0395 78.6855C60.9735 78.6855 60.9084 78.67 60.8495 78.6401L59.6595 77.9601C59.5595 77.9001 59.5795 77.8001 59.6595 77.7401L60.7895 77.0801C60.8484 77.0502 60.9135 77.0347 60.9795 77.0347C61.0455 77.0347 61.1106 77.0502 61.1695 77.0801" fill="#399478"/>
<path d="M46.8807 68.8101L48.0707 69.5001C48.1707 69.5601 48.1607 69.6501 48.0707 69.7201L46.9307 70.3801C46.8718 70.41 46.8067 70.4256 46.7407 70.4256C46.6747 70.4256 46.6096 70.41 46.5507 70.3801L45.3607 69.6901C45.2607 69.6401 45.2807 69.5401 45.3607 69.4701L46.4907 68.8201C46.5498 68.791 46.6148 68.7759 46.6807 68.7759C46.7466 68.7759 46.8116 68.791 46.8707 68.8201" fill="#399478"/>
<path d="M45.1893 67.8399L46.3793 68.5299C46.4793 68.5899 46.4693 68.6799 46.3793 68.7499L45.2393 69.4099C45.1804 69.4398 45.1153 69.4554 45.0493 69.4554C44.9832 69.4554 44.9182 69.4398 44.8593 69.4099L43.6693 68.7199C43.5693 68.6699 43.5893 68.5699 43.6693 68.5099L44.7993 67.8499C44.8584 67.8208 44.9234 67.8057 44.9893 67.8057C45.0552 67.8057 45.1202 67.8208 45.1793 67.8499" fill="#399478"/>
<path d="M43.5096 66.8702L44.6996 67.5602C44.7996 67.6202 44.7896 67.7102 44.6996 67.7802L43.5596 68.4402C43.5007 68.4701 43.4356 68.4856 43.3696 68.4856C43.3036 68.4856 43.2385 68.4701 43.1796 68.4402L41.9896 67.7502C41.8896 67.7002 41.9096 67.6002 41.9896 67.5302L43.1196 66.8802C43.1787 66.8511 43.2437 66.8359 43.3096 66.8359C43.3755 66.8359 43.4405 66.8511 43.4996 66.8802" fill="#399478"/>
<path d="M41.8807 65.9L43.0707 66.59C43.1707 66.65 43.1607 66.74 43.0707 66.81L41.9307 67.47C41.8718 67.4999 41.8067 67.5154 41.7407 67.5154C41.6747 67.5154 41.6096 67.4999 41.5507 67.47L40.3607 66.78C40.2607 66.73 40.2807 66.63 40.3607 66.56L41.4907 65.91C41.5498 65.8809 41.6148 65.8657 41.6807 65.8657C41.7466 65.8657 41.8116 65.8809 41.8707 65.91" fill="#399478"/>
<path d="M59.0698 75.8499L60.6898 76.7899C60.7898 76.8499 60.7798 76.9499 60.6898 77.0099L59.5498 77.6699C59.4909 77.6998 59.4258 77.7154 59.3598 77.7154C59.2938 77.7154 59.2287 77.6998 59.1698 77.6699L57.5498 76.7299C57.4498 76.7299 57.4598 76.5799 57.5498 76.5199L58.6898 75.8599C58.7495 75.8329 58.8143 75.8188 58.8798 75.8188C58.9454 75.8188 59.0101 75.8329 59.0698 75.8599" fill="#399478"/>
<path d="M48.5491 69.7798L50.1791 70.7198C50.2691 70.7798 50.2591 70.8698 50.1791 70.9398L49.0391 71.5999C48.9802 71.6297 48.9151 71.6453 48.8491 71.6453C48.7831 71.6453 48.718 71.6297 48.6591 71.5999L47.0091 70.6398C46.9091 70.5898 46.9291 70.4898 47.0091 70.4198L48.1391 69.7699C48.1982 69.7407 48.2632 69.7256 48.3291 69.7256C48.395 69.7256 48.46 69.7407 48.5191 69.7699" fill="#399478"/>
<path d="M50.6692 71.0001L58.5792 75.5701C58.6792 75.6301 58.6692 75.7301 58.5792 75.7901L57.4492 76.4501C57.3903 76.4799 57.3252 76.4955 57.2592 76.4955C57.1932 76.4955 57.1281 76.4799 57.0692 76.4501L49.1592 71.8801C49.0592 71.8301 49.0692 71.7301 49.1592 71.6601L50.2992 71.0101C50.3583 70.981 50.4233 70.9658 50.4892 70.9658C50.5551 70.9658 50.6201 70.981 50.6792 71.0101" fill="#399478"/>
<path d="M58.3299 79.2L59.5199 79.88C59.6099 79.94 59.5999 80.04 59.5199 80.1L58.3799 80.76C58.3202 80.787 58.2554 80.801 58.1899 80.801C58.1244 80.801 58.0596 80.787 57.9999 80.76L56.8099 80.07C56.7199 80.01 56.7299 79.91 56.8099 79.85L57.9499 79.19C58.0088 79.1601 58.0739 79.1445 58.1399 79.1445C58.2059 79.1445 58.271 79.1601 58.3299 79.19" fill="#399478"/>
<path d="M56.6404 78.23L57.8304 78.91C57.9304 78.97 57.9204 79.07 57.8304 79.13L56.6904 79.79C56.6316 79.8199 56.5665 79.8354 56.5004 79.8354C56.4344 79.8354 56.3693 79.8199 56.3104 79.79L55.1204 79.11C55.0204 79.05 55.0404 78.95 55.1204 78.89L56.2504 78.23C56.3093 78.2001 56.3744 78.1846 56.4404 78.1846C56.5065 78.1846 56.5716 78.2001 56.6304 78.23" fill="#399478"/>
<path d="M54.9602 77.2501L56.1502 77.9401C56.2502 78.0001 56.2302 78.0901 56.1502 78.1601L55.0202 78.8201C54.9613 78.8499 54.8962 78.8655 54.8302 78.8655C54.7642 78.8655 54.6991 78.8499 54.6402 78.8201L53.4502 78.1301C53.3502 78.0801 53.3602 77.9801 53.4502 77.9101L54.5902 77.2601C54.6493 77.231 54.7143 77.2158 54.7802 77.2158C54.8461 77.2158 54.9111 77.231 54.9702 77.2601" fill="#399478"/>
<path d="M53.2791 76.2801L54.4691 76.9701C54.5591 77.0301 54.5491 77.1201 54.4691 77.1901L53.3291 77.8401C53.2707 77.8716 53.2054 77.8881 53.1391 77.8881C53.0728 77.8881 53.0075 77.8716 52.9491 77.8401L51.7591 77.1501C51.6691 77.1001 51.6791 77.0001 51.7591 76.9301L52.8991 76.2801C52.9582 76.251 53.0232 76.2358 53.0891 76.2358C53.155 76.2358 53.22 76.251 53.2791 76.2801Z" fill="#399478"/>
<path d="M51.5897 75.3102L52.7797 76.0002C52.8797 76.0002 52.8697 76.1502 52.7797 76.2202L51.6397 76.8702C51.5806 76.8993 51.5155 76.9145 51.4497 76.9145C51.3838 76.9145 51.3188 76.8993 51.2597 76.8702L50.0697 76.1802C49.9697 76.1202 49.9897 76.0302 50.0697 75.9602L51.1997 75.3102C51.258 75.2787 51.3233 75.2622 51.3897 75.2622C51.456 75.2622 51.5213 75.2787 51.5797 75.3102" fill="#399478"/>
<path d="M49.8801 74.3401L51.0701 75.0301C51.1701 75.0801 51.1501 75.1801 51.0701 75.2401L49.9401 75.9001C49.8804 75.9272 49.8157 75.9412 49.7501 75.9412C49.6846 75.9412 49.6198 75.9272 49.5601 75.9001L48.3701 75.2101C48.2701 75.1501 48.2801 75.0501 48.3701 74.9901L49.5101 74.3301C49.569 74.3002 49.6341 74.2847 49.7001 74.2847C49.7661 74.2847 49.8312 74.3002 49.8901 74.3301" fill="#399478"/>
<path d="M48.2303 73.3701L49.4203 74.0501C49.5103 74.1101 49.5003 74.2101 49.4203 74.2701L48.2803 74.9301C48.2214 74.96 48.1563 74.9756 48.0903 74.9756C48.0243 74.9756 47.9592 74.96 47.9003 74.9301L46.7103 74.2501C46.6203 74.1901 46.6303 74.0901 46.7103 74.0301L47.8503 73.3701C47.9092 73.3403 47.9743 73.3247 48.0403 73.3247C48.1063 73.3247 48.1714 73.3403 48.2303 73.3701Z" fill="#399478"/>
<path d="M46.5408 72.39L47.7308 73.08C47.8308 73.14 47.8208 73.24 47.7308 73.3L46.5908 73.96C46.5319 73.9898 46.4669 74.0054 46.4008 74.0054C46.3348 74.0054 46.2697 73.9898 46.2108 73.96L45.0208 73.27C44.9208 73.27 44.9408 73.12 45.0208 73.06L46.1508 72.3999C46.2105 72.3729 46.2753 72.3589 46.3408 72.3589C46.4064 72.3589 46.4711 72.3729 46.5308 72.3999" fill="#399478"/>
<path d="M44.8801 71.4202L46.0701 72.1102C46.1701 72.1702 46.1601 72.2602 46.0701 72.3302L44.9401 72.9802C44.8818 73.0117 44.8165 73.0282 44.7501 73.0282C44.6838 73.0282 44.6185 73.0117 44.5601 72.9802L43.3701 72.2902C43.2701 72.2902 43.2801 72.1402 43.3701 72.0702L44.5001 71.4202C44.5592 71.3911 44.6242 71.376 44.6901 71.376C44.756 71.376 44.821 71.3911 44.8801 71.4202Z" fill="#399478"/>
<path d="M43.1795 70.45L44.3695 71.14C44.4595 71.19 44.4495 71.29 44.3695 71.36L43.2295 72.01C43.1711 72.0415 43.1058 72.058 43.0395 72.058C42.9732 72.058 42.9079 72.0415 42.8495 72.01L41.6595 71.32C41.5695 71.32 41.5795 71.17 41.6595 71.1L42.7995 70.45C42.8586 70.4209 42.9236 70.4058 42.9895 70.4058C43.0554 70.4058 43.1204 70.4209 43.1795 70.45Z" fill="#399478"/>
<path d="M41.4901 69.4801L42.68 70.1701C42.78 70.2201 42.77 70.3201 42.68 70.3901L41.5401 71.0401C41.4809 71.0692 41.4159 71.0844 41.3501 71.0844C41.2842 71.0844 41.2192 71.0692 41.16 71.0401L39.9701 70.3501C39.8701 70.2901 39.8901 70.2001 39.9701 70.1301L41.1001 69.4801C41.1584 69.4486 41.2237 69.4321 41.2901 69.4321C41.3564 69.4321 41.4217 69.4486 41.48 69.4801" fill="#399478"/>
<path d="M39.8098 68.5098L40.9998 69.1898C41.0998 69.2498 41.0898 69.3498 40.9998 69.4098L39.8698 70.0698C39.8109 70.0996 39.7458 70.1152 39.6798 70.1152C39.6138 70.1152 39.5487 70.0996 39.4898 70.0698L38.2998 69.3898C38.1998 69.3298 38.2098 69.2298 38.2998 69.1698L39.4298 68.5098C39.4887 68.4799 39.5538 68.4644 39.6198 68.4644C39.6858 68.4644 39.7509 68.4799 39.8098 68.5098Z" fill="#399478"/>
<path d="M60.009 80.17L62.469 81.64C62.569 81.7 62.559 81.79 62.469 81.86L61.339 82.51C61.2807 82.5415 61.2154 82.558 61.149 82.558C61.0827 82.558 61.0174 82.5415 60.959 82.51L58.499 81.09C58.399 81.03 58.409 80.93 58.499 80.87L59.639 80.21C59.6979 80.1801 59.763 80.1646 59.829 80.1646C59.8951 80.1646 59.9602 80.1801 60.019 80.21" fill="#399478"/>
<path d="M60.7894 78.7402L61.9794 79.4202C62.0794 79.4802 62.0694 79.5802 61.9794 79.6402L60.8394 80.3002C60.7805 80.3301 60.7154 80.3456 60.6494 80.3456C60.5833 80.3456 60.5182 80.3301 60.4594 80.3002L59.2494 79.6402C59.1594 79.5802 59.1694 79.4802 59.2494 79.4202L60.3894 78.7602C60.4465 78.7304 60.5099 78.7148 60.5744 78.7148C60.6388 78.7148 60.7022 78.7304 60.7594 78.7602" fill="#399478"/>
<path d="M59.1093 77.7698L60.2993 78.4498C60.3993 78.5098 60.3893 78.6098 60.2993 78.6698L59.1693 79.3298C59.1105 79.3597 59.0454 79.3752 58.9793 79.3752C58.9133 79.3752 58.8482 79.3597 58.7893 79.3298L57.5693 78.6398C57.4693 78.5798 57.4793 78.4798 57.5693 78.4198L58.6993 77.7598C58.7582 77.7299 58.8233 77.7144 58.8893 77.7144C58.9554 77.7144 59.0205 77.7299 59.0793 77.7598" fill="#399478"/>
<path d="M57.4299 76.7898L58.6199 77.4798C58.7199 77.5398 58.6999 77.6298 58.6199 77.6998L57.4899 78.3598C57.431 78.3897 57.3659 78.4053 57.2999 78.4053C57.2339 78.4053 57.1688 78.3897 57.1099 78.3598L55.8799 77.6398C55.7799 77.6398 55.7899 77.4898 55.8799 77.4198L57.0199 76.7699C57.079 76.7407 57.144 76.7256 57.2099 76.7256C57.2758 76.7256 57.3408 76.7407 57.3999 76.7699" fill="#399478"/>
<path d="M55.7498 75.8201L56.9398 76.5101C57.0298 76.5101 57.0198 76.6601 56.9398 76.7301L55.7998 77.3801C55.7414 77.4117 55.6762 77.4281 55.6098 77.4281C55.5435 77.4281 55.4782 77.4117 55.4198 77.3801L54.2298 76.6901C54.1398 76.6901 54.1498 76.5401 54.2298 76.4701L55.3698 75.8201C55.4289 75.791 55.4939 75.7759 55.5598 75.7759C55.6257 75.7759 55.6907 75.791 55.7498 75.8201Z" fill="#399478"/>
<path d="M54.0604 74.8498L55.2504 75.5398C55.3504 75.5398 55.3404 75.6898 55.2504 75.7598L54.1104 76.4098C54.0513 76.4389 53.9863 76.454 53.9204 76.454C53.8545 76.454 53.7895 76.4389 53.7304 76.4098L52.5404 75.7198C52.4404 75.6598 52.4604 75.5698 52.5404 75.4998L53.6704 74.8498C53.7287 74.8183 53.794 74.8018 53.8604 74.8018C53.9267 74.8018 53.992 74.8183 54.0504 74.8498" fill="#399478"/>
<path d="M52.3799 73.8802L53.5699 74.5702C53.6699 74.5702 53.6499 74.7202 53.5699 74.7802L52.4399 75.4402C52.3802 75.4672 52.3154 75.4812 52.2499 75.4812C52.1844 75.4812 52.1196 75.4672 52.0599 75.4402L50.8799 74.7702C50.7799 74.7102 50.7899 74.6102 50.8799 74.5502L52.0199 73.8902C52.0788 73.8603 52.1439 73.8447 52.2099 73.8447C52.2759 73.8447 52.341 73.8603 52.3999 73.8902" fill="#399478"/>
<path d="M50.6993 72.9102L51.8793 73.6402C51.9693 73.7002 51.9593 73.8002 51.8793 73.8602L50.7393 74.5202C50.6804 74.55 50.6153 74.5656 50.5493 74.5656C50.4832 74.5656 50.4182 74.55 50.3593 74.5202L49.1693 73.8401C49.0793 73.7801 49.0893 73.6801 49.1693 73.6201L50.3093 72.9602C50.3682 72.9303 50.4332 72.9147 50.4993 72.9147C50.5653 72.9147 50.6304 72.9303 50.6893 72.9602" fill="#399478"/>
<path d="M49.0096 71.9399L50.1996 72.6199C50.2996 72.6799 50.2896 72.7799 50.1996 72.8399L49.0596 73.4999C49.0007 73.5297 48.9356 73.5453 48.8696 73.5453C48.8036 73.5453 48.7385 73.5297 48.6796 73.4999L47.4896 72.8199C47.3996 72.7599 47.4096 72.6599 47.4896 72.5999L48.6296 71.9399C48.6867 71.9101 48.7502 71.8945 48.8146 71.8945C48.879 71.8945 48.9425 71.9101 48.9996 71.9399" fill="#399478"/>
<path d="M47.3293 70.96L48.5193 71.65C48.6193 71.71 48.6093 71.8 48.5193 71.87L47.3893 72.53C47.3305 72.5599 47.2654 72.5755 47.1993 72.5755C47.1333 72.5755 47.0682 72.5599 47.0093 72.53L45.8193 71.84C45.7193 71.79 45.7293 71.69 45.8193 71.62L46.9493 70.97C47.0085 70.9409 47.0735 70.9258 47.1393 70.9258C47.2052 70.9258 47.2702 70.9409 47.3293 70.97" fill="#399478"/>
<path d="M45.6507 69.99L46.8807 70.64C46.9807 70.7 46.9607 70.79 46.8807 70.86L45.7507 71.51C45.6923 71.5415 45.627 71.558 45.5607 71.558C45.4943 71.558 45.429 71.5415 45.3707 71.51L44.1807 70.82C44.0807 70.77 44.0907 70.67 44.1807 70.6L45.3207 69.95C45.3798 69.9209 45.4448 69.9058 45.5107 69.9058C45.5766 69.9058 45.6416 69.9209 45.7007 69.95" fill="#399478"/>
<path d="M43.9705 69.0202L45.1605 69.7102C45.2505 69.7602 45.2405 69.8602 45.1605 69.9302L44.0205 70.5802C43.9614 70.6093 43.8964 70.6244 43.8305 70.6244C43.7646 70.6244 43.6996 70.6093 43.6405 70.5802L42.4505 69.8902C42.3605 69.8302 42.3705 69.7402 42.4505 69.6702L43.5905 69.0202C43.6489 68.9887 43.7142 68.9722 43.7805 68.9722C43.8469 68.9722 43.9122 68.9887 43.9705 69.0202Z" fill="#399478"/>
<path d="M40.2007 66.8499L43.4707 68.7399C43.5707 68.7899 43.5607 68.8899 43.4707 68.9599L42.3307 69.6099C42.2716 69.639 42.2066 69.6541 42.1407 69.6541C42.0748 69.6541 42.0098 69.639 41.9507 69.6099L38.6807 67.7199C38.5807 67.6599 38.5907 67.5599 38.6807 67.4999L39.8207 66.8399C39.8796 66.81 39.9447 66.7944 40.0107 66.7944C40.0767 66.7944 40.1418 66.81 40.2007 66.8399" fill="#399478"/>
<path d="M62.4804 79.71L64.1004 80.6499C64.2004 80.6999 64.1904 80.8 64.1004 80.86L62.9704 81.52C62.9108 81.547 62.846 81.561 62.7804 81.561C62.7149 81.561 62.6501 81.547 62.5904 81.52L60.9404 80.64C60.8404 80.58 60.8504 80.48 60.9404 80.42L62.0804 79.7599C62.1393 79.7301 62.2044 79.7145 62.2704 79.7145C62.3365 79.7145 62.4016 79.7301 62.4604 79.7599" fill="#399478"/>
<path d="M33.6095 70.6402L57.5095 84.4402C57.6095 84.5002 57.5995 84.5902 57.5095 84.6602L56.9395 84.9902C56.8824 85.02 56.8189 85.0356 56.7545 85.0356C56.6901 85.0356 56.6266 85.02 56.5695 84.9902L32.6595 71.1902C32.5695 71.1902 32.5795 71.0402 32.6595 70.9702L33.2295 70.6502C33.2886 70.6211 33.3536 70.606 33.4195 70.606C33.4854 70.606 33.5504 70.6211 33.6095 70.6502" fill="#399478"/>
<path d="M61.8806 71.5502L61.7306 71.6402L57.6106 74.0202L50.2906 69.7902L50.1406 69.7102L54.4106 67.2402L61.8806 71.5502Z" fill="#BFBFBF"/>
<path d="M61.7191 71.6399L57.6091 74.0199L50.2891 69.7899L54.4091 67.4199L61.7191 71.6399Z" fill="#E5E5E5"/>
<path d="M73.6192 77.0998V77.4698C73.6193 77.7333 73.5501 77.9922 73.4184 78.2204C73.2868 78.4486 73.0973 78.6381 72.8692 78.7698L58.3692 87.1398C58.139 87.2704 57.8788 87.3391 57.6142 87.3391C57.3495 87.3391 57.0894 87.2704 56.8592 87.1398L30.6192 71.9898C30.3903 71.8589 30.2003 71.6696 30.0685 71.4412C29.9368 71.2128 29.868 70.9535 29.8692 70.6898V70.3198L57.6092 86.3198L73.6192 77.0998Z" fill="#E5E5E5"/>
<path d="M57.6094 86.3498V87.3498C57.3475 87.3496 57.0898 87.2843 56.8594 87.1598L30.6194 71.9898C30.3893 71.8594 30.1979 71.6704 30.0644 71.4421C29.931 71.2138 29.8602 70.9543 29.8594 70.6898V70.3198L57.6094 86.3498Z" fill="#E5E5E5"/>
<path d="M57.1902 86.57C56.9422 86.6647 56.6763 86.703 56.4117 86.6823C56.1471 86.6615 55.8904 86.5822 55.6602 86.45L29.5302 71.36C29.3038 71.229 29.1087 71.0501 28.9584 70.836C28.8081 70.6218 28.7064 70.3775 28.6602 70.12L25.8002 53.06C25.7906 52.9636 25.7906 52.8664 25.8002 52.77C25.799 52.2946 25.9859 51.8381 26.3202 51.5L53.4802 67.18C53.6465 67.2786 53.7897 67.4117 53.9002 67.5704C54.0106 67.7292 54.0856 67.9098 54.1202 68.1L57.1902 86.57Z" fill="#F4F4F4"/>
<path d="M57.6108 86.35L57.4308 86.45L57.1908 86.57L54.1008 68.1C54.0662 67.9098 53.9912 67.7292 53.8808 67.5704C53.7703 67.4117 53.6271 67.2786 53.4608 67.18L26.3008 51.5C26.4095 51.3959 26.5304 51.3052 26.6608 51.23L53.8808 66.94C54.0489 67.0364 54.1935 67.169 54.3041 67.3281C54.4148 67.4872 54.4888 67.6688 54.5208 67.86L57.6108 86.35Z" fill="#E5E5E5"/>
</g>
<defs>
<clipPath id="clip0_984_5600">
<rect width="498.88" height="314.38" fill="white"/>
</clipPath>
</defs>
</svg>
