<svg width="639" height="583" viewBox="0 0 639 583" fill="none" xmlns="http://www.w3.org/2000/svg">
<path fill-rule="evenodd" clip-rule="evenodd" d="M297.97 42.4628C363.783 29.3043 432.846 -21.6829 491.766 10.4573C550.117 42.2872 544.119 127.407 567.651 189.57C592.781 255.956 654.215 318.336 634.077 386.402C613.921 454.526 536.563 487.804 471.187 515.608C416.55 538.846 356.715 520.732 297.97 529.351C223.982 540.207 148.82 608.757 83.4169 572.502C19.271 536.943 23.5184 442.674 11.1889 370.376C0.59579 308.259 -10.0446 242.736 17.5167 186.07C43.4456 132.76 100.569 105.141 153.335 78.122C198.642 54.9226 248.057 52.4423 297.97 42.4628Z" fill="#EFF7F5"/>
</svg>
