<svg width="642" height="470" viewBox="0 0 642 470" fill="none" xmlns="http://www.w3.org/2000/svg">
<g filter="url(#filter0_d_981_4797)">
<g clip-path="url(#clip0_981_4797)">
<path d="M293.085 16C308.39 7.16344 333.205 7.16344 348.511 16L565.883 141.5C581.188 150.337 581.188 164.663 565.883 173.5L348.511 299C333.205 307.837 308.39 307.837 293.085 299L75.7127 173.5C60.4073 164.663 60.4073 150.337 75.7127 141.5L293.085 16Z" fill="white"/>
<path d="M471.562 170.2L354.297 237.903L363.345 243.127L483.101 173.986L483.414 118.755L351.045 42.332L303.114 70.0054L312.162 75.2294L350.981 52.8172L469.773 121.402L428.41 145.283L471.565 170.198L471.562 170.2ZM472.388 130.35L472.221 160.055L446.579 145.25L472.388 130.35Z" fill="#DC8B2D"/>
<path d="M194.829 132.531L134.009 167.646L264.091 242.749L273.204 237.488L152.17 167.609L203.877 137.755L194.829 132.531Z" fill="#DC8B2D"/>
<path d="M216.153 144.842C219.422 156.53 228.792 167.732 244.326 176.7C259.86 185.668 279.263 191.079 299.505 192.966C301.213 193.125 302.923 193.259 304.638 193.368C334.392 195.254 365.401 189.604 388.26 176.406C428.084 153.414 428.313 116.132 388.77 93.302C368.275 81.4687 341.055 75.82 314.041 76.3112C288.936 76.7665 264.013 82.5219 244.831 93.5965C220.657 107.559 211.1 126.782 216.153 144.842ZM280.162 181.798C270.537 179.343 261.525 175.857 253.659 171.315C245.792 166.773 239.753 161.57 235.502 156.013C232.21 151.711 229.98 147.198 228.851 142.603C243.165 139.595 259.288 141.542 270.181 147.831L294.366 161.794C305.24 168.072 308.602 177.372 303.389 185.637C295.43 184.986 287.614 183.699 280.162 181.798ZM327.762 84.2361C346.691 85.5419 364.986 90.3491 379.438 98.6932C393.89 107.037 402.219 117.601 404.478 128.528C404.948 130.797 405.161 133.08 405.107 135.363C404.793 148.286 396.093 161.183 378.991 171.057C361.892 180.929 339.553 185.952 317.169 186.134C317.074 186.134 316.979 186.137 316.887 186.139C322.084 175.664 317.295 164.262 303.69 156.407L279.506 142.444C265.882 134.579 246.122 131.808 227.978 134.807C228.221 121.831 236.927 108.866 254.1 98.9511C274.222 87.3335 301.599 82.4313 327.762 84.2361Z" fill="#DC8B2D"/>
<path d="M299.292 144.97C317.326 155.382 346.772 155.322 364.933 144.836C383.095 134.35 383.196 117.351 365.163 106.94C347.13 96.5283 317.687 96.587 299.525 107.073C281.363 117.558 281.259 134.559 299.292 144.97ZM355.831 112.328C368.754 119.789 368.677 131.971 355.664 139.484C342.648 146.999 321.546 147.042 308.625 139.582C295.704 132.122 295.779 119.939 308.794 112.424C321.805 104.913 342.907 104.866 355.831 112.328Z" fill="#DC8B2D"/>
<path d="M279.659 259.922C279.634 264.071 282.411 267.97 287.476 270.894C292.541 273.818 299.29 275.42 306.48 275.407C313.673 275.392 320.44 273.761 325.543 270.814C330.646 267.868 333.467 263.961 333.497 259.808L333.702 226.013L333.741 219.702L322.81 219.724L312.559 219.745L312.59 214.748L312.701 196.741L301.228 196.763L301.09 219.769L279.913 219.812L279.828 233.666L279.659 259.922ZM322.951 225.931L322.743 259.832C322.711 264.979 315.435 269.179 306.524 269.196L306.521 269.198C302.207 269.207 298.152 268.245 295.107 266.488C292.063 264.73 290.398 262.392 290.416 259.897L290.622 225.998L322.951 225.931Z" fill="#DC8B2D"/>
</g>
</g>
<defs>
<filter id="filter0_d_981_4797" x="-16" y="0" width="673.596" height="479" filterUnits="userSpaceOnUse" color-interpolation-filters="sRGB">
<feFlood flood-opacity="0" result="BackgroundImageFix"/>
<feColorMatrix in="SourceAlpha" type="matrix" values="0 0 0 0 0 0 0 0 0 0 0 0 0 0 0 0 0 0 127 0" result="hardAlpha"/>
<feOffset dy="100"/>
<feGaussianBlur stdDeviation="32"/>
<feComposite in2="hardAlpha" operator="out"/>
<feColorMatrix type="matrix" values="0 0 0 0 0.580392 0 0 0 0 0.480471 0 0 0 0 0.223529 0 0 0 0.12 0"/>
<feBlend mode="normal" in2="BackgroundImageFix" result="effect1_dropShadow_981_4797"/>
<feBlend mode="normal" in="SourceGraphic" in2="effect1_dropShadow_981_4797" result="shape"/>
</filter>
<clipPath id="clip0_981_4797">
<path d="M293.085 16C308.39 7.16344 333.205 7.16344 348.511 16L565.883 141.5C581.188 150.337 581.188 164.663 565.883 173.5L348.511 299C333.205 307.837 308.39 307.837 293.085 299L75.7127 173.5C60.4073 164.663 60.4073 150.337 75.7127 141.5L293.085 16Z" fill="white"/>
</clipPath>
</defs>
</svg>
