<svg width="24" height="24" viewBox="0 0 24 24" fill="none" xmlns="http://www.w3.org/2000/svg">
<path d="M6.31125 4.8125C5.21133 4.8125 4.49219 5.53476 4.49219 6.48407C4.49219 7.41241 5.18991 8.15527 6.26904 8.15527H6.28992C7.41135 8.15527 8.10925 7.41241 8.10925 6.48407C8.08829 5.53476 7.41135 4.8125 6.31125 4.8125V4.8125Z" fill="white"/>
<path d="M4.68213 9.47559H7.89765V19.1496H4.68213V9.47559Z" fill="white"/>
<path d="M15.7904 9.24902C14.0558 9.24902 12.8926 10.879 12.8926 10.879V9.47607H9.677V19.1501H12.8924V13.7477C12.8924 13.4585 12.9134 13.1698 12.9984 12.963C13.2308 12.3854 13.7598 11.7871 14.6481 11.7871C15.8117 11.7871 16.277 12.6743 16.277 13.9748V19.1501H19.4923V13.6032C19.4923 10.6317 17.9059 9.24902 15.7904 9.24902V9.24902Z" fill="white"/>
</svg>
