<svg width="38" height="38" viewBox="0 0 38 38" fill="none" xmlns="http://www.w3.org/2000/svg">
<path d="M7.6754 10.7241C4.91821 11.7927 3 14.5598 3 17.8882V18.75C3 19.0261 3.22387 19.25 3.5 19.25C3.77612 19.25 4 19.0261 4 18.75V17.8882C4 14.7251 5.97643 12.1454 8.7136 11.4414C8.33665 11.2466 7.9891 11.0045 7.6754 10.7241Z" fill="black"/>
<path d="M11 11C13.2078 11 15 9.20875 15 7C15 4.7909 13.2078 3 11 3C8.79211 3 7 4.7909 7 7C7 9.20875 8.79211 11 11 11ZM11 4C12.6541 4 14 5.34582 14 7C14 8.65417 12.6541 10 11 10C9.34581 10 8 8.65417 8 7C8 5.34582 9.34581 4 11 4Z" fill="black"/>
<path d="M30.324 10.7246C30.0102 11.005 29.6627 11.247 29.2856 11.4418C32.0233 12.1464 34 14.7256 34 17.8882V18.75C34 19.0261 34.2238 19.25 34.5 19.25C34.7761 19.25 35 19.0261 35 18.75V17.8882C35 14.5603 33.0817 11.7936 30.324 10.7246Z" fill="black"/>
<path d="M27 11C29.2078 11 31 9.20875 31 7C31 4.7909 29.2078 3 27 3C24.7921 3 23 4.7909 23 7C23 9.20875 24.7921 11 27 11ZM27 4C28.6541 4 30 5.34582 30 7C30 8.65417 28.6541 10 27 10C25.3458 10 24 8.65417 24 7C24 5.34582 25.3458 4 27 4Z" fill="black"/>
<path d="M13.2856 11.4418C14.4714 11.747 15.5134 12.4049 16.3149 13.3085C16.6412 13.1665 16.9803 13.0487 17.3308 12.9592C16.5408 11.9607 15.5109 11.1847 14.324 10.7246C14.0102 11.005 13.6627 11.247 13.2856 11.4418Z" fill="black"/>
<path d="M24.7134 11.4414C24.3364 11.2466 23.9889 11.0045 23.6752 10.7241C22.4883 11.1841 21.4584 11.9603 20.6685 12.9591C21.0189 13.0486 21.358 13.1662 21.6842 13.3082C22.4856 12.4043 23.5276 11.7463 24.7134 11.4414Z" fill="black"/>
<path d="M13.25 19.5C13.25 22.675 15.826 25.25 19 25.25C22.1739 25.25 24.7499 22.675 24.7499 19.5C24.7499 16.3245 22.1739 13.75 19 13.75C15.826 13.75 13.25 16.3245 13.25 19.5ZM19 14.75C21.6191 14.75 23.7499 16.8808 23.7499 19.5C23.7499 22.1191 21.6191 24.25 19 24.25C16.3808 24.25 14.25 22.1191 14.25 19.5C14.25 16.8808 16.3808 14.75 19 14.75Z" fill="black"/>
<path d="M3.5 21.25C3.77614 21.25 4 21.0261 4 20.75C4 20.4739 3.77614 20.25 3.5 20.25C3.22386 20.25 3 20.4739 3 20.75C3 21.0261 3.22386 21.25 3.5 21.25Z" fill="black"/>
<path d="M34.5 21.25C34.7761 21.25 35 21.0261 35 20.75C35 20.4739 34.7761 20.25 34.5 20.25C34.2239 20.25 34 20.4739 34 20.75C34 21.0261 34.2239 21.25 34.5 21.25Z" fill="black"/>
<path d="M7.75 34.4999C7.75 34.776 7.97387 34.9999 8.25 34.9999C8.52612 34.9999 8.75 34.776 8.75 34.4999C8.75 30.0001 11.4722 26.3053 15.2942 25.1376C14.9614 24.9181 14.6496 24.6698 14.3614 24.3966C10.4648 25.8861 7.75 29.7951 7.75 34.4999Z" fill="black"/>
<path d="M23.6379 24.3975C23.3496 24.6707 23.0379 24.919 22.7051 25.1382C26.5277 26.3067 29.2501 30.001 29.2501 34.5C29.2501 34.7761 29.474 35 29.7501 35C30.0262 35 30.2501 34.7761 30.2501 34.5C30.2501 29.7959 27.535 25.8875 23.6379 24.3975Z" fill="black"/>
<path d="M20.2346 26.1346C19.91 26.1949 19.5775 26.232 19.2386 26.2438L20.2374 32.0599L20.2484 32.1107C20.2424 32.1327 20.2197 32.1732 20.1856 32.1937L19.1466 32.9757C19.0761 33.0079 18.9383 33.0079 18.8681 32.9757L17.8706 32.2223L17.8287 32.1937C17.7827 32.1659 17.7515 32.1046 17.7465 32.1031L18.5544 26.2335C18.2171 26.2115 17.8868 26.1649 17.5648 26.0948L16.7722 31.8785C16.6788 32.296 16.8936 32.7814 17.285 33.0331L18.2927 33.7943L18.3335 33.8221C18.5285 33.9413 18.7678 34.0008 19.0072 34.0008C19.2463 34.0008 19.4857 33.9413 19.6809 33.8221L20.7293 33.0331C21.1287 32.7762 21.3329 32.2845 21.2181 31.8622L20.2346 26.1346Z" fill="black"/>
</svg>