<svg width="38" height="38" viewBox="0 0 38 38" fill="none" xmlns="http://www.w3.org/2000/svg">
<path d="M10.4304 8.16794C10.573 9.20901 11.0769 10.1681 11.8555 10.88C12.6341 11.5918 13.6385 12.0119 14.6956 12.0677C15.7528 12.1235 16.7964 11.8115 17.6467 11.1856C18.4969 10.5598 19.1006 9.65911 19.3536 8.63892V8.6183V8.59767C19.5133 7.95146 19.5273 7.27823 19.3946 6.62602C19.2619 5.97382 18.9858 5.35872 18.586 4.82463C18.1862 4.29054 17.6725 3.85063 17.0816 3.53629C16.4907 3.22196 15.8371 3.04094 15.1676 3.00618C14.4981 2.97141 13.8291 3.08374 13.2084 3.33516C12.5877 3.58658 12.0305 3.97088 11.5767 4.46064C11.1229 4.9504 10.7836 5.53353 10.5831 6.16844C10.3825 6.80334 10.3257 7.47434 10.4166 8.13357C10.4166 8.13357 10.4166 8.13357 10.4166 8.15076C10.4207 8.15682 10.4254 8.16256 10.4304 8.16794ZM14.9336 11.3892C14.0559 11.3874 13.2049 11.0893 12.5206 10.5439C11.8363 9.99844 11.3594 9.23813 11.1682 8.38796C12.0758 8.22295 14.4694 7.67978 16.0524 6.20152C16.3988 6.9269 17.1747 8.21951 18.6019 8.75237C18.3482 9.51867 17.8575 10.186 17.1995 10.6594C16.5415 11.1329 15.7497 11.3882 14.937 11.3892H14.9336ZM14.9336 3.72975C15.9573 3.72975 16.9392 4.13312 17.6634 4.85123C18.3876 5.56934 18.7949 6.54344 18.7959 7.55945C18.7955 7.73202 18.7828 7.90435 18.7578 8.07512C17.147 7.40819 16.5097 5.49677 16.5062 5.47615C16.487 5.41797 16.4524 5.36594 16.4061 5.32544C16.3598 5.28495 16.3035 5.25746 16.2429 5.24582C16.1832 5.23379 16.1213 5.23762 16.0635 5.25694C16.0057 5.27626 15.9541 5.31037 15.9139 5.35582C14.556 6.91315 12.0238 7.52508 11.0851 7.70384C11.0851 7.65571 11.0851 7.60758 11.0851 7.55945C11.0869 6.5455 11.4931 5.57349 12.2149 4.85587C12.9367 4.13825 13.9154 3.73338 14.937 3.72975H14.9336Z" fill="black"/>
<path d="M27.5283 21.2592C28.3366 20.902 29.043 20.3515 29.5844 19.6569C30.1258 18.9624 30.4853 18.1454 30.6306 17.2792C30.7759 16.413 30.7025 15.5245 30.4171 14.6934C30.1316 13.8622 29.6429 13.1142 28.9948 12.5164C28.3467 11.9186 27.5593 11.4896 26.7032 11.2678C25.8471 11.046 24.9489 11.0383 24.0891 11.2455C23.2292 11.4526 22.4345 11.8681 21.7761 12.4547C21.1177 13.0414 20.6162 13.7809 20.3163 14.607C19.352 13.5717 18.0826 12.8654 16.6895 12.589L16.5475 12.5615C15.748 12.4161 14.9323 12.3791 14.1228 12.4515C13.8526 12.4756 13.5858 12.5134 13.333 12.5615L13.2187 12.5856C8.36913 13.586 7.16367 18.7289 6.86231 21.1801C4.46525 22.0155 3 23.174 3 24.4735V28.0144C3.00045 28.092 3.02731 28.1671 3.07621 28.2276C3.37757 30.634 8.78827 32.5351 15.7473 32.6452C15.7473 32.7861 15.7473 32.8686 15.7473 32.8789C15.7476 32.9482 15.7688 33.0158 15.8084 33.0728C15.8479 33.1299 15.9039 33.1737 15.969 33.1986C18.9638 34.3743 22.1532 34.9853 25.3737 35.0001C28.5942 34.9853 31.7836 34.3743 34.7783 33.1986C34.8434 33.1737 34.8994 33.1299 34.939 33.0728C34.9785 33.0158 34.9998 32.9482 35 32.8789C34.9688 32.7758 34.8788 22.8921 27.5283 21.2592ZM25.3425 11.8052C26.5217 11.8588 27.6365 12.3546 28.4615 13.1925C29.2866 14.0304 29.7604 15.1479 29.7872 16.3191C29.814 17.4904 29.3919 18.628 28.6061 19.5023C27.8202 20.3765 26.7293 20.9221 25.5538 21.0288H25.1381C23.9627 20.9227 22.8717 20.3778 22.0855 19.5042C21.2992 18.6306 20.8764 17.4934 20.9023 16.3224C20.9283 15.1513 21.4011 14.0336 22.2253 13.1952C23.0494 12.3567 24.1635 11.86 25.3425 11.8052ZM17.1121 14.0776C17.146 14.0323 17.1682 13.9795 17.1766 13.9238C17.1851 13.868 17.1796 13.811 17.1606 13.7579L17.029 13.3797C18.2328 13.7276 19.3011 14.4316 20.0911 15.3977C19.9193 16.2613 19.9674 17.1538 20.2312 17.9943C20.4949 18.8348 20.9659 19.5966 21.6014 20.2106C20.3053 20.0241 18.9996 19.9093 17.6906 19.8669L16.4679 14.9302L17.1121 14.0776ZM16.9736 19.8497H16.3224C15.1204 19.8497 13.9634 19.9012 12.8584 20.0009L14.0465 15.188H15.8132L16.9736 19.8497ZM13.6447 13.201C14.5022 13.0703 15.3748 13.0703 16.2323 13.201L16.4471 13.8095L15.9205 14.497H13.9565L13.43 13.8095L13.6447 13.201ZM12.848 13.3797L12.7129 13.7579C12.6945 13.8113 12.6895 13.8684 12.6986 13.9242C12.7077 13.98 12.7304 14.0326 12.7649 14.0776L13.4057 14.9302L12.1344 20.0559C10.5877 20.2146 9.05851 20.5115 7.56549 20.9429C7.88764 18.6568 9.0065 14.4867 12.848 13.3797ZM15.7716 31.9438C8.54233 31.851 3.73089 29.8709 3.73089 28.0144C3.73073 27.9443 3.70897 27.876 3.66854 27.8185V26.0068C3.86151 26.2066 4.07254 26.3884 4.29898 26.5499C5.31738 27.2788 6.89695 27.901 8.87487 28.3513C11.2954 28.8717 13.7661 29.1276 16.2427 29.1145C16.0134 30.049 15.8559 30.9995 15.7716 31.9576V31.9438ZM9.02728 27.681C7.14289 27.2512 5.64646 26.6496 4.70773 25.993C4.01494 25.498 3.66854 24.9892 3.66854 24.4804C3.66854 22.5724 8.75363 20.5304 16.3224 20.5304C18.509 20.5152 20.6921 20.7086 22.8415 21.1079C22.9454 21.1629 23.0528 21.211 23.1602 21.2592C19.1212 22.1599 17.275 25.5564 16.4297 28.427H16.3224C13.8704 28.4456 11.4239 28.1954 9.02728 27.681ZM16.4159 32.6452C16.4782 31.1703 17.1087 23.2015 23.4443 21.8986L23.5724 21.8711C24.7395 21.6614 25.9351 21.6614 27.1022 21.8711L27.2511 21.902C33.5729 23.205 34.2068 31.1841 34.2691 32.6486C28.5277 34.8668 22.1565 34.8656 16.4159 32.6452Z" fill="black"/>
</svg>