<svg width="38" height="38" viewBox="0 0 38 38" fill="none" xmlns="http://www.w3.org/2000/svg">
<path d="M4.59802 10.6309H4.598C3.98644 10.6309 3.5 11.1224 3.5 11.6939V15.8681C3.5 16.1397 3.63663 16.3935 3.82528 16.5551C4.032 16.7322 4.2886 16.8417 4.58564 16.9289L4.5926 16.9309L4.59259 16.931L12.6309 19.4164V17.9632V17.9619H13.1309C13.1261 17.1045 13.8605 16.3844 14.7372 16.3878L4.59802 10.6309ZM4.59802 10.6309C8.37541 10.6309 12.1507 10.6304 15.926 10.6299C19.972 10.6294 24.018 10.6288 28.0662 10.6289C28.6778 10.6289 29.1642 11.1205 29.1642 11.6918V15.8661C29.1642 16.1377 29.0276 16.3915 28.839 16.5531C28.6322 16.7301 28.3756 16.8397 28.0786 16.9268L28.0786 16.9268L28.0716 16.9289L20.0334 19.4144V17.9612L4.59802 10.6309ZM23.8221 21.5836C23.8159 21.5836 23.8097 21.5837 23.8034 21.5837C23.4998 21.5837 23.1924 21.5266 22.9315 21.4442C22.6846 21.3662 22.4191 21.2465 22.2401 21.082M23.8221 21.5836L22.5784 20.7138M23.8221 21.5836L24.1244 22.2484L25.9453 26.2525L25.9544 26.2725L25.9652 26.2916C25.9668 26.2944 25.9672 26.2965 25.9672 26.2983V26.3012C25.9672 26.8458 25.7871 27.373 25.4407 27.7579C25.1025 28.1336 24.5755 28.4085 23.8024 28.4085C23.0343 28.4085 22.505 28.1268 22.1628 27.7436C21.8123 27.3512 21.6329 26.8228 21.6324 26.3031M23.8221 21.5836L21.6324 26.3031M22.2401 21.082L22.5784 20.7138M22.2401 21.082C22.2401 21.0821 22.2402 21.0821 22.2402 21.0821L22.5784 20.7138M22.2401 21.082C22.2186 21.0623 22.2049 21.0566 22.2013 21.0552L22.1989 21.0545L22.1983 21.0543L22.1982 21.0543L22.198 21.0543L22.1968 21.0546C22.1961 21.0548 22.1952 21.055 22.1941 21.0554C22.1934 21.0557 22.1925 21.0561 22.1915 21.0566C22.1864 21.0589 22.1802 21.063 22.1742 21.0689C22.1683 21.0748 22.1652 21.0797 22.1635 21.0829M22.5784 20.7138C22.0528 20.2312 21.339 20.9505 21.8221 21.4535M22.1635 21.0829C22.1618 21.0801 22.1612 21.0785 22.1611 21.0782C22.161 21.0781 22.161 21.0781 22.1611 21.0785C22.1612 21.0789 22.1614 21.0795 22.1615 21.0804C22.1618 21.0821 22.1619 21.0839 22.1618 21.0854C22.1617 21.0867 22.1616 21.0873 22.1616 21.0873C22.1617 21.0873 22.162 21.0857 22.1635 21.0829ZM22.1635 21.0829C22.1639 21.0838 22.1645 21.0847 22.1652 21.0857C22.1682 21.0903 22.1735 21.0977 22.1827 21.1072L21.8221 21.4535M21.8221 21.4535L22.1827 21.1072C22.2804 21.2089 22.4562 21.3138 22.6665 21.403C22.8691 21.4889 23.0532 21.5392 23.1196 21.5533L23.7284 21.6824L23.4712 22.2491L21.6419 26.2796L21.6403 26.2832C21.6348 26.295 21.6329 26.3013 21.6324 26.3031M21.8221 21.4535L21.6324 26.3031M21.6324 26.3031C21.6323 26.3035 21.6323 26.3037 21.6323 26.3037L21.6323 26.3038C21.6323 26.3038 21.6323 26.3035 21.6324 26.303M21.6324 26.3031L21.1324 26.3012M21.6324 26.3025C21.6325 26.3023 21.6324 26.3024 21.6324 26.303H21.6324M21.6324 26.3025C21.6324 26.3026 21.6324 26.3028 21.6324 26.3029C21.6324 26.303 21.6324 26.303 21.6324 26.303M21.6324 26.3025C21.6324 26.3021 21.6324 26.3017 21.6324 26.3012H21.1324M21.6324 26.3025L21.1324 26.3012M21.6324 26.303L21.1324 26.3012M21.1324 26.3012C21.1324 27.5594 21.9956 28.9085 23.8024 28.9085C25.6092 28.9085 26.4672 27.6012 26.4672 26.3012C26.4677 26.2117 26.4447 26.1238 26.4005 26.0455L24.7975 22.5206C24.731 22.5315 24.6641 22.5388 24.5969 22.5411L24.5795 22.0414L25.0347 21.8344L25.0769 21.9273C25.2392 21.8687 25.4146 21.7924 25.6048 21.7096C26.1328 21.4797 26.7747 21.2002 27.5662 21.1136V21.0908V21.0867H28.0498C28.0552 21.0867 28.0607 21.0867 28.0662 21.0867L21.1324 26.3012ZM32.3104 21.5877L32.008 22.2525L30.1871 26.2566L30.178 26.2766L30.1672 26.2957C30.1657 26.2984 30.1653 26.3007 30.1653 26.3023L30.1653 26.3053C30.1653 26.8498 30.3454 27.377 30.6918 27.762C31.0299 28.1377 31.557 28.4126 32.33 28.4126C33.0981 28.4126 33.6275 28.1309 33.9696 27.7477C34.3202 27.3552 34.4996 26.8268 34.5 26.3072C34.4995 26.3053 34.4976 26.2991 34.4922 26.2874L34.4905 26.2837L34.4905 26.2837L32.6612 22.2531L32.404 21.6863L33.013 21.5573C33.0793 21.5433 33.2633 21.493 33.4659 21.4071C33.6763 21.3179 33.852 21.213 33.9497 21.1113L34.3104 21.4576L33.9497 21.1113C33.9589 21.1017 33.9643 21.0944 33.9673 21.0898C33.9679 21.0888 33.9685 21.0878 33.969 21.087C33.9673 21.0837 33.9641 21.0788 33.9582 21.073C33.9522 21.0671 33.946 21.063 33.9409 21.0606C33.9385 21.0595 33.9367 21.0589 33.9356 21.0587L33.9344 21.0584L33.9342 21.0584M32.3104 21.5877L33.9343 21.0584C33.9343 21.0584 33.9343 21.0584 33.9342 21.0584M32.3104 21.5877C32.3166 21.5877 32.3228 21.5877 32.329 21.5877C32.6327 21.5877 32.9402 21.5306 33.2009 21.4482C33.4479 21.3701 33.7132 21.2505 33.8921 21.0863L33.8923 21.0862C33.9138 21.0664 33.9275 21.0606 33.9311 21.0593L33.9335 21.0585L33.9341 21.0584L33.9342 21.0584M32.3104 21.5877L33.9342 21.0584M34.5 26.3066C34.5 26.3064 34.5 26.3065 34.5 26.3071H34.5001L34.5 26.3066ZM34.5 26.3066C34.5 26.3062 34.5 26.3057 34.5 26.3053H35L34.5 26.3066ZM16.3859 15.8867C15.8383 15.8873 15.291 15.8878 14.7381 15.8878L19.5334 17.9598C19.5382 17.1024 18.8037 16.3818 17.927 16.3857V15.8857C17.9266 15.8857 17.9263 15.8857 17.9259 15.8857C17.4089 15.8857 16.8972 15.8862 16.3859 15.8867ZM30.3537 21.095C29.8689 20.8943 29.2753 20.6844 28.5662 20.6148V20.5876L28.0671 20.5867C27.1322 20.585 26.3737 20.8451 25.7788 21.0913C25.6285 21.1535 25.5046 21.2076 25.3912 21.2572C25.26 21.3145 25.143 21.3656 25.0156 21.4159C24.7947 21.5031 24.6563 21.5384 24.5621 21.5417L24.2361 21.553C24.748 21.4804 25.1783 21.2909 25.5761 21.1156C25.6089 21.1012 25.6414 21.0868 25.6737 21.0727C26.2103 20.8377 26.7607 20.6124 27.565 20.5639L28.0349 20.5356V20.0648V18.9899C28.0349 18.9845 28.0352 18.98 28.0355 18.9766L28.0691 18.9764C28.0804 18.9763 28.09 18.978 28.0969 18.9801C28.0972 18.9836 28.0975 18.9882 28.0975 18.994V20.0689V20.5396L28.5674 20.568C29.3718 20.6165 29.9222 20.8418 30.4587 21.0768C30.491 21.0909 30.5235 21.1053 30.5563 21.1197C30.9542 21.295 31.3846 21.4846 31.8967 21.5572L31.5703 21.5458C31.4763 21.5425 31.3379 21.5072 31.1169 21.4199C30.9896 21.3696 30.8727 21.3185 30.7418 21.2612C30.6284 21.2116 30.5043 21.1574 30.3537 21.095ZM20.0612 28.282C20.61 29.2986 21.8584 30.3158 23.3108 30.4197C23.3076 30.4442 23.3049 30.469 23.3028 30.4941H5.6658C5.05202 30.4941 4.56254 30.0005 4.56257 29.4312L4.56355 19.0626L12.6309 21.5564V21.6063C12.6309 23.6097 14.3101 25.2363 16.3311 25.2363C18.3517 25.2363 20.0323 23.6106 20.0323 21.6063V21.5565L20.1577 21.5178C20.2064 21.7198 20.2877 21.9092 20.4006 22.0872C20.5551 22.331 20.76 22.5397 20.9918 22.7268L19.7724 25.4127C19.7723 25.4131 19.7721 25.4134 19.772 25.4138C19.6356 25.7123 19.5707 25.992 19.5678 26.283H19.5678V26.288V26.2913V26.2921L19.5676 26.3024C19.5675 26.3123 19.5675 26.3255 19.5677 26.3416C19.568 26.374 19.569 26.4184 19.5719 26.4733C19.5777 26.5829 19.5907 26.7352 19.6194 26.917C19.6766 27.2789 19.7977 27.7681 20.0561 28.2725L20.056 28.2725L20.0612 28.282ZM14.7313 17.9311H14.7331H17.9328C17.9455 17.9312 17.9542 17.9358 17.9598 17.9414C17.9627 17.9442 17.9641 17.9468 17.9648 17.9483C17.9649 17.9487 17.9651 17.9491 17.9652 17.9496C17.9655 17.9505 17.9656 17.9515 17.9656 17.953H17.9656V17.9558V21.6063C17.9656 22.4664 17.2385 23.193 16.3311 23.193C15.424 23.193 14.6976 22.4668 14.6976 21.6063L14.6976 17.9558L14.6976 17.9528C14.6976 17.9505 14.6979 17.9493 14.6984 17.9482C14.699 17.9468 14.7005 17.9442 14.7034 17.9414C14.7092 17.9357 14.7181 17.931 14.7313 17.9311ZM18.4656 21.6063V17.9558H14.1976V21.6063C14.1976 22.7533 15.1584 23.693 16.3311 23.693C17.5038 23.693 18.4656 22.7533 18.4656 21.6063ZM27.5349 30.4518H28.0349V29.9518V22.627C28.0557 22.6271 28.0766 22.6272 28.0975 22.6273V29.9559V30.4559H28.5975H30.742C30.7682 30.4582 30.7807 30.4635 30.7839 30.465C30.7841 30.4651 30.7843 30.4652 30.7845 30.4653C30.7856 30.468 30.7876 30.4743 30.7872 30.4848C30.787 30.4904 30.7861 30.495 30.7851 30.4986C30.7846 30.4986 30.7841 30.4987 30.7836 30.4988C30.778 30.4996 30.7686 30.5004 30.7548 30.4998L30.7429 30.4992H30.731C29.9089 30.4992 29.0709 30.4982 28.2248 30.4972C27.2902 30.496 26.3456 30.4949 25.4014 30.4951L25.3895 30.4951L25.3776 30.4957C25.3639 30.4963 25.3545 30.4955 25.3489 30.4947C25.3484 30.4946 25.3479 30.4945 25.3474 30.4945C25.3463 30.491 25.3454 30.4863 25.3452 30.4807C25.3448 30.4702 25.3468 30.4639 25.3479 30.4612C25.3481 30.4611 25.3483 30.461 25.3485 30.4609C25.3517 30.4594 25.3642 30.4541 25.3904 30.4518H27.5349ZM24.2588 22.6825L23.8036 21.6793L23.3482 22.6824L22.0366 25.5708L21.7157 26.2775H22.4919H25.1139H25.8898L25.5693 25.571L24.2588 22.6825ZM32.7843 22.6864L32.3288 21.6834L31.8737 22.6866L30.5632 25.575L30.2426 26.2816H31.0185H33.6405H34.4167L34.0958 25.5749L32.7843 22.6864ZM11.5005 8.56293C11.5005 7.99151 11.9869 7.5 12.5985 7.5H20.0636C20.6774 7.5 21.1668 7.9936 21.1668 8.56293V8.58662H21.0991V8.56293C21.0991 7.97328 20.6288 7.54331 20.0636 7.54331H12.5985C12.1815 7.54331 11.805 7.77717 11.6429 8.16207C11.5898 8.28827 11.5631 8.42409 11.5631 8.56293V8.58662H11.5005V8.56293Z" stroke="black"/>
</svg>