<svg width="38" height="38" viewBox="0 0 38 38" fill="none" xmlns="http://www.w3.org/2000/svg">
<path d="M21.9914 24.3727C21.9914 22.723 20.6495 21.3809 18.9999 21.3809C17.3503 21.3809 16.0083 22.723 16.0083 24.3727C16.0083 26.0223 17.3503 27.3641 18.9999 27.3641C20.6495 27.3641 21.9914 26.0223 21.9914 24.3727ZM16.8083 24.3727C16.8083 23.1641 17.7915 22.1809 18.9999 22.1809C20.2083 22.1809 21.1915 23.1641 21.1915 24.3727C21.1915 25.5809 20.2083 26.5641 18.9999 26.5641C17.7915 26.5641 16.8083 25.5809 16.8083 24.3727Z" fill="black"/>
<path d="M14.1587 33.1679V34.6C14.1587 34.8211 14.3378 35 14.5587 35H23.4414C23.6623 35 23.8414 34.8211 23.8414 34.6V33.1679C23.8414 30.4984 21.6696 28.3265 19 28.3265C16.3305 28.3265 14.1587 30.4984 14.1587 33.1679ZM19 29.1265C21.2285 29.1265 23.0414 30.9394 23.0414 33.1679V34.2H14.9587V33.1679C14.9587 30.9394 16.7716 29.1265 19 29.1265Z" fill="black"/>
<path d="M4.84961 24.3727C4.84961 26.0223 6.19159 27.3641 7.84118 27.3641C9.49077 27.3641 10.8328 26.0223 10.8328 24.3727C10.8328 22.723 9.49077 21.3809 7.84118 21.3809C6.19159 21.3809 4.84961 22.723 4.84961 24.3727ZM10.0328 24.3727C10.0328 25.5809 9.04957 26.5641 7.84118 26.5641C6.63279 26.5641 5.6496 25.5809 5.6496 24.3727C5.6496 23.1641 6.63279 22.1809 7.84118 22.1809C9.04957 22.1809 10.0328 23.1641 10.0328 24.3727Z" fill="black"/>
<path d="M3 34.6C3 34.8211 3.1791 35 3.4 35H12.2825C12.5034 35 12.6825 34.8211 12.6825 34.6V33.1679C12.6825 30.4984 10.5109 28.3265 7.84136 28.3265C5.17185 28.3265 3 30.4984 3 33.1679V34.6ZM3.79999 33.1679C3.79999 30.9394 5.61286 29.1265 7.84136 29.1265C10.0697 29.1265 11.8825 30.9394 11.8825 33.1679V34.2H3.79999V33.1679Z" fill="black"/>
<path d="M33.1496 24.3727C33.1496 22.723 31.8077 21.3809 30.1581 21.3809C28.5085 21.3809 27.1665 22.723 27.1665 24.3727C27.1665 26.0223 28.5085 27.3641 30.1581 27.3641C31.8077 27.3641 33.1496 26.0223 33.1496 24.3727ZM27.9665 24.3727C27.9665 23.1641 28.9497 22.1809 30.1581 22.1809C31.3665 22.1809 32.3497 23.1641 32.3497 24.3727C32.3497 25.5809 31.3665 26.5641 30.1581 26.5641C28.9497 26.5641 27.9665 25.5809 27.9665 24.3727Z" fill="black"/>
<path d="M25.3174 33.1679V34.6C25.3174 34.8211 25.4965 35 25.7174 35H34.5999C34.8208 35 34.9999 34.8211 34.9999 34.6V33.1679C34.9999 30.4984 32.828 28.3265 30.1585 28.3265C27.489 28.3265 25.3174 30.4984 25.3174 33.1679ZM30.1585 29.1265C32.387 29.1265 34.1999 30.9394 34.1999 33.1679V34.2H26.1174V33.1679C26.1174 30.9394 27.9302 29.1265 30.1585 29.1265Z" fill="black"/>
<path d="M3 12.3043C3 13.6277 4.07655 14.7043 5.40193 14.7043L9.08646 14.6871L9.09427 17.4027C9.09466 17.5566 9.18334 17.6965 9.3222 17.7625C9.37708 17.7887 9.43587 17.8016 9.49427 17.8016C9.58392 17.8016 9.67298 17.7715 9.74544 17.7129L13.4749 14.7043H14.9999C16.3233 14.7043 17.3999 13.6277 17.3999 12.3043V5.4C17.3999 4.07656 16.3233 3 14.9999 3H5.39998C4.07655 3 3 4.07656 3 5.4V12.3043ZM3.79999 5.4C3.79999 4.51758 4.51776 3.8 5.39998 3.8H14.9999C15.8821 3.8 16.5999 4.51758 16.5999 5.4V12.3043C16.5999 13.1867 15.8821 13.9043 14.9999 13.9043H13.3337C13.2423 13.9043 13.1536 13.9355 13.0825 13.993L9.89192 16.5668L9.88528 14.284C9.88489 14.1777 9.84251 14.0762 9.76712 14.0012C9.69212 13.927 9.59075 13.8852 9.48529 13.8852C9.4847 13.8852 9.48411 13.8852 9.48333 13.8852L5.39998 13.9043C4.51776 13.9043 3.79999 13.1867 3.79999 12.3043V5.4Z" fill="black"/>
<path d="M35 5.4C35 4.07656 33.9234 3 32.6 3H23.0001C21.6766 3 20.6001 4.07656 20.6001 5.4V12.3043C20.6001 13.6277 21.6766 14.7043 23.0001 14.7043H24.5251L28.2545 17.7129C28.327 17.7715 28.416 17.8016 28.5057 17.8016C28.5641 17.8016 28.6229 17.7887 28.6777 17.7625C28.8166 17.6965 28.9053 17.5566 28.9057 17.4027L28.9135 14.6871L32.6 14.7043C33.9234 14.7043 35 13.6277 35 12.3043V5.4ZM34.2 12.3043C34.2 13.1867 33.4822 13.9043 32.6019 13.9043L28.5166 13.8852C28.5158 13.8852 28.5153 13.8852 28.5147 13.8852C28.4092 13.8852 28.3078 13.927 28.2328 14.0012C28.1574 14.0762 28.1151 14.1777 28.1147 14.284L28.108 16.5668L24.9174 13.993C24.8463 13.9355 24.7577 13.9043 24.6663 13.9043H23.0001C22.1179 13.9043 21.4001 13.1867 21.4001 12.3043V5.4C21.4001 4.51758 22.1179 3.8 23.0001 3.8H32.6C33.4822 3.8 34.2 4.51758 34.2 5.4V12.3043Z" fill="black"/>
</svg>