<svg width="38" height="38" viewBox="0 0 38 38" fill="none" xmlns="http://www.w3.org/2000/svg">
<path d="M30.9875 8.93467C23.1114 8.42887 20.9158 4.28135 20.8461 4.11275C20.5325 3.43836 19.8006 3.03372 19.0339 3C18.2672 3 17.5702 3.43836 17.2217 4.07903C17.1172 4.24763 14.9565 8.42887 7.0455 8.93467C6.45305 8.96839 6 9.44046 6 10.0137V20.9389C6 30.4141 18.093 34.764 18.6157 34.9326C18.7551 34.9663 18.8597 35 18.9991 35C19.1385 35 19.243 34.9663 19.3824 34.9326C19.9052 34.764 31.9981 30.4141 31.9981 20.9389V10.0474C32.033 9.47418 31.5799 9.00211 30.9875 8.93467ZM29.8026 20.9726C29.8026 28.0537 20.9855 31.9989 19.0339 32.7745C17.0823 31.9989 8.26525 28.0537 8.26525 20.9726V11.0253C15.3747 10.2497 18.2672 6.60801 19.0339 5.42782C19.8006 6.64173 22.6932 10.2497 29.8026 11.0253V20.9726Z" fill="#242424"/>
<path d="M20.0442 12.2391V11.6322C20.0442 11.0927 19.5911 10.6543 19.0335 10.6543C18.4759 10.6543 18.0229 11.0927 18.0229 11.6322V12.2391C17.6047 12.4752 17.2562 12.8461 17.1168 13.3182L13.806 13.2844C13.6318 13.2844 13.4575 13.4193 13.3878 13.5542L10.9483 18.2412C10.8786 18.3761 10.8438 18.5447 10.9135 18.6796C11.3317 20.1295 12.4817 21.0737 13.8757 21.0737C15.2697 21.0737 16.4198 20.1295 16.838 18.6796C16.8728 18.5447 16.8728 18.3761 16.8031 18.2412L14.8167 14.6332H17.0819C17.2562 15.0716 17.5698 15.4425 17.988 15.6785V21.9167C17.988 23.0969 17.0819 24.0747 15.8622 24.1759L13.9803 24.3782C13.7712 24.4119 13.6318 24.5805 13.6318 24.7829V25.8619C13.6318 26.0642 13.806 26.2665 14.05 26.2665H23.9474C24.1565 26.2665 24.3656 26.0979 24.3656 25.8619V24.7829C24.3656 24.5805 24.2262 24.4119 24.0171 24.3782L22.17 24.2096C20.9503 24.0747 20.0442 23.0969 20.0442 21.9504V15.6785C20.4624 15.4425 20.776 15.0716 20.9503 14.6332H23.2155L21.3336 18.2749C21.2639 18.4098 21.2291 18.5784 21.2988 18.7133C21.717 20.1633 22.867 21.1074 24.261 21.1074C25.655 21.1074 26.8051 20.1633 27.2233 18.7133C27.2581 18.5784 27.2581 18.4098 27.1884 18.2749L24.7489 13.5879C24.6095 13.4193 24.4701 13.3182 24.261 13.2844L20.9503 13.3182C20.8109 12.8461 20.4624 12.4752 20.0442 12.2391ZM15.4091 17.6006H12.2726L13.8409 14.5658L15.4091 17.6006ZM25.8293 17.6006H22.6928L24.261 14.5658L25.8293 17.6006Z" fill="#242424"/>
</svg>