<svg width="38" height="38" viewBox="0 0 38 38" fill="none" xmlns="http://www.w3.org/2000/svg">
<path d="M31.9725 11.2225C31.9409 10.3733 31.9409 9.55678 31.9409 8.7729C31.9409 8.15234 31.467 7.66241 30.8668 7.66241C26.223 7.62975 22.6849 6.25797 19.747 3.31845C19.3363 2.89385 18.6414 2.89385 18.2307 3.31845C15.2928 6.25797 11.7547 7.62975 7.14249 7.62975C6.54227 7.62975 6.06842 8.11967 6.06842 8.74024C6.06842 9.52411 6.06842 10.3406 6.03683 11.2225C5.87887 19.2899 5.65774 30.2968 18.6414 34.9347C18.7677 34.9673 18.8625 35 18.9888 35C19.1152 35 19.2416 34.9673 19.3363 34.9347C32.32 30.2968 32.0988 19.2899 31.9725 11.2225ZM18.9888 32.681C7.86906 28.5004 8.02701 19.3552 8.18497 11.2878C8.18497 10.7979 8.21656 10.3406 8.21656 9.88339C12.5444 9.65476 16.0194 8.31564 18.9888 5.63741C21.9583 8.31564 25.4333 9.68742 29.7611 9.85073C29.7611 10.308 29.7611 10.7652 29.7927 11.2552C29.9507 19.3552 30.1086 28.5004 18.9888 32.681Z" fill="#242424"/>
<path d="M22.716 15.1091L17.5036 20.4982L15.2607 18.1793C14.85 17.7547 14.1551 17.7547 13.7128 18.1793C13.3021 18.6039 13.3021 19.3224 13.7128 19.7797L16.7139 22.8825C16.935 23.1111 17.1877 23.2091 17.472 23.2091C17.7563 23.2091 18.0407 23.1111 18.2302 22.8825L24.2324 16.6769C24.643 16.2523 24.643 15.5337 24.2324 15.0764C23.8217 14.6518 23.1267 14.6518 22.716 15.1091Z" fill="#242424"/>
</svg>