<svg width="38" height="38" viewBox="0 0 38 38" fill="none" xmlns="http://www.w3.org/2000/svg">
<path d="M10.8484 18.895L5.20703 26.6627L6.03477 27.2758L11.3961 19.8929L17.6606 23.7855C17.7695 23.8532 17.8995 23.8773 18.0251 23.8531C18.1508 23.829 18.2629 23.7583 18.3396 23.655L23.5866 16.5895C25.0497 17.5302 26.8169 17.8619 28.517 17.5152C30.2172 17.1684 31.7183 16.1701 32.7052 14.7298C33.6921 13.2895 34.088 11.5192 33.8099 9.7904C33.5318 8.06163 32.6013 6.50886 31.2136 5.458C29.826 4.40714 28.0892 3.93992 26.3677 4.15439C24.6462 4.36886 23.074 5.24835 21.9809 6.60827C20.8879 7.96818 20.359 9.70277 20.5054 11.4479C20.6518 13.1931 21.462 14.8132 22.766 15.9681L17.7996 22.6556L11.531 18.7603C11.4213 18.6921 11.2901 18.668 11.1636 18.693C11.0372 18.7179 10.9246 18.79 10.8484 18.895ZM21.5193 10.916C21.5193 9.78936 21.8502 8.68804 22.47 7.75128C23.0899 6.81453 23.971 6.08442 25.0018 5.65328C26.0326 5.22214 27.1669 5.10933 28.2612 5.32913C29.3555 5.54892 30.3607 6.09144 31.1497 6.88808C31.9387 7.68473 32.4759 8.69971 32.6936 9.80469C32.9113 10.9097 32.7996 12.055 32.3726 13.0959C31.9456 14.1367 31.2225 15.0264 30.2948 15.6523C29.3671 16.2782 28.2764 16.6123 27.1607 16.6123C25.665 16.6105 24.2311 16.0098 23.1736 14.9419C22.116 13.874 21.5211 12.4262 21.5193 10.916Z" fill="#DC8B2D"/>
<path d="M26.7518 11.4827C26.788 11.583 26.8582 11.6704 26.9523 11.7323C27.0464 11.7942 27.1596 11.8275 27.2757 11.8275C27.3919 11.8275 27.5051 11.7942 27.5992 11.7323C27.6933 11.6704 27.7634 11.583 27.7997 11.4827L29.4544 6.97014C29.482 6.89465 29.4895 6.81425 29.4763 6.7356C29.463 6.65694 29.4293 6.58229 29.378 6.51782C29.3267 6.45335 29.2592 6.4009 29.1812 6.36482C29.1032 6.32873 29.0168 6.31005 28.9293 6.31031H25.62C25.5326 6.31037 25.4465 6.32928 25.3688 6.3655C25.2911 6.40172 25.2239 6.45421 25.1729 6.51864C25.1218 6.58306 25.0883 6.65759 25.0752 6.73609C25.062 6.81459 25.0695 6.89481 25.0971 6.97014L26.7518 11.4827ZM28.1637 7.3131L27.2746 9.73885L26.3855 7.3131H28.1637Z" fill="#DC8B2D"/>
<path d="M27.2758 12.931C27.0576 12.931 26.8442 12.9957 26.6628 13.117C26.4813 13.2382 26.3399 13.4106 26.2564 13.6122C26.1728 13.8138 26.151 14.0357 26.1936 14.2498C26.2361 14.4638 26.3412 14.6604 26.4956 14.8147C26.6499 14.9691 26.8465 15.0741 27.0605 15.1167C27.2746 15.1593 27.4965 15.1374 27.6981 15.0539C27.8997 14.9704 28.072 14.829 28.1933 14.6475C28.3145 14.4661 28.3793 14.2527 28.3793 14.0345C28.3793 13.7418 28.263 13.4612 28.0561 13.2542C27.8491 13.0473 27.5685 12.931 27.2758 12.931ZM27.2758 14.4023C27.2031 14.4023 27.132 14.3807 27.0715 14.3403C27.011 14.2999 26.9638 14.2424 26.936 14.1752C26.9082 14.108 26.9009 14.0341 26.9151 13.9627C26.9293 13.8914 26.9643 13.8258 27.0157 13.7744C27.0672 13.723 27.1327 13.6879 27.2041 13.6737C27.2754 13.6595 27.3494 13.6668 27.4166 13.6947C27.4838 13.7225 27.5412 13.7696 27.5816 13.8301C27.6221 13.8906 27.6436 13.9617 27.6436 14.0345C27.6436 14.132 27.6049 14.2256 27.5359 14.2946C27.4669 14.3635 27.3734 14.4023 27.2758 14.4023Z" fill="#DC8B2D"/>
<path d="M33.6097 27.6629L32.6318 27.9935L32.9625 28.9714L33.9404 28.6407L33.6097 27.6629Z" fill="#DC8B2D"/>
<path d="M32.9479 25.708L31.9702 26.0391L32.3013 27.0168L33.279 26.6857L32.9479 25.708Z" fill="#DC8B2D"/>
<path d="M32.2865 23.7521L31.3086 24.0828L31.6393 25.0606L32.6171 24.73L32.2865 23.7521Z" fill="#DC8B2D"/>
<path d="M31.6247 21.7961L30.647 22.1272L30.9781 23.1049L31.9558 22.7738L31.6247 21.7961Z" fill="#DC8B2D"/>
<path d="M30.9637 19.8404L29.9858 20.171L30.3165 21.1489L31.2944 20.8182L30.9637 19.8404Z" fill="#DC8B2D"/>
<path d="M30.3021 17.8844L29.3242 18.2151L29.6549 19.193L30.6327 18.8623L30.3021 17.8844Z" fill="#DC8B2D"/>
<path d="M35 35H3.51613C3.37924 35 3.24796 34.9456 3.15117 34.8488C3.05438 34.752 3 34.6208 3 34.4839V3H4.03226V33.9677H35V35Z" fill="#DC8B2D"/>
</svg>
