<svg width="38" height="38" viewBox="0 0 38 38" fill="none" xmlns="http://www.w3.org/2000/svg">
<path d="M25.8739 27.6312C25.7042 27.6351 25.5428 27.7032 25.4242 27.8209C25.3056 27.9386 25.2392 28.0965 25.2393 28.261C25.2379 29.4486 24.7502 30.5872 23.8832 31.4269C23.0162 32.2667 21.8407 32.739 20.6145 32.7403H8.92527C7.69914 32.739 6.52362 32.2667 5.65661 31.4269C4.78961 30.5872 4.30192 29.4486 4.30054 28.261V9.739C4.30192 8.55141 4.78961 7.41285 5.65661 6.5731C6.52362 5.73335 7.69914 5.26099 8.92527 5.25966H20.6041C21.2121 5.259 21.8143 5.37433 22.3763 5.59908C22.9383 5.82383 23.4491 6.15359 23.8795 6.56954C24.3099 6.98549 24.6515 7.47947 24.8848 8.02329C25.1182 8.5671 25.2386 9.1501 25.2393 9.739V20.8794C25.2393 21.0464 25.3078 21.2066 25.4297 21.3248C25.5517 21.4429 25.7171 21.5092 25.8895 21.5092C26.062 21.5092 26.2274 21.4429 26.3494 21.3248C26.4713 21.2066 26.5398 21.0464 26.5398 20.8794V9.739C26.5391 8.98468 26.3851 8.23788 26.0864 7.54124C25.7877 6.84459 25.3503 6.21174 24.7991 5.67883C24.248 5.14591 23.5938 4.72337 22.874 4.43531C22.1542 4.14726 21.3829 3.99934 20.6041 4H8.92527C7.35421 4.00134 5.8479 4.60641 4.73699 5.68239C3.62609 6.75837 3.00138 8.21733 3 9.739V28.261C3.00138 29.7827 3.62609 31.2416 4.73699 32.3176C5.8479 33.3936 7.35421 33.9987 8.92527 34H20.6041C22.1743 33.9973 23.6793 33.3917 24.7891 32.3158C25.8988 31.24 26.5228 29.7818 26.5242 28.261C26.5242 28.094 26.4557 27.9338 26.3337 27.8156C26.2118 27.6975 26.0464 27.6312 25.8739 27.6312Z" fill="#DC8B2D"/>
<path d="M21.2538 21.8065H8.24842C8.07595 21.8065 7.91055 21.8729 7.7886 21.991C7.66666 22.1091 7.59814 22.2693 7.59814 22.4363C7.59814 22.6034 7.66666 22.7636 7.7886 22.8817C7.91055 22.9998 8.07595 23.0662 8.24842 23.0662H21.2538C21.4263 23.0662 21.5917 22.9998 21.7136 22.8817C21.8356 22.7636 21.9041 22.6034 21.9041 22.4363C21.9041 22.2693 21.8356 22.1091 21.7136 21.991C21.5917 21.8729 21.4263 21.8065 21.2538 21.8065Z" fill="#DC8B2D"/>
<path d="M21.2538 17.9116H8.24842C8.07595 17.9116 7.91055 17.978 7.7886 18.0961C7.66666 18.2142 7.59814 18.3744 7.59814 18.5414C7.59814 18.7085 7.66666 18.8687 7.7886 18.9868C7.91055 19.1049 8.07595 19.1713 8.24842 19.1713H21.2538C21.4263 19.1713 21.5917 19.1049 21.7136 18.9868C21.8356 18.8687 21.9041 18.7085 21.9041 18.5414C21.9041 18.3744 21.8356 18.2142 21.7136 18.0961C21.5917 17.978 21.4263 17.9116 21.2538 17.9116Z" fill="#DC8B2D"/>
<path d="M21.2538 14.0117H8.24842C8.07595 14.0117 7.91055 14.0781 7.7886 14.1962C7.66666 14.3143 7.59814 14.4745 7.59814 14.6415C7.59814 14.8086 7.66666 14.9688 7.7886 15.0869C7.91055 15.205 8.07595 15.2714 8.24842 15.2714H21.2538C21.4263 15.2714 21.5917 15.205 21.7136 15.0869C21.8356 14.9688 21.9041 14.8086 21.9041 14.6415C21.9041 14.4745 21.8356 14.3143 21.7136 14.1962C21.5917 14.0781 21.4263 14.0117 21.2538 14.0117Z" fill="#DC8B2D"/>
<path d="M8.26941 11.3765H18.6737C18.8462 11.3765 19.0116 11.3101 19.1336 11.192C19.2555 11.0739 19.324 10.9137 19.324 10.7466C19.324 10.5796 19.2555 10.4194 19.1336 10.3013C19.0116 10.1832 18.8462 10.1168 18.6737 10.1168H8.26941C8.09695 10.1168 7.93155 10.1832 7.8096 10.3013C7.68765 10.4194 7.61914 10.5796 7.61914 10.7466C7.61914 10.9137 7.68765 11.0739 7.8096 11.192C7.93155 11.3101 8.09695 11.3765 8.26941 11.3765Z" fill="#DC8B2D"/>
<path d="M34.6029 22.3809C34.8056 22.1267 34.9363 21.8256 34.9819 21.5075C35.0275 21.1893 34.9866 20.8651 34.8631 20.567L34.6758 20.1891C34.569 19.9899 34.4219 19.8135 34.2431 19.6707C34.0643 19.5278 33.8576 19.4214 33.6353 19.3578C33.1342 19.1648 32.5758 19.1648 32.0747 19.3578L15.511 26.9862C15.4257 27.0266 15.3496 27.0831 15.2873 27.1525L13.0972 29.6718C13.0173 29.7654 12.9666 29.879 12.951 29.9995C12.9353 30.1199 12.9554 30.2422 13.0087 30.352C13.064 30.4642 13.1523 30.5579 13.2624 30.6216C13.3726 30.6853 13.4997 30.7159 13.6278 30.7098L17.0144 30.5838C17.1041 30.5829 17.1927 30.5641 17.2745 30.5284L33.4637 23.1367L33.4949 23.2173C33.5783 23.4426 33.5711 23.69 33.4747 23.9104C33.3783 24.1307 33.1998 24.3078 32.9747 24.4065L28.5736 26.4219C28.4273 26.503 28.3186 26.6353 28.2697 26.7915C28.2208 26.9478 28.2354 27.1162 28.3105 27.2624C28.3856 27.4085 28.5156 27.5214 28.6738 27.5778C28.832 27.6341 29.0065 27.6298 29.1615 27.5657L33.5625 25.5502C34.0859 25.3142 34.4981 24.8958 34.717 24.3784C34.9358 23.861 34.9453 23.2827 34.7434 22.7588L34.6029 22.3809ZM16.8323 29.3443L15.0584 29.4098L16.2081 28.0695L25.4471 23.8472L26.0662 25.1119L16.8323 29.3443ZM33.4377 21.736L33.3648 21.7662L27.2575 24.5425L26.6384 23.2778L32.6729 20.5116C32.829 20.4411 33.37 20.5116 33.4689 20.7131L33.6562 21.0961C33.6729 21.2118 33.6619 21.3298 33.6241 21.4407C33.5862 21.5517 33.5224 21.6527 33.4377 21.736Z" fill="#DC8B2D"/>
</svg>
