<svg width="38" height="38" viewBox="0 0 38 38" fill="none" xmlns="http://www.w3.org/2000/svg">
<path d="M7.30137 34.9999H24C23.5001 34.5 23 34 23 34H7.30137C6.45753 34 6 33.586 6 32.7674V5.5C6 4.6814 6.65616 4 7.5 4H18.5C19 4 19.6932 4.20233 20 4.5C20.2685 4.79767 20.5 5 20.5 5.5V9C20.5 10.2279 21.7342 11 23 11H26.5C28 11 28.2315 11.2767 28.5 11.5C28.7685 11.7977 29 12 29 13V23.5C29.2685 23.5744 29.7699 23.8884 30 24V12.6744C30 12.0791 29.7014 11.5209 29.2411 11.1116C29.2027 11.0744 29.126 11 29.0877 10.9628L20.8027 3.63256C20.3808 3.22326 19.6137 3 19 3H7.30137C6.03562 3 5 4.00465 5 5.23255V32.7674C5 33.9953 6.03562 34.9999 7.30137 34.9999ZM21.5 5.5L26.5 10H23C22.1562 10 21.4932 9.77208 21.4932 8.95348L21.5 5.5Z" fill="#DC8B2D"/>
<path d="M9.79469 10.8139H15.5481C15.7783 10.8139 15.9317 10.665 15.9317 10.4418C15.9317 10.2185 15.7783 10.0697 15.5481 10.0697H9.79469C9.56456 10.0697 9.41113 10.2185 9.41113 10.4418C9.41113 10.665 9.56456 10.8139 9.79469 10.8139Z" fill="#DC8B2D"/>
<path d="M9.79469 15.2791H20.5344C20.7646 15.2791 20.918 15.1303 20.918 14.907C20.918 14.6837 20.7646 14.5349 20.5344 14.5349H9.79469C9.56456 14.5349 9.41113 14.6837 9.41113 14.907C9.41113 15.1303 9.56456 15.2791 9.79469 15.2791Z" fill="#DC8B2D"/>
<path d="M24.7536 16.7674C24.7536 16.5441 24.6002 16.3953 24.37 16.3953H9.79469C9.56456 16.3953 9.41113 16.5441 9.41113 16.7674C9.41113 16.9906 9.56456 17.1394 9.79469 17.1394H24.37C24.6002 17.1394 24.7536 16.9906 24.7536 16.7674Z" fill="#DC8B2D"/>
<path d="M23.6029 18.6278C23.6029 18.4046 23.4495 18.2557 23.2194 18.2557H9.79469C9.56456 18.2557 9.41113 18.4046 9.41113 18.6278C9.41113 18.8511 9.56456 18.9999 9.79469 18.9999H23.2194C23.4495 18.9999 23.6029 18.8511 23.6029 18.6278Z" fill="#DC8B2D"/>
<path d="M9.79469 20.8604H14.3974C14.6276 20.8604 14.781 20.7116 14.781 20.4883C14.781 20.265 14.6276 20.1162 14.3974 20.1162H9.79469C9.56456 20.1162 9.41113 20.265 9.41113 20.4883C9.41113 20.7116 9.56456 20.8604 9.79469 20.8604Z" fill="#DC8B2D"/>
<path d="M9.79469 27.558H12.8632C13.0933 27.558 13.2467 27.4092 13.2467 27.1859C13.2467 26.9627 13.0933 26.8138 12.8632 26.8138H9.79469C9.56456 26.8138 9.41113 26.9627 9.41113 27.1859C9.41113 27.4092 9.56456 27.558 9.79469 27.558Z" fill="#DC8B2D"/>
<path d="M9.79469 29.4185H15.5481C15.7783 29.4185 15.9317 29.2697 15.9317 29.0464C15.9317 28.8232 15.7783 28.6743 15.5481 28.6743H9.79469C9.56456 28.6743 9.41113 28.8232 9.41113 29.0464C9.41113 29.2697 9.56456 29.4185 9.79469 29.4185Z" fill="#DC8B2D"/>
<path d="M27.2466 23.8373C24.063 23.8373 21.4932 26.3303 21.4932 29.4187C21.4932 32.507 24.063 35 27.2466 35C30.4302 35 33 32.507 33 29.4187C33 26.3303 30.4302 23.8373 27.2466 23.8373ZM27.6302 32.7675H26.863V31.9489H27.6302V32.7675ZM27.6302 31.0931H26.863V26.0698H27.6302V31.0931Z" fill="#DC8B2D"/>
</svg>
