<svg width="38" height="38" viewBox="0 0 38 38" fill="none" xmlns="http://www.w3.org/2000/svg">
<path d="M35 7.79982C35.0009 6.80188 34.6904 5.8285 34.1118 5.01536C33.5332 4.20222 32.7152 3.58983 31.7719 3.26355C30.8287 2.93727 29.8071 2.91335 28.8496 3.19513C27.8921 3.47691 27.0463 4.05034 26.4303 4.83551C23.3355 3.21302 19.7945 2.64812 16.3484 3.22712C12.9023 3.80613 9.74053 5.49719 7.34618 8.04195C4.95183 10.5867 3.45657 13.8452 3.08885 17.3196C2.72114 20.794 3.50119 24.2932 5.30983 27.2827C7.11847 30.2721 9.85623 32.5873 13.1048 33.8746C16.3534 35.1619 19.9342 35.3504 23.3001 34.4114C26.6659 33.4725 29.6318 31.4576 31.7445 28.6747C33.8572 25.8917 35.0006 22.4938 35 19C35.0047 16.679 34.4979 14.3855 33.5154 12.2826C34.33 10.7743 35 9.13318 35 7.79982ZM30.199 4.06644C31.189 4.06756 32.1381 4.46127 32.8382 5.16117C33.5382 5.86107 33.932 6.81001 33.9331 7.79982C33.9331 10.2036 31.2515 14.0399 30.199 15.4549C29.146 14.0399 26.4649 10.2057 26.4649 7.79982C26.4661 6.81001 26.8598 5.86107 27.5599 5.16117C28.2599 4.46127 29.209 4.06756 30.199 4.06644ZM25.5432 8.95024C25.2231 9.10633 24.9005 9.25069 24.5755 9.38331C24.0551 7.51053 23.1108 5.78256 21.8155 4.33311C23.227 4.60438 24.5918 5.07902 25.867 5.74219C25.5587 6.38436 25.3984 7.08751 25.3981 7.79982C25.4052 8.18738 25.4539 8.57305 25.5432 8.95024ZM18.9968 33.9335C17.1772 33.9335 15.5198 31.6935 14.4343 28.262C15.6999 27.8546 17.0145 27.6191 18.3428 27.5617C18.473 27.7324 18.5562 27.8385 18.5802 27.8668C18.6302 27.9293 18.6935 27.9797 18.7657 28.0144C18.8378 28.049 18.9168 28.067 18.9968 28.067C19.0768 28.067 19.1558 28.049 19.2279 28.0144C19.3 27.9797 19.3634 27.9293 19.4134 27.8668C19.4358 27.8385 19.5201 27.7324 19.6508 27.5617C20.9791 27.6191 22.2937 27.8546 23.5593 28.262C22.4738 31.6935 20.8164 33.9335 18.9968 33.9335ZM24.5734 28.6231C25.8819 29.1509 27.1085 29.8624 28.2162 30.7362C26.3474 32.2099 24.1522 33.2136 21.815 33.6631C23.1083 32.2165 24.052 30.4921 24.5734 28.6231ZM16.1765 33.6631C13.8392 33.2136 11.644 32.2099 9.77523 30.7362C10.883 29.8624 12.1096 29.1509 13.4181 28.6231C13.9394 30.4921 14.8832 32.2165 16.1765 33.6631ZM14.2348 19.5333C14.5015 21.8534 16.3968 24.8465 17.5954 26.5446C16.4195 26.6468 15.2585 26.8793 14.134 27.238C13.4919 24.7193 13.1562 22.1324 13.1343 19.5333H14.2348ZM18.9968 26.655C17.9438 25.2401 15.2627 21.4059 15.2627 19C15.2627 18.0098 15.6561 17.0602 16.3564 16.3601C17.0567 15.6599 18.0065 15.2666 18.9968 15.2666C19.9871 15.2666 20.9369 15.6599 21.6372 16.3601C22.3375 17.0602 22.7309 18.0098 22.7309 19C22.7309 21.4038 20.0493 25.2401 18.9968 26.655ZM20.3965 26.5446C21.5968 24.8465 23.4905 21.8512 23.7572 19.5333H24.8593C24.8368 22.1325 24.5006 24.7194 23.858 27.238C22.7335 26.8793 21.5725 26.6468 20.3965 26.5446ZM23.7663 18.4666C23.6316 17.2963 23.0711 16.2164 22.1917 15.4325C21.3122 14.6485 20.1751 14.2153 18.9968 14.2153C17.8185 14.2153 16.6814 14.6485 15.8019 15.4325C14.9224 16.2164 14.362 17.2963 14.2273 18.4666H13.1343C13.1565 15.8721 13.4916 13.2897 14.1324 10.7753C15.705 11.2774 17.3459 11.5331 18.9968 11.5332C20.648 11.5359 22.2895 11.2813 23.8623 10.7785C24.5021 13.2919 24.8369 15.8732 24.8593 18.4666H23.7663ZM18.9968 10.4665C17.4473 10.4619 15.908 10.216 14.4343 9.73745C15.5204 6.30647 17.1772 4.06644 18.9968 4.06644C20.8164 4.06644 22.4785 6.3134 23.5641 9.75345C22.0883 10.2284 20.5472 10.4691 18.9968 10.4665ZM13.4213 9.37318C12.113 8.84603 10.8864 8.13543 9.77843 7.26275C11.6465 5.79003 13.8405 4.78667 16.1765 4.33684C14.8848 5.78274 13.9422 7.50575 13.4213 9.37318ZM8.9404 7.97103C10.2013 8.99162 11.6105 9.81406 13.1194 10.41C12.4368 13.0417 12.0837 15.7479 12.068 18.4666H4.07383C4.14375 16.4813 4.61007 14.5301 5.44537 12.7276C6.28067 10.9251 7.46808 9.3079 8.93773 7.97103H8.9404ZM4.07383 19.5333H12.068C12.0829 22.253 12.4354 24.9603 13.1172 27.5932C11.6101 28.1902 10.203 29.0139 8.94467 30.0359C7.473 28.6987 6.28387 27.0806 5.44735 25.2769C4.61082 23.4732 4.14381 21.5203 4.07383 19.5333ZM29.0489 30.0359C27.7906 29.0139 26.3835 28.1902 24.8764 27.5932C25.5582 24.9603 25.9107 22.253 25.9256 19.5333H33.9198C33.8498 21.5203 33.3828 23.4732 32.5462 25.2769C31.7097 27.0806 30.5206 28.6987 29.0489 30.0359ZM33.9182 18.4666H25.9256C25.9108 15.7491 25.5587 13.044 24.8774 10.4132C25.2028 10.2841 25.5245 10.1435 25.8424 9.99132C26.9253 13.0676 29.6394 16.4885 29.7824 16.6677C29.8324 16.7302 29.8958 16.7806 29.9679 16.8153C30.04 16.8499 30.119 16.8679 30.199 16.8679C30.279 16.8679 30.358 16.8499 30.4301 16.8153C30.5023 16.7806 30.5657 16.7302 30.6156 16.6677C31.4245 15.6352 32.1726 14.5566 32.8561 13.4372C33.5028 15.0383 33.8623 16.7408 33.9182 18.4666Z" fill="#DC8B2D"/>
<path d="M30.1989 10.4665C30.7265 10.4665 31.2421 10.3101 31.6807 10.017C32.1194 9.72403 32.4612 9.30755 32.6631 8.82027C32.865 8.33299 32.9178 7.79681 32.8149 7.27952C32.712 6.76223 32.4579 6.28706 32.0849 5.91412C31.7119 5.54117 31.2367 5.28719 30.7193 5.1843C30.2019 5.0814 29.6656 5.13421 29.1782 5.33605C28.6909 5.53789 28.2743 5.87968 27.9812 6.31822C27.6882 6.75676 27.5317 7.27234 27.5317 7.79976C27.5326 8.50676 27.8139 9.18455 28.3139 9.68447C28.8139 10.1844 29.4918 10.4656 30.1989 10.4665ZM30.1989 6.19974C30.5154 6.19974 30.8249 6.29358 31.088 6.46939C31.3512 6.64521 31.5563 6.8951 31.6774 7.18746C31.7986 7.47983 31.8303 7.80154 31.7685 8.11191C31.7068 8.42229 31.5543 8.70738 31.3305 8.93115C31.1067 9.15492 30.8216 9.30731 30.5111 9.36904C30.2007 9.43078 29.8789 9.3991 29.5865 9.27799C29.2941 9.15689 29.0442 8.95181 28.8683 8.68869C28.6925 8.42557 28.5986 8.11622 28.5986 7.79976C28.5986 7.37541 28.7672 6.96844 29.0673 6.66838C29.3675 6.36831 29.7745 6.19974 30.1989 6.19974Z" fill="#DC8B2D"/>
<path d="M18.9963 16.3333C18.4688 16.3333 17.9531 16.4897 17.5145 16.7827C17.0759 17.0757 16.734 17.4922 16.5321 17.9795C16.3303 18.4667 16.2774 19.0029 16.3804 19.5202C16.4833 20.0375 16.7373 20.5127 17.1103 20.8856C17.4833 21.2585 17.9586 21.5125 18.476 21.6154C18.9933 21.7183 19.5296 21.6655 20.017 21.4637C20.5044 21.2618 20.9209 20.92 21.214 20.4815C21.5071 20.043 21.6635 19.5274 21.6635 19C21.6626 18.293 21.3814 17.6152 20.8814 17.1152C20.3813 16.6153 19.7034 16.3341 18.9963 16.3333ZM18.9963 20.6C18.6798 20.6 18.3704 20.5061 18.1072 20.3303C17.844 20.1545 17.6389 19.9046 17.5178 19.6123C17.3967 19.3199 17.365 18.9982 17.4267 18.6878C17.4885 18.3774 17.6409 18.0923 17.8647 17.8686C18.0885 17.6448 18.3737 17.4924 18.6841 17.4307C18.9945 17.3689 19.3163 17.4006 19.6087 17.5217C19.9011 17.6428 20.1511 17.8479 20.3269 18.111C20.5028 18.3742 20.5966 18.6835 20.5966 19C20.5966 19.4243 20.428 19.8313 20.1279 20.1313C19.8278 20.4314 19.4207 20.6 18.9963 20.6Z" fill="#DC8B2D"/>
</svg>