<svg width="38" height="38" viewBox="0 0 38 38" fill="none" xmlns="http://www.w3.org/2000/svg">
<path d="M31.0325 10.0315V26.3662H32.2929V9.68451L25.652 3H7.21338V9.67676H8.47377V4.26935H25.0212V10.0311H31.0325V10.0315ZM26.2827 5.16665L29.8546 8.76174H26.2827V5.16665Z" fill="#DC8B2D"/>
<path d="M7.21436 24.7615V33.2336H25.3344V31.9642H8.47475V24.7615H7.21436Z" fill="#DC8B2D"/>
<path d="M10.1847 24.7613C11.8222 25.9436 13.8262 26.6423 15.99 26.6423C18.1538 26.6423 20.1579 25.9436 21.7954 24.7613C21.9336 24.6617 22.0688 24.5587 22.2015 24.4524C24.5012 22.6076 25.9793 19.7662 25.9793 16.582C25.9793 11.0347 21.4978 6.52124 15.9897 6.52124C13.1346 6.52124 10.5574 7.7356 8.73518 9.67636C7.04159 11.4798 6 13.91 6 16.582C6.00073 19.95 7.65401 22.9346 10.1847 24.7613ZM19.1009 24.7613C18.1344 25.1356 17.0862 25.3427 15.9904 25.3427C14.8946 25.3427 13.8464 25.1356 12.8799 24.7613C12.1315 24.4716 11.4319 24.0826 10.7989 23.6068C11.433 22.247 12.7909 21.3589 14.3082 21.3589H17.677C19.1918 21.3589 20.5478 22.2466 21.1819 23.6068C20.5489 24.0826 19.8493 24.4716 19.1009 24.7613ZM10.6468 9.67673C12.1227 8.51589 13.9769 7.8216 15.99 7.8216C18.0032 7.8216 19.8577 8.51589 21.3332 9.67673C21.6396 9.91775 21.9299 10.1783 22.2015 10.4574C23.7386 12.0383 24.6885 14.2001 24.6885 16.5823C24.6885 18.9642 23.7386 21.126 22.2015 22.7069C22.1949 22.7135 22.1886 22.7206 22.1824 22.7272C21.2808 21.1017 19.5718 20.0597 17.6767 20.0597H14.3078C12.4101 20.0597 10.6996 21.1017 9.79766 22.7272C8.24921 21.1448 7.29154 18.9745 7.29154 16.5823C7.29154 13.7793 8.60691 11.2812 10.6468 9.67673Z" fill="#DC8B2D"/>
<path d="M15.9906 18.9863C18.5026 18.9863 20.5462 16.9281 20.5462 14.3983C20.5462 11.8684 18.5026 9.81067 15.9906 9.81067C13.4787 9.81067 11.4351 11.8684 11.4351 14.3983C11.4351 16.9281 13.4787 18.9863 15.9906 18.9863ZM15.9906 11.1107C17.7909 11.1107 19.2551 12.5856 19.2551 14.3983C19.2551 16.2113 17.7905 17.6863 15.9906 17.6863C14.1908 17.6863 12.7262 16.2113 12.7262 14.3983C12.7262 12.586 14.1904 11.1107 15.9906 11.1107Z" fill="#DC8B2D"/>
<path d="M28.4904 34.2209C28.9892 34.7232 29.6529 35.0001 30.3585 35.0001C31.064 35.0001 31.7273 34.7232 32.2265 34.2209C32.7257 33.7182 33.0002 33.0501 33.0002 32.3392C33.0002 31.6283 32.7253 30.9606 32.2265 30.4575L28.1639 26.3663L27.4052 25.6023L26.6466 26.3663L25.9352 27.0828L25.3345 26.4778L23.1699 24.2979L22.3735 25.0996L25.1391 27.8845L23.6695 29.3646L25.3348 31.0418L28.4904 34.2209ZM27.4052 27.1053L31.4803 31.2094C32.099 31.8324 32.099 32.846 31.4803 33.4687V33.469C31.1809 33.7706 30.7825 33.9371 30.3585 33.9371C29.9344 33.9371 29.5364 33.771 29.2366 33.4687L25.1615 29.3649L27.4052 27.1053Z" fill="#DC8B2D"/>
</svg>
