<svg width="38" height="38" viewBox="0 0 38 38" fill="none" xmlns="http://www.w3.org/2000/svg">
<path d="M34.9913 14.8012C34.989 14.7912 34.9868 14.7817 34.9833 14.7719C34.9799 14.7625 34.9758 14.754 34.9713 14.7451C34.9658 14.7342 34.9594 14.7245 34.9522 14.7144C34.9485 14.709 34.9474 14.7026 34.9432 14.6975C34.9407 14.6945 34.937 14.6933 34.9344 14.6904C34.9275 14.6829 34.9199 14.6768 34.9121 14.6701C34.9074 14.666 34.905 14.6603 34.8999 14.6566L28.504 9.94267V5.7881C28.504 5.65216 28.3937 5.54195 28.2578 5.54195H22.5309L19.146 3.04796C19.0593 2.98401 18.9407 2.98401 18.854 3.04796L15.4691 5.54195H9.74219C9.60625 5.54195 9.49603 5.65216 9.49603 5.7881V9.94267L3.10012 14.6566C3.09501 14.6603 3.09259 14.666 3.08786 14.6701C3.08006 14.6768 3.07243 14.6829 3.06553 14.6905C3.06295 14.6933 3.05933 14.6945 3.05685 14.6975C3.0526 14.7026 3.05153 14.709 3.04776 14.7144C3.04061 14.7245 3.03416 14.7342 3.0287 14.7451C3.02422 14.754 3.02015 14.7625 3.01674 14.7719C3.01321 14.7817 3.01095 14.7912 3.00871 14.8012C3.00598 14.8133 3.00443 14.8249 3.00355 14.8373C3.00309 14.8434 3 14.8486 3 14.8548V34.7538C3 34.7645 3.00478 34.7737 3.0061 34.784C3.00817 34.801 3.01043 34.8172 3.01609 34.8335C3.02172 34.8498 3.02994 34.8638 3.0387 34.8784C3.04408 34.8874 3.04599 34.8975 3.05264 34.906C3.05575 34.91 3.06037 34.9117 3.06366 34.9154C3.07511 34.9283 3.08858 34.9381 3.10249 34.9484C3.11471 34.9574 3.12602 34.9668 3.13944 34.9733C3.15305 34.9799 3.16773 34.9831 3.18262 34.9871C3.1991 34.9916 3.21487 34.9962 3.2319 34.9971C3.23688 34.9974 3.24109 35 3.24615 35H34.7538C34.79 35 34.8237 34.9913 34.8546 34.9773C34.8631 34.9735 34.8696 34.9666 34.8776 34.9618C34.8999 34.9485 34.9202 34.9336 34.9372 34.9142C34.9401 34.9108 34.9445 34.9096 34.9474 34.906C34.954 34.8975 34.9559 34.8874 34.9613 34.8784C34.9701 34.8638 34.9783 34.8498 34.9839 34.8335C34.9896 34.8172 34.9918 34.801 34.9939 34.784C34.9952 34.7737 35 34.7645 35 34.7538V14.8548C35 14.8486 34.9969 14.8434 34.9965 14.8373C34.9956 14.8249 34.994 14.8133 34.9913 14.8012ZM28.504 11L34 15L28.504 19V11ZM19 4L21.5 5.54195H16.5L19 4ZM9.98834 6.03426H22.4455L22.4508 6.0351L22.4544 6.03426H28.0117L28 19.5L21.5 25C18.8745 25 19.1255 25 16.5 25L10 19L9.98834 6.03426ZM9.5 11V18.7449L5 14.5L9.5 11ZM4 15L15.1578 25.0725L4 34V15ZM5.5 34L15.6386 26.0156L19 26H22.5L33.5 34H5.5ZM34 33L22.8422 25.0725L34 16V33Z" fill="#DC8B2D"/>
<path d="M13.3487 9.41247H14.768V12.9919C14.768 13.1279 14.8783 13.2381 15.0142 13.2381C15.1501 13.2381 15.2604 13.1279 15.2604 12.9919V9.41247H16.6797C16.8156 9.41247 16.9259 9.30226 16.9259 9.16632C16.9259 9.03038 16.8156 8.92017 16.6797 8.92017H13.3487C13.2128 8.92017 13.1025 9.03038 13.1025 9.16632C13.1025 9.30226 13.2128 9.41247 13.3487 9.41247Z" fill="#DC8B2D"/>
<path d="M17.7652 13.2274C17.7891 13.2347 17.8133 13.2382 17.8372 13.2382C17.9426 13.2382 18.0401 13.1699 18.0725 13.0638L18.319 12.2571H19.693L19.9395 13.0638C19.9792 13.1938 20.1165 13.2669 20.2468 13.2274C20.3768 13.1876 20.45 13.05 20.4104 12.92L19.2415 9.09444C19.2098 8.99084 19.1143 8.92017 19.006 8.92017C18.8978 8.92017 18.8023 8.99084 18.7706 9.09444L17.9094 11.9128C17.9079 11.9161 17.9075 11.9197 17.9062 11.9231L17.6016 12.92C17.5619 13.05 17.6351 13.1876 17.7652 13.2274ZM19.006 10.0086L19.5426 11.7648H18.4694L19.006 10.0086Z" fill="#DC8B2D"/>
<path d="M22.2395 13.2033C22.279 13.227 22.3227 13.2382 22.3656 13.2382C22.4494 13.2382 22.531 13.1954 22.5771 13.1183L23.5091 11.5591L24.4411 13.1183C24.4872 13.1954 24.5688 13.2382 24.6526 13.2382C24.6955 13.2382 24.7391 13.227 24.7787 13.2033C24.8954 13.1336 24.9334 12.9824 24.8637 12.8657L23.7959 11.0792L24.8637 9.29274C24.9334 9.17603 24.8954 9.02483 24.7787 8.95511C24.6622 8.88552 24.5109 8.92374 24.4411 9.04009L23.5091 10.5993L22.5771 9.04009C22.5073 8.92362 22.356 8.88516 22.2395 8.95511C22.1228 9.02483 22.0848 9.17603 22.1545 9.29274L23.2223 11.0792L22.1545 12.8657C22.0848 12.9824 22.1228 13.1336 22.2395 13.2033Z" fill="#DC8B2D"/>
<path d="M12.4908 15.3879H25.5107C25.6467 15.3879 25.7569 15.2777 25.7569 15.1418C25.7569 15.0058 25.6467 14.8956 25.5107 14.8956H12.4908C12.3548 14.8956 12.2446 15.0058 12.2446 15.1418C12.2446 15.2777 12.3548 15.3879 12.4908 15.3879Z" fill="#DC8B2D"/>
<path d="M25.7569 17.499C25.7569 17.363 25.6467 17.2528 25.5107 17.2528H12.4908C12.3548 17.2528 12.2446 17.363 12.2446 17.499C12.2446 17.6349 12.3548 17.7451 12.4908 17.7451H25.5107C25.6467 17.7451 25.7569 17.6349 25.7569 17.499Z" fill="#DC8B2D"/>
<path d="M23.7545 19.8557C23.7545 19.7197 23.6443 19.6095 23.5083 19.6095H14.4918C14.3558 19.6095 14.2456 19.7197 14.2456 19.8557C14.2456 19.9916 14.3558 20.1018 14.4918 20.1018H23.5083C23.6443 20.1018 23.7545 19.9916 23.7545 19.8557Z" fill="#DC8B2D"/>
</svg>
